<?xml version="1.0" encoding="utf-8"?>
<!-- Generator: Adobe Illustrator 24.2.1, SVG Export Plug-In . SVG Version: 6.00 Build 0)  -->
<svg version="1.1" id="Layer_1" xmlns="http://www.w3.org/2000/svg" xmlns:xlink="http://www.w3.org/1999/xlink" x="0px" y="0px"
	 viewBox="0 0 200 200" style="enable-background:new 0 0 200 200;" xml:space="preserve">
<style type="text/css">
	.st0{fill:#1A63E9;}
</style>
<path class="st0" d="M100,1C45.4,1,1,45.4,1,100s44.4,99,99,99c54.6,0,99-44.4,99-99S154.6,1,100,1z M125,152.2
	c-2.8-8.4-5.2-15.6-7.2-21.6c-2-6-4.1-10.8-6.2-14.6c-2.2-3.8-4.7-6.5-7.5-8.3c-0.9-0.6-1.9-1-2.9-1.4v20.9h-9.6V105h-8.6
	c0,5.4,0,9.7,0,10.7v36.5H64.7V48.5h18.2v30.7c0,1.2,0,6.2,0,12.2h8.6V69.1h9.6v20.7c0.8-0.4,1.7-0.8,2.4-1.3
	c2.8-1.9,5.3-4.7,7.4-8.3c2.2-3.7,4.1-8.1,5.9-13.4c1.8-5.3,3.8-11.4,5.9-18.2H142c-2.1,6.4-4,12.1-5.8,17.2
	c-1.8,5.1-3.5,9.5-5.2,13.3c-1.7,3.8-3.6,7-5.6,9.6c-2.1,2.6-4.4,4.7-7.1,6.2c-2.7,1.5-6,2.5-9.8,3v0.6c4.1,0.5,7.6,1.5,10.4,3
	c2.9,1.5,5.4,3.7,7.6,6.5c2.2,2.8,4.2,6.3,6.1,10.4c1.9,4.1,3.7,9,5.6,14.6c1.9,5.6,4.1,12.1,6.5,19.4H125z"/>
</svg>
