<svg width="24" height="28" viewBox="0 0 24 28" fill="currentColor" xmlns="http://www.w3.org/2000/svg">
  <path fill-rule="evenodd" clip-rule="evenodd" d="M18.707 9.293V20.984C18.707 21.686 18.24 22.155 17.538 22.155H16.368V26.249C16.368 27.184 15.55 28 14.615 28C13.678 28 12.862 27.184 12.862 26.249V22.155H10.521V26.249C10.521 27.184 9.705 28 8.77 28C7.833 28 7.017 27.184 7.017 26.249V22.155H5.847C5.144 22.155 4.676 21.686 4.676 20.984V9.293H18.707ZM21.631 9.293C22.567 9.293 23.384 10.115 23.384 11.045V19.231C23.384 20.168 22.567 20.984 21.631 20.984C20.696 20.984 19.878 20.168 19.878 19.231V11.045C19.878 10.115 20.696 9.293 21.631 9.293ZM1.753 9.293C2.689 9.293 3.506 10.115 3.506 11.045V19.231C3.506 20.168 2.689 20.984 1.753 20.984C0.818 20.984 0.001 20.168 0 19.231V11.045C0 10.115 0.818 9.293 1.753 9.293ZM16.487 0.177C16.721 -0.059 17.07 -0.059 17.304 0.177C17.538 0.41 17.538 0.759 17.304 0.993L15.785 2.51C16.274 2.838 16.718 3.237 17.103 3.695C18.027 4.79 18.617 6.213 18.698 7.758L18.701 7.805C18.705 7.912 18.708 8.017 18.708 8.122H4.675C4.675 8.017 4.678 7.912 4.684 7.805L4.686 7.758C4.768 6.213 5.356 4.79 6.28 3.695C6.666 3.237 7.11 2.838 7.599 2.51L6.08 0.993C5.846 0.759 5.846 0.41 6.08 0.177C6.315 -0.059 6.662 -0.059 6.896 0.177L8.465 1.74L8.54 1.813C9.469 1.347 10.512 1.115 11.674 1.112H11.709C12.871 1.115 13.915 1.347 14.845 1.813L14.918 1.74L16.487 0.177ZM14.617 4.326C14.133 4.326 13.741 4.718 13.741 5.203C13.741 5.687 14.133 6.079 14.617 6.079C15.102 6.079 15.494 5.687 15.494 5.203C15.494 4.718 15.102 4.326 14.617 4.326ZM8.766 4.326C8.283 4.326 7.89 4.718 7.89 5.203C7.89 5.687 8.283 6.079 8.766 6.079C9.25 6.079 9.644 5.687 9.644 5.203C9.644 4.718 9.25 4.326 8.766 4.326Z" />
</svg>
