<svg width="23" height="28" viewBox="0 0 23 28" fill="currentColor" xmlns="http://www.w3.org/2000/svg">
  <path fill-rule="evenodd" clip-rule="evenodd" d="M14.8969 4.674C15.8949 3.436 16.5669 1.713 16.3839 0C14.9449 0.059 13.2049 0.982 12.1729 2.219C11.2489 3.314 10.4389 5.067 10.6569 6.747C12.2609 6.874 13.8989 5.912 14.8969 4.674ZM18.5469 14.881C18.5849 19.116 22.1679 20.526 22.2069 20.544C22.1769 20.643 21.6349 22.552 20.3189 24.525C19.1829 26.229 18.0029 27.928 16.1449 27.963C14.3189 27.998 13.7319 26.852 11.6439 26.852C9.55693 26.852 8.90393 27.928 7.17493 27.998C5.38193 28.067 4.01593 26.153 2.86893 24.455C0.526929 20.981 -1.26307 14.637 1.14093 10.355C2.33493 8.229 4.46793 6.882 6.78393 6.848C8.54593 6.813 10.2079 8.064 11.2849 8.064C12.3609 8.064 14.3819 6.56 16.5059 6.78C17.3949 6.819 19.8909 7.149 21.4939 9.556C21.3649 9.638 18.5159 11.341 18.5469 14.881Z" />
</svg>
