<svg width="21" height="24" viewBox="0 0 21 24" fill="currentColor" xmlns="http://www.w3.org/2000/svg">
  <path clip-rule="evenodd" d="M4.80299 11.8949C4.62418 11.8725 4.85475 11.7384 4.95357 11.569C5.0618 11.382 5.04062 11.1502 5.15356 11.1843C5.26767 11.2184 5.20414 11.349 5.12532 11.5619C5.06062 11.7443 4.87004 11.9031 4.80299 11.8949ZM9.38388 5.4341C9.76268 5.25764 9.89444 5.53056 9.76386 5.57409C9.63092 5.61879 9.62975 5.36939 9.38388 5.4341ZM10.9391 4.4871C11.045 4.51768 11.1473 4.7012 11.1685 4.90001C11.1708 4.91766 11.3073 4.8706 11.3085 4.82825C11.3167 4.50945 11.045 4.36004 10.9744 4.36593C10.8097 4.38122 10.8567 4.46239 10.9391 4.4871ZM7.90397 4.62473C7.95338 4.61415 8.02279 4.69767 8.00161 4.81531C7.97103 4.97883 7.98397 5.08118 8.09808 5.08118C8.11572 5.08118 8.13572 5.07882 8.14396 5.0353C8.19807 4.71061 8.02867 4.47063 7.95926 4.45298C7.80045 4.41298 7.81927 4.64238 7.90397 4.62473ZM8.61805 5.39527C8.20278 5.36351 8.17337 5.66585 8.31101 5.65996C8.45217 5.65526 8.36512 5.42233 8.61805 5.39527ZM12.8013 7.01282C12.8954 6.914 12.9437 7.1834 13.1966 7.34339C13.3977 7.47044 13.593 7.37633 13.6436 7.63278C13.6801 7.8163 13.5648 8.01629 13.4107 7.99041C13.1425 7.94453 12.5225 7.30574 12.8013 7.01282ZM11.2508 1.76962C11.2026 1.91314 11.005 2.03313 11.1308 2.13312C11.2567 2.23429 11.3285 1.99313 11.5814 1.90255C11.6461 1.87902 11.9508 1.91196 12.0061 1.76844C12.032 1.70492 11.8496 1.63316 11.7414 1.52963C11.6343 1.42729 11.5285 1.33553 11.4273 1.34141C11.1649 1.35788 11.2943 1.64257 11.2508 1.76962ZM6.62405 19.9967C6.94639 20.5049 8.08514 22.6471 6.08997 22.9248C5.4206 23.0177 4.34655 22.5366 3.30544 22.2813C2.3702 22.0531 1.41849 21.9178 0.88794 21.7684C0.566783 21.6778 0.432674 21.5625 0.405617 21.4284C0.331504 21.0731 0.795004 20.5743 0.817356 20.1544C0.840884 19.7332 0.663248 19.5144 0.518551 19.1709C0.373854 18.8262 0.336209 18.5686 0.452673 18.4203C0.543255 18.3062 0.725597 18.258 1.0244 18.2874C1.4032 18.3251 1.86082 18.2474 2.10669 18.0968C2.52078 17.8451 2.71606 17.3275 2.52901 16.704C2.52901 17.3134 2.32903 17.5451 1.82788 17.8239C1.35497 18.0874 0.625603 17.8745 0.29033 18.1651C-0.113174 18.5145 0.43385 19.4191 0.389147 20.0814C0.355032 20.592 -0.1767 21.1661 0.0609323 21.6766C0.299741 22.1919 1.41144 22.2472 2.57254 22.4907C4.22185 22.8354 5.18297 23.4365 5.94527 23.4636C7.05697 23.5059 7.22754 22.3636 8.97214 22.3483C9.48152 22.3225 9.97914 22.306 10.4768 22.3001C11.0402 22.293 11.6026 22.2978 12.1814 22.3107C13.3436 22.3389 12.9437 22.9459 13.6977 23.333C14.333 23.6588 15.4753 23.5306 15.7505 23.2695C16.1199 22.9165 17.114 22.0672 17.8739 21.6837C18.8233 21.2061 21.0526 20.3826 19.435 19.3791C19.0574 19.145 18.1657 18.898 18.0904 17.1863C17.7539 17.4863 17.7928 19.0803 18.7339 19.3968C19.7856 19.7509 20.4432 20.3426 18.488 21.0119C17.1928 21.4543 16.9728 21.5907 15.9482 22.4436C14.9106 23.3071 13.3707 22.9648 13.6401 21.1461C13.7801 20.1991 13.8601 19.4168 13.6248 18.5933C13.5095 18.1909 13.453 17.6757 13.5307 17.3134C13.6836 16.6099 14.0648 16.3981 14.4377 17.0734C14.673 17.4969 14.7541 17.9933 15.5929 18.0333C16.9105 18.0957 17.1728 16.7593 17.5928 16.6993C17.8739 16.6581 18.1551 15.864 17.941 14.5771C17.7116 13.2007 16.9011 11.0267 15.8623 9.92323C14.9988 9.00681 14.4542 8.20333 14.1118 7.05752C13.8248 6.09288 13.6636 5.15529 13.7236 4.25887C13.8001 3.09777 13.1566 1.4814 12.1308 0.720272C11.4885 0.245007 10.4815 -0.010271 9.57093 0.000316585C9.05919 0.00502217 8.57805 0.0803116 8.20984 0.280299C6.68875 1.10613 6.47583 2.28606 6.49818 3.63186C6.51935 4.89648 6.56288 6.33875 6.7064 7.7116C6.537 8.34215 5.65117 9.53737 5.08297 10.2644C4.32184 11.0173 3.93716 12.4725 3.44307 13.7442C3.17956 14.4218 2.73606 14.7288 2.69959 15.5993C2.689 15.844 2.69724 16.4746 2.93017 16.2946C3.82187 15.6041 4.93828 17.3428 6.62405 19.9967ZM6.94521 20.032C7.78751 19.945 7.89927 19.0532 7.50165 18.665C7.17578 18.3439 5.37354 17.0063 4.90298 16.4805C4.68417 16.237 4.3889 16.117 4.2642 15.8429C3.97598 15.2111 3.77364 14.3112 4.1395 13.6642C4.20538 13.5465 4.24773 13.5995 4.19714 13.843C3.9101 15.2229 4.80887 16.3511 5.00651 15.7723C5.14297 15.3735 5.01709 14.6582 5.09003 14.0912C5.21943 13.0866 6.13349 11.1584 6.53465 11.0479C5.91469 9.90205 7.26048 9.00328 7.24401 7.99747C7.23343 7.34221 7.81927 8.80212 8.40747 9.11151C9.06508 9.45737 9.78738 8.45979 10.8132 7.95394C11.1038 7.81159 11.4767 7.6469 11.4508 7.52455C11.3308 6.93636 10.1038 8.25039 9.00861 8.29509C8.50746 8.31509 8.32277 8.19628 8.12866 8.01041C7.54517 7.44573 8.18866 7.91747 9.05684 7.75983C9.4427 7.69043 9.57328 7.62572 9.98149 7.45985C10.3921 7.29516 10.8591 7.04929 11.3226 6.92341C11.6449 6.83636 11.619 6.59402 11.4932 6.52109C11.4214 6.47874 11.3143 6.48344 11.2296 6.62932C11.0308 6.974 10.0956 7.17163 9.80385 7.26222C9.42976 7.37633 9.01449 7.48338 8.46394 7.46103C7.62752 7.42691 7.8228 7.04341 7.22519 6.6999C7.04873 6.59991 7.09579 6.33522 7.32871 6.10229C7.45106 5.97994 7.78633 5.91171 7.9522 5.63291C7.97573 5.59526 8.18984 5.37057 8.35689 5.25411C8.41453 5.21529 8.42041 4.19417 7.89574 4.173C7.45106 4.15418 7.32519 4.50004 7.34283 4.84354C7.36165 5.18705 7.544 5.47056 7.66516 5.46939C7.89927 5.46703 7.67928 5.72467 7.55223 5.76702C7.35812 5.82937 7.09108 5.00118 7.12167 4.60356C7.15343 4.18947 7.36989 3.4554 7.89456 3.46951C8.3663 3.48245 8.70863 4.07418 8.69216 5.09529C8.68863 5.2694 9.45682 5.01295 9.71445 5.28352C9.89679 5.47762 9.08508 3.47422 10.8932 3.33658C11.3696 3.42834 11.8273 3.58715 12.0178 4.6812C11.9473 4.79531 12.1355 5.55997 11.8414 5.65055C11.4837 5.76113 11.2614 5.63408 11.4685 5.29293C11.6108 4.94942 11.472 4.07653 10.7461 4.12829C10.0203 4.18123 10.1168 5.46939 10.3156 5.49527C10.5132 5.52115 11.0155 5.87642 11.3661 5.94465C12.5155 6.16817 11.6708 6.82695 11.8202 7.62455C11.9872 8.52449 12.5813 8.28686 13.1142 10.6714C13.226 10.8161 13.6671 10.9538 14.0965 12.7854C14.4836 14.4335 13.9365 15.6323 14.8671 15.5335C15.0765 15.5111 15.3823 15.4523 15.5153 14.9864C15.8635 13.7653 15.3412 12.3113 14.8141 11.3302C14.5071 10.7573 14.2177 10.3679 14.0648 10.2338C14.6694 10.5914 15.4423 11.7325 15.62 12.5807C15.8552 13.6936 16.0223 14.1653 15.667 15.3429C15.8717 15.4452 16.3823 15.6617 16.3823 15.904C15.8517 15.4688 14.2283 15.3911 14.1859 16.4334C13.9083 16.4393 13.6989 16.4616 13.5213 16.6734C12.8672 17.4475 13.4742 19.0038 13.4072 19.8379C13.3507 20.572 13.1472 21.299 13.0319 22.0366C12.6425 22.0213 12.6801 21.7378 12.806 21.3378C12.9154 20.9861 13.0931 20.5449 13.1048 20.1226C13.1142 19.7391 13.0731 19.5003 12.9766 19.4403C12.8801 19.3815 12.7284 19.5015 12.5202 19.8379C12.0743 20.5555 11.1085 20.872 10.2074 20.9849C9.30506 21.0978 8.46629 21.0084 8.02279 20.5108C7.86986 20.3414 7.61928 20.5579 7.5887 20.6026C7.5487 20.6637 7.73575 20.7802 7.87692 21.039C8.08279 21.4166 8.27924 21.9907 7.79104 22.2519C7.79692 20.9214 7.37695 20.8437 6.94521 20.032Z" />
</svg>
