<svg width="15" height="24" viewBox="0 0 15 24" fill="currentColor" xmlns="http://www.w3.org/2000/svg">
  <path fill-rule="evenodd" clip-rule="evenodd" d="M2.25 21H12.75V2.25H2.25V21ZM13.5 21.75C13.5 22.1623 13.1623 22.5 12.75 22.5H2.25C1.83771 22.5 1.5 22.1623 1.5 21.75V2.25C1.5 1.83771 1.83771 1.5 2.25 1.5H12.75C13.1623 1.5 13.5 1.83771 13.5 2.25V21.75ZM12.75 0H2.25C1.01229 0 0 1.01229 0 2.25V21.75C0 22.9877 1.01229 24 2.25 24H12.75C13.9877 24 15 22.9877 15 21.75V2.25C15 1.01229 13.9877 0 12.75 0Z" />
</svg>
