<svg width="15" height="20" viewBox="0 0 15 20" fill="currentColor" xmlns="http://www.w3.org/2000/svg">
  <path fill-rule="evenodd" clip-rule="evenodd" d="M0 0V19.1604H14.9949L15 0.00830282L0.93758 0H0ZM8.33092 5.41472H11.6629V4.58188H8.33092V5.41472ZM5.41472 5.41472H7.49745V4.58188H5.41472V5.41472ZM6.66461 7.49745H11.6629V6.66461H6.66461V7.49745ZM3.33198 7.49745H5.83113V6.66461H3.33198V7.49745ZM10.413 9.57954H11.6629V8.7467H10.413V9.57954ZM5.83113 9.57954H9.57954V8.7467H5.83113V9.57954ZM3.33198 9.57954H4.9983V8.7467H3.33198V9.57954ZM6.66461 11.6629H11.6629V10.8294H6.66461V11.6629ZM3.33198 11.6629H5.83113V10.8294H3.33198V11.6629ZM9.99659 13.7456H11.6629V12.9128H9.99659V13.7456ZM5.41472 13.7456H9.16376V12.9128H5.41472V13.7456ZM3.33198 13.7456H4.58188V12.9128H3.33198V13.7456ZM7.08103 15.8277H11.6629V14.9949H7.08103V15.8277ZM3.33198 15.8277H6.24755V14.9949H3.33198V15.8277Z" />
</svg>
