<svg width="28" height="28" viewBox="0 0 28 28" fill="currentColor" xmlns="http://www.w3.org/2000/svg">
  <path fill-rule="evenodd" clip-rule="evenodd" d="M13.999 0C6.269 0 0 6.205 0 13.86C0 19.983 4.011 25.177 9.575 27.011C10.275 27.137 10.53 26.709 10.53 26.342C10.53 26.014 10.519 25.142 10.512 23.985C6.618 24.822 5.796 22.127 5.796 22.127C5.159 20.526 4.241 20.1 4.241 20.1C2.97 19.24 4.337 19.257 4.337 19.257C5.743 19.356 6.481 20.686 6.481 20.686C7.73 22.803 9.758 22.191 10.556 21.838C10.684 20.942 11.044 20.331 11.445 19.984C8.336 19.635 5.068 18.445 5.068 13.135C5.068 11.622 5.614 10.385 6.509 9.416C6.365 9.065 5.884 7.656 6.646 5.748C6.646 5.748 7.821 5.375 10.496 7.169C11.612 6.861 12.811 6.708 14.001 6.702C15.189 6.708 16.387 6.861 17.505 7.169C20.178 5.375 21.352 5.748 21.352 5.748C22.115 7.656 21.635 9.065 21.491 9.416C22.388 10.385 22.93 11.622 22.93 13.135C22.93 18.459 19.657 19.631 16.538 19.974C17.041 20.401 17.488 21.247 17.488 22.541C17.488 24.393 17.471 25.888 17.471 26.342C17.471 26.713 17.723 27.144 18.434 27.009C23.992 25.172 28 19.981 28 13.86C28 6.205 21.731 0 13.999 0Z" />
</svg>
