<svg width="28" height="28" viewBox="0 0 28 28" fill="currentColor" xmlns="http://www.w3.org/2000/svg">
  <path fill-rule="evenodd" clip-rule="evenodd" d="M23.021 22.496C24.612 22.496 25.9 23.702 25.9 25.189C25.9 26.679 24.612 27.883 23.021 27.883C21.43 27.883 20.142 26.679 20.142 25.189C20.142 23.702 21.43 22.496 23.021 22.496ZM28 14.896C27.782 17.454 26.686 19.839 24.854 21.72C23.679 21.14 22.234 21.13 21.006 21.815C19.778 22.501 19.065 23.719 18.999 24.995C18.127 25.192 17.224 25.295 16.306 25.295C14.55 25.295 12.852 24.924 11.31 24.22L13.72 20.183C14.519 20.495 15.393 20.667 16.306 20.667C19.806 20.667 22.709 18.154 23.188 14.896H28ZM9.607 4.622L12.015 8.659C10.397 9.891 9.356 11.802 9.356 13.944C9.356 16.085 10.396 17.996 12.013 19.229L9.605 23.265C9.037 22.88 8.503 22.447 8.009 21.97C6.615 20.622 5.614 18.994 5.065 17.216C6.173 16.523 6.908 15.316 6.908 13.944C6.908 12.572 6.174 11.366 5.065 10.672C5.616 8.894 6.615 7.266 8.009 5.918C8.503 5.441 9.037 5.007 9.607 4.622ZM2.879 11.251C4.47 11.251 5.757 12.457 5.757 13.944C5.757 15.432 4.47 16.638 2.879 16.638C1.289 16.638 0 15.432 0 13.944C0 12.457 1.289 11.251 2.879 11.251ZM16.306 2.594C17.211 2.594 18.113 2.694 18.997 2.893C19.065 4.168 19.776 5.383 21.005 6.069C22.231 6.754 23.676 6.743 24.851 6.164C26.685 8.045 27.78 10.43 28 12.99H23.188C22.707 9.733 19.804 7.221 16.306 7.221L15.928 7.231C15.171 7.271 14.426 7.43 13.72 7.704L11.311 3.668C12.853 2.965 14.551 2.594 16.306 2.594ZM23.019 0C24.609 0 25.897 1.206 25.897 2.694C25.897 4.182 24.609 5.388 23.019 5.388C21.429 5.388 20.141 4.182 20.141 2.694C20.141 1.206 21.429 0 23.019 0Z" />
</svg>
