<svg width="18" height="18" viewBox="0 0 18 18" fill="currentColor" xmlns="http://www.w3.org/2000/svg">
  <path fill-rule="evenodd" clip-rule="evenodd" d="M10.6258 15.3617C9.54514 15.2454 8.4555 15.2454 7.37421 15.3617C7.85764 16.1524 8.4015 16.9046 9 17.6117C9.59914 16.9046 10.1424 16.1524 10.6258 15.3617ZM10.5249 17.7859C11.8292 17.5641 13.068 17.0563 14.1525 16.2984C13.4717 15.9737 12.7524 15.7346 12.0124 15.5867C11.5682 16.353 11.0706 17.0884 10.5249 17.7859ZM3.84814 16.2984C4.93264 17.0563 6.17143 17.5641 7.47579 17.7859C6.92936 17.0884 6.43243 16.353 5.98821 15.5867C5.24764 15.7346 4.52893 15.9737 3.84814 16.2984ZM15.2241 2.36829C14.418 2.83436 13.5456 3.17443 12.6366 3.37757C13.3881 4.90114 13.8381 6.55521 13.9616 8.24914H18C17.8406 6.01136 16.8506 3.91371 15.2241 2.36829ZM12.6366 14.4084C13.5456 14.6115 14.418 14.9522 15.2241 15.4176C16.8506 13.8722 17.8406 11.7746 18 9.53679H13.9616C13.8381 11.2314 13.3881 12.8848 12.6366 14.4084ZM11.3091 3.62829C10.5441 3.73564 9.77271 3.789 9 3.78836C8.22793 3.789 7.45586 3.73564 6.69086 3.62829C5.93871 5.06314 5.481 6.63429 5.34407 8.24914H12.6566C12.5196 6.63429 12.0613 5.06314 11.3091 3.62829ZM10.5249 0C11.0706 0.6975 11.5682 1.43293 12.0124 2.19921C12.7524 2.05136 13.4717 1.81221 14.1525 1.48757C13.068 0.729643 11.8292 0.221786 10.5249 0ZM5.34407 9.53679C5.48421 11.1523 5.94643 12.7234 6.70243 14.1576C8.23436 13.9442 9.78879 13.9442 11.3207 14.1576C12.069 12.7221 12.5229 11.151 12.6566 9.53679H5.34407ZM5.98821 2.19921C6.43243 1.43293 6.92936 0.6975 7.47579 0C6.17143 0.221786 4.93264 0.729643 3.84814 1.48757C4.52893 1.81221 5.24764 2.05136 5.98821 2.19921ZM10.6258 2.42421C10.1424 1.6335 9.59914 0.881357 9 0.174214C8.4015 0.881357 7.85764 1.6335 7.37421 2.42421C7.91486 2.48207 8.45679 2.511 9 2.51164C9.54321 2.511 10.0858 2.48207 10.6258 2.42421ZM0 8.24914H4.03907C4.1625 6.55521 4.6125 4.90114 5.36336 3.37757C4.455 3.17443 3.582 2.83436 2.7765 2.36829C1.15007 3.91371 0.160071 6.01136 0 8.24914ZM0 9.53679H4.03907C4.1625 11.2314 4.6125 12.8848 5.36336 14.4084C4.455 14.6115 3.582 14.9522 2.7765 15.4176C1.15007 13.8722 0.160071 11.7746 0 9.53679Z" />
</svg>
