<svg width="28" height="28" viewBox="0 0 28 28" fill="currentColor" xmlns="http://www.w3.org/2000/svg">
  <path fill-rule="evenodd" clip-rule="evenodd" d="M27.9274 0C22.8804 0.7 17.8324 1.426 12.7944 2.197C12.7914 5.922 12.7914 9.649 12.7944 13.379C15.401 13.3713 18.0068 13.3467 20.6123 13.3222H20.6124H20.6125C23.0519 13.2992 25.491 13.2762 27.9304 13.267C27.9289 11.0578 27.9289 8.84962 27.9289 6.64155V6.63312V6.6247C27.9289 4.41663 27.9289 2.20869 27.9274 0ZM11.412 2.4142C7.604 2.8902 3.792 3.3962 0 3.9812V13.4622C1.99008 13.4674 3.97962 13.4538 5.96904 13.4402H5.96909H5.96914C7.78541 13.4277 9.60159 13.4153 11.418 13.4172C11.4173 12.1953 11.4169 10.9737 11.4164 9.75226V9.75138V9.75049C11.4156 7.30496 11.4147 4.86002 11.412 2.4142ZM0 14.6164C1.96989 14.6102 3.93978 14.6233 5.90967 14.6364C7.74278 14.6486 9.57589 14.6608 11.409 14.6574C11.409 16.037 11.4103 17.4165 11.4115 18.796C11.4136 21.0951 11.4157 23.394 11.412 25.6934C8.49315 25.2617 5.57135 24.8702 2.64796 24.4784L2.64704 24.4783C1.76483 24.36 0.882468 24.2418 0 24.1224V14.6164ZM27.9269 14.7644H12.7719C12.7746 16.7833 12.7791 18.8013 12.7837 20.819C12.7874 22.4992 12.7912 24.1792 12.7939 25.8594C17.8409 26.5444 22.8899 27.2434 27.9269 28.0004C27.9269 26.5284 27.9276 25.0568 27.9282 23.5856C27.9296 20.6442 27.9309 17.7041 27.9269 14.7644Z" />
</svg>
