<svg xmlns="http://www.w3.org/2000/svg" xmlns:xlink="http://www.w3.org/1999/xlink" viewBox="0 0 410.44 366.47"><defs><style>.cls-1{fill:#f4f6fb;}.cls-1,.cls-10,.cls-11,.cls-14,.cls-2,.cls-3,.cls-8,.cls-9{fill-rule:evenodd;}.cls-2{fill:#d5def1;}.cls-3{fill:#e0e7f5;}.cls-4,.cls-5{fill:none;}.cls-4,.cls-6{stroke:#6d9ffc;}.cls-4,.cls-5,.cls-7{stroke-linecap:round;}.cls-4,.cls-5,.cls-6,.cls-7{stroke-miterlimit:10;stroke-width:2px;}.cls-5,.cls-7{stroke:#cdd8ee;}.cls-6,.cls-9{fill:#1a63e9;}.cls-6{stroke-linecap:square;}.cls-14,.cls-7{fill:#fff;}.cls-8{fill:#c1d6fb;}.cls-10{fill:#6196f9;}.cls-11{fill:#83adfb;}.cls-12{fill:url(#linear-gradient);}.cls-13{fill:url(#linear-gradient-2);}.cls-15{fill:url(#linear-gradient-3);}.cls-16{fill:url(#linear-gradient-4);}</style><linearGradient id="linear-gradient" x1="82.3" y1="174.45" x2="82.3" y2="119.9" gradientUnits="userSpaceOnUse"><stop offset="0" stop-color="#6196f9"/><stop offset="1" stop-color="#fff"/></linearGradient><linearGradient id="linear-gradient-2" x1="81.3" y1="173.68" x2="81.3" y2="120.12" gradientUnits="userSpaceOnUse"><stop offset="0" stop-color="#83adfb"/><stop offset="1" stop-color="#fff"/></linearGradient><linearGradient id="linear-gradient-3" x1="81.23" y1="118.43" x2="130.73" y2="91.02" gradientUnits="userSpaceOnUse"><stop offset="0" stop-color="#fff"/><stop offset="1" stop-color="#c1d6fb"/></linearGradient><linearGradient id="linear-gradient-4" x1="129.6" y1="118.43" x2="179.1" y2="91.02" gradientTransform="matrix(-1, 0, 0, 1, 211.96, 0)" xlink:href="#linear-gradient-3"/></defs><g id="Layer_2" data-name="Layer 2"><g id="Layer_1-2" data-name="Layer 1"><polygon class="cls-1" points="197.87 0 148.52 27.74 197.87 55.48 247.22 27.74 197.87 0"/><polygon class="cls-2" points="197.87 55.4 197.87 110.71 247.22 82.97 247.22 27.74 197.87 55.4"/><polygon class="cls-3" points="148.52 82.97 197.87 110.71 197.87 55.4 148.52 27.74 148.52 82.97"/><polygon class="cls-1" points="313.94 191.85 264.59 219.59 313.94 247.33 363.29 219.59 313.94 191.85"/><polygon class="cls-3" points="264.59 274.82 313.94 302.56 313.94 247.26 264.59 219.59 264.59 274.82"/><line class="cls-4" x1="173.19" y1="69.35" x2="123.84" y2="97.01"/><line class="cls-5" x1="222.51" y1="69.35" x2="271.86" y2="97.01"/><line class="cls-4" x1="57.12" y1="133.25" x2="7.8" y2="160.95"/><circle class="cls-6" cx="9.9" cy="159.65" r="8.9"/><line class="cls-5" x1="353.32" y1="226.33" x2="402.64" y2="198.64"/><circle class="cls-7" cx="400.54" cy="199.94" r="8.9"/><polygon class="cls-1" points="313.94 64.03 264.59 91.77 313.94 119.51 363.29 91.77 313.94 64.03"/><polygon class="cls-2" points="313.94 119.43 313.94 174.74 363.29 147 363.29 91.77 313.94 119.43"/><polygon class="cls-3" points="264.59 147 313.94 174.74 313.94 119.43 264.59 91.77 264.59 147"/><line class="cls-5" x1="289.27" y1="133.25" x2="239.93" y2="160.91"/><polygon class="cls-1" points="197.87 127.94 148.52 155.68 197.87 183.42 247.22 155.68 197.87 127.94"/><polygon class="cls-2" points="197.87 183.34 197.87 238.65 247.22 210.91 247.22 155.68 197.87 183.34"/><polygon class="cls-3" points="148.52 210.91 197.87 238.65 197.87 183.34 148.52 155.68 148.52 210.91"/><line class="cls-5" x1="173.19" y1="197.16" x2="123.85" y2="224.82"/><polygon class="cls-1" points="81.8 191.85 32.45 219.59 81.8 247.33 131.15 219.59 81.8 191.85"/><polygon class="cls-2" points="81.8 247.26 81.8 302.56 131.15 274.82 131.15 219.59 81.8 247.26"/><polygon class="cls-3" points="32.45 274.82 81.8 302.56 81.8 247.26 32.45 219.59 32.45 274.82"/><line class="cls-5" x1="106.47" y1="261.08" x2="155.82" y2="288.74"/><line class="cls-5" x1="289.24" y1="261.09" x2="239.9" y2="288.75"/><polygon class="cls-1" points="197.87 255.76 148.52 283.5 197.87 311.24 247.22 283.5 197.87 255.76"/><polygon class="cls-2" points="197.87 311.16 197.87 366.47 247.22 338.73 247.22 283.5 197.87 311.16"/><polygon class="cls-3" points="148.52 338.73 197.87 366.47 197.87 311.16 148.52 283.5 148.52 338.73"/><polygon class="cls-2" points="313.94 247.26 313.94 302.56 363.29 274.82 363.29 219.59 313.94 247.26"/><polygon class="cls-8" points="81.8 64.03 32.45 91.77 81.8 119.51 131.15 91.77 81.8 64.03"/><polygon class="cls-9" points="81.81 99.23 65.88 108.19 81.81 117.14 97.74 108.19 81.81 99.23"/><polygon class="cls-10" points="81.8 119.43 81.8 174.74 131.15 147 131.15 91.77 81.8 119.43"/><polygon class="cls-9" points="82.78 118.62 82.78 136.54 98.77 127.55 98.77 109.66 82.78 118.62"/><polygon class="cls-11" points="32.45 147 81.8 174.74 81.8 119.43 32.45 91.77 32.45 147"/><polygon class="cls-9" points="65.12 127.59 80.74 136.37 80.74 118.87 65.12 110.12 65.12 127.59"/><rect class="cls-12" x="81.8" y="118.83" width="1" height="54.98"/><rect class="cls-13" x="80.8" y="118.83" width="1" height="54.98"/><path class="cls-14" d="M81.82,110.5c.27-.29.48-.54.65-.76a2,2,0,0,0,.32-.61.63.63,0,0,0,0-.49,1.47,1.47,0,0,0-.47-.46l0,0a3.66,3.66,0,0,0,.84.2,4.46,4.46,0,0,0,.89,0,7.47,7.47,0,0,0,1-.19c.38-.09.79-.21,1.25-.35l1.56-.48-1.25-.61c-.61.19-1.15.37-1.63.51a10.8,10.8,0,0,1-1.3.33,4,4,0,0,1-1.06.09l-.24,0,1.42-.8-.62-.31-1.52.86-.55-.27.83-.47,2.1-1.17-1.16-.57-7.16,4,1.16.59L79.45,108l.73-.42.55.28-1.54.87.62.31,1.45-.82a.46.46,0,0,1,.09.15.66.66,0,0,1-.09.56,4.21,4.21,0,0,1-.61.78l-1,1.09,1.28.65.93-1"/><path class="cls-14" d="M75,126.94c-.12-.53-.24-1-.36-1.39a10.12,10.12,0,0,0-.38-1,3.3,3.3,0,0,0-.48-.76,2.74,2.74,0,0,0-.65-.56v0a1.19,1.19,0,0,0,.61,0,.92.92,0,0,0,.44-.31,2.52,2.52,0,0,0,.34-.64,9.7,9.7,0,0,0,.31-1c.11-.37.23-.8.35-1.27L74,119.45c-.13.5-.24,1-.35,1.34a4.76,4.76,0,0,1-.36.95,1.13,1.13,0,0,1-.46.48l-.15,0v-1.73l-.6-.28,0,1.85-.53-.25c0-.49,0-.91,0-1l0-2.56-1.13-.54.06,8.66,1.13.53,0-3c0-.09,0-.45,0-.9l.53.26,0,1.85.59.28v-1.74a1.12,1.12,0,0,1,.18.2,3.16,3.16,0,0,1,.47.92,11.35,11.35,0,0,1,.4,1.4c.13.55.28,1.22.46,2l1.22.57c-.16-.68-.29-1.28-.41-1.8"/><path class="cls-14" d="M92.87,124.7c-.12-.4-.24-.74-.35-1a2.9,2.9,0,0,0-.38-.67.89.89,0,0,0-.48-.3,1.29,1.29,0,0,0-.65.07v0a2.91,2.91,0,0,0,.61-.54,3.47,3.47,0,0,0,.45-.73,9.44,9.44,0,0,0,.35-1c.1-.37.21-.79.32-1.26s.23-1,.36-1.59l-1.2.59c-.13.62-.25,1.18-.37,1.67a8.87,8.87,0,0,1-.37,1.29,3.94,3.94,0,0,1-.46.92l-.15.18v-1.71l-.6.3v1.83l-.54.26v-3.52l-1.14.55v8.54l1.14-.56v-3.88l.54-.26v1.83l.6-.3v-1.72l.18,0a.94.94,0,0,1,.47.46,4.44,4.44,0,0,1,.39,1c.13.43.28.95.45,1.55l1.23-.6-.4-1.4"/><polygon class="cls-15" points="81.8 119.43 80.82 117.68 129.1 90.62 131.14 91.77 81.8 119.43"/><polygon class="cls-16" points="81.8 119.43 82.78 117.68 34.49 90.62 32.45 91.77 81.8 119.43"/></g></g></svg>