<svg width="230" height="265" viewBox="0 0 230 265" xmlns="http://www.w3.org/2000/svg">
  <path fill-rule="evenodd" clip-rule="evenodd" d="M107.148 137.109L2.3 195.942C-0.766667 197.662 -0.766667 202.069 2.3 203.79L107.148 262.622C112.005 265.348 117.934 265.348 122.791 262.622L227.639 203.79C230.706 202.069 230.706 197.662 227.639 195.942L122.791 137.109C117.934 134.383 112.005 134.383 107.148 137.109Z" fill="#FAFBFE"/>
  <path fill-rule="evenodd" clip-rule="evenodd" d="M107.148 99.8798L2.3 158.713C-0.766667 160.433 -0.766667 164.84 2.3 166.561L107.148 225.393C112.005 228.119 117.934 228.119 122.791 225.393L227.639 166.561C230.706 164.84 230.706 160.433 227.639 158.713L122.791 99.8798C117.934 97.1543 112.005 97.1543 107.148 99.8798Z" fill="#E5EEFE"/>
  <path opacity="0.7" fill-rule="evenodd" clip-rule="evenodd" d="M140.003 171.149C141.391 172.827 140.516 175.021 138.049 176.038C135.583 177.043 132.464 176.502 131.076 174.844C129.691 173.199 130.564 171.05 133.031 170.024C135.498 168.987 138.618 169.483 140.003 171.149ZM133.67 158.387C135.715 161.32 136.238 164.678 135.15 167.97C132.788 168.101 130.538 169.031 129.272 170.573C128.008 172.108 128.037 173.896 129.123 175.345C127.955 176.106 126.651 176.778 125.227 177.341C122.505 178.409 119.527 179.024 116.48 179.176L116.456 173.369C117.985 173.213 119.501 172.859 120.916 172.293C126.343 170.086 128.502 165.475 126.21 161.646L133.67 158.387ZM103.077 162.384C101.716 164.654 101.882 167.251 103.878 169.458C105.872 171.684 109.265 173.063 112.92 173.391L112.947 179.149C111.708 179.069 110.476 178.917 109.266 178.696C105.849 178.074 102.78 176.941 100.273 175.403C101.345 174.035 101.36 172.349 100.082 170.933C98.804 169.525 96.5425 168.735 94.1766 168.696C93.3745 166.574 93.4067 164.337 94.3122 162.132C94.6338 161.35 95.0574 160.584 95.5825 159.842L103.077 162.384ZM98.2976 171.617C99.6838 173.15 98.8119 175.149 96.3452 176.067C93.88 176.973 90.758 176.466 89.3718 174.954C87.9866 173.452 88.8616 171.499 91.3267 170.573C93.7935 169.635 96.9123 170.096 98.2976 171.617ZM108.53 151.973C109.823 153.218 112.058 153.976 114.602 153.848C117.141 153.721 119.371 152.721 120.654 151.308C125.249 151.994 129.169 153.749 131.895 156.332L124.434 159.611C120.654 156.498 113.813 155.842 108.39 158.158L107.813 158.415C106.677 158.948 105.67 159.593 104.831 160.326L97.3357 157.81C99.0715 156.116 101.358 154.638 104.079 153.477C105.483 152.874 106.974 152.369 108.53 151.973ZM119.043 146.999C120.429 148.528 119.555 150.673 117.09 151.773C114.625 152.861 111.505 152.505 110.119 150.996C108.732 149.497 109.606 147.399 112.071 146.291C114.536 145.171 117.657 145.48 119.043 146.999Z" fill="white"/>
  <path fill-rule="evenodd" clip-rule="evenodd" d="M107.148 52.9855L2.3 111.819C-0.766667 113.539 -0.766667 117.946 2.3 119.667L107.148 178.499C112.005 181.225 117.934 181.225 122.791 178.499L227.639 119.667C230.706 117.946 230.706 113.539 227.639 111.819L122.791 52.9855C117.934 50.26 112.005 50.26 107.148 52.9855Z" fill="#2E77FF" fill-opacity="0.2"/>
  <path fill-rule="evenodd" clip-rule="evenodd" d="M100.794 99.0471C98.9798 100.266 97.7456 102.498 97.807 104.435C97.8493 106.158 98.8281 108.369 101.132 109.675C103.445 108.479 104.472 106.298 104.314 104.394M133.674 112.384C133.767 112.494 135.617 114.585 136.588 117.352C137.44 119.741 138.239 122.159 135.848 123.696C133.472 125.21 131.114 124.701 128.3 126.403C125.451 128.108 126.027 129.57 123.726 131.048C121.31 132.58 116.767 132.055 112.845 131.533C104.873 130.455 94.1182 126.405 92.2621 120.662C91.3768 117.805 92.7658 114.862 95.953 112.931C98.3362 111.458 102.115 111.202 103.572 110.323C105.018 109.447 105.89 106.478 108.946 104.949C110.15 104.264 113.764 102.539 118.743 103.365C118.681 103.54 117.145 107.334 121.642 110.407" fill="white" fill-opacity="0.7"/>
  <path fill-rule="evenodd" clip-rule="evenodd" d="M107.148 2.41206L2.3 61.245C-0.766667 62.9654 -0.766667 67.3723 2.3 69.093L107.148 127.926C112.005 130.651 117.934 130.651 122.791 127.926L227.639 69.093C230.706 67.3723 230.706 62.9654 227.639 61.245L122.791 2.41206C117.934 -0.313459 112.005 -0.313459 107.148 2.41206Z" fill="#075EFF" fill-opacity="0.3"/>
  <path fill-rule="evenodd" clip-rule="evenodd" d="M119.387 56.2941L134.196 66.3C135.085 66.8834 135.045 67.636 134.091 68.1847L132.502 69.1036L137.688 72.4615C138.872 73.219 138.795 74.5243 137.525 75.2672C136.252 76.0152 134.11 76.0104 132.926 75.252L127.74 71.8901L124.56 73.7781L129.746 77.1427C130.93 77.9017 130.855 79.2258 129.585 79.9906C128.312 80.7606 126.17 80.7736 124.986 80.0137L119.8 76.6451L118.211 77.6133C117.256 78.1977 116.026 78.1974 115.137 77.6112L100.328 67.5593L119.387 56.2941ZM127.959 54.2464L138.329 61.2418C139.516 62.0254 139.439 63.3266 138.168 64.0422C136.898 64.7604 134.753 64.7113 133.566 63.9268L123.197 56.9233C122.018 56.1098 122.089 54.761 123.359 54.0458C124.63 53.3333 126.78 53.4338 127.959 54.2464ZM100.958 70.0761L111.327 77.1172C112.514 77.906 112.438 79.2769 111.166 80.0669C109.896 80.8597 107.753 80.8704 106.565 80.0815L96.1954 73.0324C95.0161 72.2137 95.0873 70.7951 96.3574 70.0054C97.6288 69.2184 99.7785 69.2584 100.958 70.0761ZM104.823 49.8351C104.843 49.437 105.317 49.165 105.933 49.1983C106.547 49.2307 106.989 49.5498 106.968 49.9455L106.826 52.513C107.906 52.4272 109.014 52.4411 110.116 52.5534C112.759 52.8209 115.363 53.6365 117.429 54.9457L117.494 54.9859C117.635 55.0775 117.772 55.168 117.905 55.2609L98.8432 66.5231C98.7102 66.4299 98.5813 66.3341 98.4539 66.234L98.3958 66.1896C96.5514 64.7436 95.5476 62.9782 95.4145 61.226C95.3599 60.4946 95.4576 59.7682 95.7064 59.0698L91.7214 58.931C91.1072 58.9092 90.6651 58.5889 90.6865 58.1812C90.7081 57.7718 91.1794 57.4868 91.795 57.5111L95.9074 57.6621L96.1017 57.6677C96.7733 56.4884 97.895 55.4333 99.4696 54.4974L99.5171 54.4694C101.099 53.5447 102.813 52.9287 104.666 52.6187L104.673 52.4948L104.823 49.8351ZM107.459 56.5545C108.074 56.9891 109.103 57.0289 109.76 56.6459C110.419 56.2631 110.454 55.6048 109.839 55.1704C109.226 54.736 108.199 54.6912 107.54 55.0738C106.882 55.4565 106.846 56.1199 107.459 56.5545ZM99.5116 61.266C100.126 61.7014 101.156 61.7318 101.812 61.3383C102.47 60.945 102.509 60.2744 101.894 59.8392C101.281 59.404 100.249 59.3702 99.5919 59.7633C98.9358 60.1566 98.8985 60.8306 99.5116 61.266Z" fill="white" fill-opacity="0.8"/>
</svg>
