<svg width="50" height="50" viewBox="0 0 50 50" fill="none" xmlns="http://www.w3.org/2000/svg">
  <path fill-rule="evenodd" clip-rule="evenodd" d="M25 0C38.807 0 50 11.193 50 24.9998C50 38.807 38.807 50 25 50C11.1927 50 0 38.807 0 24.9998C0 11.193 11.1927 0 25 0Z" fill="#F8D852"/>
  <path fill-rule="evenodd" clip-rule="evenodd" d="M28.6843 28.7375C28.6793 28.7505 28.6733 28.7635 28.6683 28.7765C28.2593 29.7445 26.9573 30.1925 26.0003 30.3235C24.9053 30.4735 23.7703 30.3925 22.6673 30.3925V25.5055C22.6673 25.4375 25.7293 25.5495 25.9873 25.5775C26.6413 25.6485 27.3163 25.7705 27.8553 26.1485C28.6123 26.6815 29.0293 27.8565 28.6843 28.7375ZM22.6673 18.9545H23.2223C24.0923 18.9545 25.0083 18.8715 25.8623 19.0875C26.5863 19.2695 27.2833 19.7065 27.5953 20.3845C27.8793 21.0015 27.7933 21.7725 27.3813 22.3125C26.9583 22.8655 26.2593 23.1435 25.5713 23.2525C24.7623 23.3795 23.9053 23.3885 23.0873 23.3885H22.6503V18.9545H22.6673ZM32.5593 25.3875C32.0053 24.7155 31.2333 24.1615 30.1073 23.9435C31.5523 23.2715 32.1063 21.9445 31.9893 20.2815C31.9893 19.6095 31.7703 19.0555 31.4343 18.6185C31.0993 18.1825 30.7633 17.8465 30.2083 17.5105C29.6543 17.1745 29.2013 16.9565 28.5453 16.8385C27.9913 16.7205 27.3193 16.6205 26.5473 16.5025V12.9595H24.3303V16.5195H22.5503V12.9595H20.3333V16.6205H19.0063H15.9993V18.9545H17.5613C18.2333 18.9545 18.6703 19.2905 18.7883 19.9625V24.0775H19.0063H18.7883V29.8545C18.6703 30.2915 18.4523 30.6275 18.0153 30.6275H16.4533L16.0173 33.2975H18.9053H19.6783H20.4503V36.9595H22.6673V33.2975H24.4483V36.8585H26.6643V33.1635C27.4373 33.1635 28.1093 33.0455 28.7813 32.9455C29.4533 32.8275 30.0073 32.7265 30.5613 32.3905C31.1153 32.0545 31.5693 31.8365 31.8883 31.5005C32.2243 31.1645 32.5593 30.7285 32.7783 30.2745C32.9963 29.7205 33.2143 29.1665 33.2143 28.4945C33.3323 27.1675 33.1143 26.0595 32.5593 25.3875Z" fill="white"/>
</svg>
