<svg width="76" height="76" viewBox="0 0 76 76" xmlns="http://www.w3.org/2000/svg">
  <circle cx="38" cy="38" r="38" fill="#17BEBA"/>
  <path fill-rule="evenodd" clip-rule="evenodd" d="M51.1048 24.3804L51.0685 24.3509C51.0651 24.3474 51.0599 24.344 51.0565 24.3405C49.9596 23.46 48.5726 23.0311 46.759 23.3107C43.5135 23.8126 43.472 25.9052 43.472 25.9052C43.472 25.9052 43.4426 26.0598 42.4322 27.0358C41.4183 28.0118 41.0158 29.7137 41.0158 29.7137C41.0158 29.7137 42.598 29.5956 44.2631 29.5053C45.9265 29.4115 46.6433 30.4674 46.9265 30.9276C47.2098 31.3878 46.9265 32.6851 46.9265 32.6851C47.0388 32.6174 47.1701 32.5879 47.2996 32.6C47.4585 32.6434 47.2996 32.9769 47.0509 33.3954C46.8022 33.8139 46.6985 34.1665 45.7606 34.9028C45.2545 35.3057 44.7744 35.7399 44.3218 36.2018C43.8468 36.5908 43.4081 37.025 43.0143 37.4974C43.0143 37.4974 44.5947 37.2039 44.0126 38.166C43.4305 39.1298 39.7549 40.599 36.7702 37.5807C33.2137 33.9841 32.5004 30.3076 32.6092 26.1987C32.7646 20.3149 36.1052 19.0003 36.1052 19.0003C36.1052 19.0003 34.8391 18.943 33.1084 20.4244C32.3933 21.0339 29.792 23.8803 31.0581 30.905C30.533 30.4101 29.9906 29.7241 29.5295 27.8729C28.2685 22.8227 29.8507 20.2976 29.8507 20.2976C29.8507 20.2976 26.0352 24.1443 27.4895 28.7516C28.0578 30.4882 28.8109 32.1572 29.7367 33.7306C29.7367 33.7306 26.7088 30.8894 26.0335 28.4164C25.3805 26.0303 25.6293 23.4044 25.6293 23.4044C25.6293 23.4044 21.5028 29.1805 25.4911 35.0279C26.4739 36.4571 27.6035 37.7752 28.8645 38.9614C28.4845 38.7738 26.3254 37.9958 23.9935 35.363C21.6652 32.732 21.3301 28.6682 21.3301 28.6682C21.3301 28.6682 19.6771 33.9077 21.4545 36.702C23.4339 39.8123 27.4515 42.136 27.8695 42.3722C27.4895 42.1603 24.1559 40.3316 22.1626 40.3003C20.0467 40.2673 19 36.8687 19 36.8687C19 36.8687 19.2988 41.3493 21.5805 44.1505C23.8605 46.9534 25.5015 47.926 27.3652 47.7506C29.2272 47.5734 31.198 48.407 31.198 48.407C31.198 48.407 28.804 48.0128 27.1942 48.3983C25.6845 48.7578 22.6065 48.0024 22.2283 47.9051C21.9329 47.7905 21.6462 47.6707 21.3681 47.5422C26.7485 56.6943 38.4905 59.7283 47.595 54.3186C53.4228 50.8557 56.9983 44.5551 57 37.7475C56.9983 32.1415 54.7615 27.3605 51.1048 24.3804Z" fill="white"/>
</svg>
