<svg width="94" height="94" viewBox="0 0 94 94" xmlns="http://www.w3.org/2000/svg">
  <circle cx="47" cy="47" r="47" fill="#FCCB3C"/>
  <g clip-path="url(#clip0)">
    <path d="M74.4 47.8999C74.4 46.2999 74.4 44.7999 74.1 43.1999C71.6 25.6999 53 15.1999 36.8 22.1999C24 27.5999 17.6 40.6999 20.8 55.1999C24 69.4999 38.6 78.3999 52.9 75.3999C64.3 72.9999 74.8 62.3999 74.4 47.8999ZM50.3 70.9999C37.3 72.4999 26.1 63.7999 25 50.6999C23.8 37.7999 31.1 27.8999 43 25.2999C55.1 22.5999 67.9 31.5999 69.5 43.9999C69.7 45.2999 69.6 46.5999 69.7 47.8999C70.2 59.1999 61.5 69.5999 50.3 70.9999Z" fill="white"/>
    <path d="M61.0999 34.9C61.0999 43.7 60.9999 52.6 61.0999 61.4C61.0999 62.7 60.8 63.3999 59.4 63.0999C58 62.7999 58.0999 63.8 58.0999 64.7C58.0999 65.5 58.6 66.5 57 66.5C55.9 66.5 55.5 66.0999 55.7 65.0999C56 63.5999 55.4999 62.7999 53.7999 63.0999C52.8999 63.2999 52.7 62.8 52.7 61.9C52.7 53.2 52.7 44.6 52.7 35.9C52.7 34.7 53.2 34.5 54.2 34.6C55.2 34.7 56 34.6 55.7 33.2C55.6 32.5 55.9999 32.4 56.5999 32.5C57.0999 32.6 58.1999 32.1 58.0999 33C57.8999 35.3 59.4 34.5 60.5 34.5C60.9 34.4 60.9999 34.7 61.0999 34.9Z" fill="white"/>
    <path d="M41.5999 49.0999C41.5999 53.2999 41.5999 57.4999 41.5999 61.6999C41.5999 62.7999 41.3999 63.3999 40.1999 63.1999C39.2999 62.9999 38.5999 63.0999 38.6999 64.3999C38.7999 65.3999 37.8999 64.9999 37.3999 64.9999C36.8999 64.9999 36.0999 65.2999 36.1999 64.2999C36.3999 62.9999 35.5999 62.9999 34.7999 63.1999C33.4999 63.3999 33.2999 62.7999 33.2999 61.5999C33.2999 53.0999 33.2999 44.6999 33.2999 36.1999C33.2999 34.9999 33.5999 34.3999 34.7999 34.6999C36.0999 34.9999 36.1999 34.2999 36.1999 33.1999C36.1999 32.4999 35.3999 31.2999 36.8999 31.0999C38.0999 30.8999 38.9999 31.0999 38.6999 32.6999C38.3999 34.1999 38.8999 35.0999 40.5999 34.6999C41.6999 34.4999 41.5999 35.2999 41.5999 35.9999C41.5999 40.2999 41.5999 44.6999 41.5999 49.0999Z" fill="white"/>
    <path d="M47.9 49.1C47.9 47.9001 47.9 46.8 47.9 45.6C47.9 45.0001 47.7 44.4 48.7 44.3C49.5 44.2 48.9 43.2001 49.1 42.7001C49.3 42.2001 48.7 41.3 49.6 41.3C50.5 41.3 50.1 42.2 50.1 42.6C50.2 43.4 49.7 44.4 51.2 44.5C51.5 44.5 51.4 45.2 51.4 45.5C51.4 47.5 51.5 49.5 51.4 51.5C51.4 52.3 52.2 53.7001 50.4 53.9001C50.1 53.9001 50.3 54.6001 50.3 54.9001C50.3 55.3001 50.2 55.7 49.7 55.6C49.3 55.6 49.3 55.2001 49.3 54.9001C49.3 54.3001 49.4 53.7001 48.4 53.7001C47.9 53.7001 48.1 53.1 48.1 52.8C47.8 51.6 47.9 50.3 47.9 49.1Z" fill="white"/>
    <path d="M43.1999 49.9C43.1999 48.9 43.1999 47.9 43.1999 46.9C43.1999 46.1999 42.6999 45.1 44.1999 45C44.4999 45 44.3999 44.5999 44.3999 44.2999C44.3999 43.9999 44.3999 43.7 44.8999 43.7C45.3999 43.7 45.3999 43.9999 45.3999 44.2999C45.3999 44.4999 45.3999 44.9 45.4999 44.9C47.5999 45.1999 46.4999 46.7999 46.5999 47.7999C46.7999 49.4999 46.6999 51.3 46.5999 53C46.5999 53.7 46.9999 54.6 45.5999 54.7C44.9999 54.8 45.3999 55.7 45.2999 56.2C45.1999 56.6 45.4999 57.1 44.7999 57.2C44.0999 57.2 44.2999 56.6999 44.2999 56.2999C44.2999 55.4999 44.5999 54.6 43.2999 54.5C42.8999 54.4 43.0999 53.9 43.0999 53.5C43.1999 52.3 43.1999 51.0999 43.1999 49.9Z" fill="white"/>
  </g>
  <defs>
    <clipPath id="clip0">
      <rect width="54.4" height="56" fill="white" transform="translate(20 20)"/>
    </clipPath>
  </defs>
</svg>
