<svg width="94" height="94" viewBox="0 0 94 94" xmlns="http://www.w3.org/2000/svg">
  <circle cx="47" cy="47" r="47" fill="#3ABD78"/>
  <path fill-rule="evenodd" clip-rule="evenodd" d="M65.9539 27.1548C65.9539 27.3833 65.9129 27.6534 65.8477 28.0041C65.8155 28.1352 65.7745 28.3797 65.7496 28.5357C65.5212 29.9157 64.5489 32.1378 63.6184 33.4366C63.0297 34.253 61.9352 35.4127 61.2653 35.9354C61.0449 36.1075 60.8406 36.2788 60.8165 36.3037C60.7264 36.393 59.3705 37.2672 59.0359 37.4385C58.8477 37.5366 58.6764 37.6508 58.6515 37.6838C58.6274 37.716 58.5944 38.3456 58.5783 39.0807C58.5615 39.815 58.5212 40.5508 58.4882 40.7061C58.3821 41.2779 58.0387 42.707 57.9655 42.8703C57.9245 42.9603 57.7781 43.3279 57.639 43.6873C56.6747 46.162 54.6738 48.5883 52.3214 50.1156C50.7861 51.112 48.5069 51.9862 46.9138 52.1985C46.6034 52.2395 46.5221 52.2798 46.4482 52.4599C44.7086 56.9765 43.4098 59.1414 41.1387 61.3064C39.8816 62.5071 37.6346 64.0504 36.3936 64.5571C36.2794 64.5981 36.1323 64.6713 36.0664 64.7203C35.8789 64.8426 34.8576 65.2922 34.2697 65.5125L33.7389 65.7087L35.0868 65.6597C35.8299 65.6267 36.565 65.5945 36.7202 65.5777C36.8754 65.5696 37.341 65.5294 37.7408 65.5045C38.1493 65.4715 38.5908 65.4393 38.7211 65.4232C38.8602 65.4064 39.2278 65.3654 39.5382 65.3412C39.8567 65.3083 40.1671 65.268 40.2323 65.2512C40.2982 65.235 40.6079 65.2021 40.9102 65.1692C41.2126 65.145 41.5311 65.104 41.6211 65.0879C41.7024 65.0718 41.9477 65.0308 42.1681 65.0059C42.5363 64.9495 44.1697 64.6793 44.5212 64.6061C45.6069 64.3858 46.4079 64.2057 46.4482 64.1815C46.4811 64.1647 46.6283 64.1324 46.7835 64.1075C46.9467 64.0834 47.6577 63.8952 48.3678 63.691C49.92 63.2502 49.8058 63.2824 49.9529 63.2253C50.0181 63.2011 50.4998 63.0298 51.0145 62.8497C51.5292 62.6703 52.101 62.458 52.2804 62.3841C52.4605 62.3028 52.6479 62.2289 52.6889 62.2208C52.8852 62.1798 53.5953 61.8284 53.6363 61.764C53.6693 61.7142 53.6605 61.567 53.6202 61.4206C53.5382 61.1102 53.3018 59.9497 53.2446 59.6151C53.2278 59.476 53.1787 59.2395 53.1385 59.0843C53.0975 58.9291 53.0404 58.6516 53.0155 58.4715C52.9833 58.2921 52.9503 58.0879 52.9342 58.0227C52.8361 57.6954 52.4034 55.5393 52.4276 55.5232C52.4437 55.4983 53.7996 57.0826 54.9352 58.4554C55.0494 58.5938 55.3598 58.9613 55.6292 59.2805C55.8994 59.599 56.201 59.9665 56.2991 60.0969L56.4792 60.326L56.9529 60.0559C57.2136 59.9094 57.4676 59.7542 57.5079 59.7213C57.557 59.6803 57.9413 59.4109 58.366 59.1173C60.0323 57.9568 61.8049 56.2905 63.0136 54.7552C63.3812 54.2815 63.7406 53.8327 63.8058 53.7507C63.871 53.6767 63.92 53.5954 63.92 53.5786C63.92 53.5625 64.1082 53.277 64.3286 52.9336C64.5489 52.5909 64.7371 52.2798 64.7371 52.2476C64.7371 52.1824 64.3205 51.6758 63.4705 50.7115C63.0378 50.2217 62.8423 50.0013 62.515 49.6089C62.4169 49.4947 62.1153 49.144 61.8459 48.8328C61.5764 48.5144 61.3063 48.2039 61.2492 48.1307C61.1759 48.0495 61.7558 48.1798 63.0868 48.5634C64.1492 48.8746 65.0805 49.144 65.1537 49.1601C65.2188 49.1762 65.4641 49.2414 65.6925 49.3065L66.1091 49.4295L66.2314 49.1352C66.5828 48.3108 67.1385 46.4483 67.3508 45.4028C67.3918 45.1736 67.4409 44.921 67.4651 44.831C67.498 44.6508 67.5793 44.153 67.6364 43.7686C67.6532 43.6302 67.6854 43.4099 67.7103 43.2788C67.7425 43.0423 67.8245 42.2494 67.8904 41.5231C67.9226 41.0494 67.9226 37.6757 67.8904 37.1932C67.8655 36.9897 67.8326 36.5321 67.7996 36.1726C67.7425 35.4537 67.7264 35.2494 67.6364 34.5795C67.5632 33.9996 67.5471 33.8613 67.4812 33.5179C67.457 33.3627 67.416 33.0852 67.3918 32.9051C67.2286 31.6641 66.1743 27.1709 66.011 27.0077C65.9869 26.9747 65.962 27.0487 65.9539 27.1548Z" fill="white"/>
  <path fill-rule="evenodd" clip-rule="evenodd" d="M28.9277 27.4489C28.9197 27.457 28.6253 27.4731 28.2827 27.4811C27.9313 27.4899 27.6289 27.5302 27.604 27.5631C27.5798 27.6041 27.6128 27.6363 27.6779 27.6363C27.9884 27.6363 30.2265 28.6906 31.3452 29.3686C32.4486 30.0385 33.322 30.7077 34.1881 31.5577C35.0945 32.456 35.2088 32.5944 35.8055 33.4766C36.8261 35.0046 37.3898 36.671 37.496 38.5328C37.5128 38.7942 37.537 39.0146 37.5531 39.0234C37.5699 39.0395 37.9455 39.2437 38.3943 39.4809C39.2443 39.9298 40.8367 40.9504 41.2453 41.3186C41.3756 41.4328 41.5147 41.5229 41.5477 41.5229C41.6619 41.5229 43.6306 43.5238 44.0142 44.0298C45.4441 45.9084 46.2443 47.9672 46.4728 50.3035C46.4889 50.5239 46.5138 50.7201 46.5138 50.7362C46.5299 50.7852 47.1756 50.663 47.7796 50.5078C49.2747 50.1153 51.3979 49.0369 52.5825 48.0734C54.5835 46.44 55.8252 44.6916 56.5361 42.5032C56.9197 41.2937 57.0837 40.2563 57.0918 38.9172L57.0998 38.1492L56.8714 38.125C56.7403 38.1162 56.3889 38.084 56.0946 38.0591C55.2863 37.9859 54.1017 37.8307 53.5057 37.7158C53.4157 37.6996 53.2363 37.6586 53.0972 37.6345C52.9662 37.6096 52.6887 37.5525 52.4844 37.5122C52.2801 37.4632 52.0517 37.4141 51.9778 37.3973C51.3005 37.2589 49.397 36.6541 48.768 36.3767C48.5887 36.2954 48.2043 36.1314 47.9107 36.0011C46.1133 35.2169 44.7654 34.3669 41.2863 31.7942C40.404 31.1492 39.6199 30.5693 39.5299 30.5122C36.2052 28.3311 33.6163 27.5221 29.7521 27.4489C29.3113 27.4409 28.9358 27.4409 28.9277 27.4489Z" fill="white"/>
  <path fill-rule="evenodd" clip-rule="evenodd" d="M44.2513 30.896L43.4181 32.1128L43.7285 32.3581C44.4065 32.897 45.8927 33.8041 46.9961 34.351C48.3601 35.037 48.1309 35.111 49.0951 33.6979L49.724 32.7747L49.4956 32.4723C49.2664 32.1538 48.3271 31.2145 47.9845 30.9612C47.2897 30.4304 45.6643 29.6873 45.2067 29.6785C45.1335 29.6785 44.733 30.1939 44.2513 30.896Z" fill="white"/>
  <path fill-rule="evenodd" clip-rule="evenodd" d="M34.4738 45.2557C32.6764 47.8944 30.7655 50.7036 30.2347 51.4877C29.6959 52.2718 28.7558 53.6607 28.1276 54.5752L27.0001 56.2335V61.1425C27.0001 64.5894 27.0243 66.0354 27.0902 65.9702C27.1714 65.8882 28.266 64.2958 30.0546 61.6572C31.002 60.2522 32.1786 58.5287 37.8146 50.2548L42.217 43.7856L41.613 43.1889C41.2776 42.8623 40.7556 42.3967 40.4364 42.1595C40.126 41.923 39.8485 41.7019 39.8243 41.6777C39.7343 41.5796 38.0591 40.559 37.9047 40.51C37.7575 40.469 37.3248 41.0569 34.4738 45.2557Z" fill="white"/>
</svg>
