<svg width="18" height="14" viewBox="0 0 18 14" fill="currentColor" xmlns="http://www.w3.org/2000/svg">
  <path fill-rule="evenodd" clip-rule="evenodd" d="M11.659 9C10.868 9 10.227 8.267 10.227 7.364C10.227 6.46 10.868 5.727 11.659 5.727C12.45 5.727 13.091 6.46 13.091 7.364C13.091 8.267 12.45 9 11.659 9ZM6.341 9C5.55 9 4.909 8.267 4.909 7.364C4.909 6.46 5.55 5.727 6.341 5.727C7.132 5.727 7.773 6.46 7.773 7.364C7.773 8.267 7.132 9 6.341 9ZM15.545 1.636C15.545 1.636 13.67 0.168 11.454 0L11.255 0.399C13.258 0.889 14.177 1.592 15.137 2.455C13.482 1.61 11.847 0.818 9 0.818C6.152 0.818 4.518 1.61 2.864 2.455C3.823 1.592 4.916 0.812 6.745 0.399L6.545 0C4.222 0.22 2.454 1.636 2.454 1.636C2.454 1.636 0.36 4.674 0 10.636C2.112 13.072 5.318 13.091 5.318 13.091L5.989 12.197C4.85 11.801 3.565 11.095 2.454 9.818C3.779 10.82 5.778 11.864 9 11.864C12.221 11.864 14.221 10.82 15.545 9.818C14.435 11.095 13.149 11.801 12.011 12.197L12.682 13.091C12.682 13.091 15.888 13.072 18 10.636C17.64 4.674 15.545 1.636 15.545 1.636Z" />
</svg>
