<svg width="28" height="28" viewBox="0 0 28 28" fill="currentColor" xmlns="http://www.w3.org/2000/svg">
  <path fill-rule="evenodd" clip-rule="evenodd" d="M26.7749 -0.000244141H1.22491C0.524908 -0.000244141 -9.15527e-05 0.524756 -9.15527e-05 1.22476V26.9498C-9.15527e-05 27.4748 0.524908 27.9998 1.22491 27.9998H13.9999V19.2498H10.4999V13.9998H13.9999V10.4998C13.9999 6.82476 16.0999 5.24976 19.2499 5.24976H22.7499V10.4998H20.9999C19.9499 10.4998 19.2499 11.1998 19.2499 12.2498V13.9998H23.7999L22.7499 19.2498H19.2499V27.9998H26.7749C27.4749 27.9998 27.9999 27.4748 27.9999 26.7748V1.22476C27.9999 0.524756 27.4749 -0.000244141 26.7749 -0.000244141Z" />
</svg>
