<svg width="28" height="28" viewBox="0 0 28 28" fill="currentColor" xmlns="http://www.w3.org/2000/svg">
  <path fill-rule="evenodd" clip-rule="evenodd" d="M17.5002 16.6418C17.5002 18.0788 18.6712 19.2498 20.1082 19.2498C21.5722 19.2498 22.7432 18.0728 22.7502 16.6418C22.7502 15.1708 21.5722 13.9998 20.1082 13.9998C18.6712 13.9998 17.5002 15.1778 17.5002 16.6418ZM19.0772 24.0598C16.9712 26.9798 11.0292 26.9798 8.9232 24.0598C8.6922 23.7788 8.6922 23.2818 8.9232 22.9608C9.1262 22.6798 9.4842 22.6798 9.6872 22.9608C11.2952 25.2468 16.6302 25.2878 18.3082 22.9608C18.5102 22.6798 18.8692 22.6798 19.0712 22.9608C19.3092 23.2818 19.3092 23.7788 19.0772 24.0598ZM9.6422 13.9998C8.1712 13.9998 7.0002 15.1778 7.0002 16.6418C7.0002 18.0788 8.1782 19.2568 9.6422 19.2498C11.0792 19.2498 12.2502 18.0788 12.2502 16.6418C12.2502 15.1708 11.0792 13.9998 9.6422 13.9998ZM22.6412 11.7168C23.2132 11.1098 23.9922 10.7228 24.8772 10.7228C28.1412 10.7228 29.2272 15.3528 26.2822 16.9528C26.4122 17.4468 26.4652 17.9958 26.4652 18.5208C26.4652 23.7578 20.8942 27.9998 14.0242 27.9998C7.1852 27.9998 1.6142 23.7578 1.6142 18.5208C1.6142 17.9958 1.6612 17.4718 1.7672 16.9778C-1.2368 15.3838 -0.162798 10.7228 3.1192 10.7228C4.0042 10.7228 4.8122 11.1098 5.3852 11.7418C7.4982 10.1978 10.3072 9.20476 13.4292 9.06676L15.2232 0.468756C15.2992 0.162756 15.5832 -0.0562441 15.8722 0.0247559L21.6202 1.37476C22.0092 0.580756 22.7942 -0.000244141 23.7032 -0.000244141C25.0072 -0.000244141 26.0462 1.13076 26.0462 2.48076C26.0462 3.83076 25.0012 4.96176 23.7032 4.96176C22.4282 4.96176 21.3902 3.86176 21.3902 2.51176L16.1852 1.27476L14.5502 9.07276C17.6952 9.17976 20.5342 10.1728 22.6412 11.7168Z" />
</svg>
