<svg width="18" height="15" viewBox="0 0 18 15" fill="currentColor" xmlns="http://www.w3.org/2000/svg">
  <path fill-rule="evenodd" clip-rule="evenodd" d="M18 1.744C17.327 2.025 16.654 2.25 15.869 2.306C16.642 1.855 17.221 1.134 17.495 0.282C16.766 0.732 15.981 1.013 15.14 1.182C14.464 0.438 13.509 0.01 12.504 0C10.459 0.002 8.802 1.661 8.803 3.706V3.713C8.803 3.994 8.859 4.275 8.916 4.557C5.832 4.388 3.14 2.925 1.289 0.675C0.953 1.238 0.785 1.857 0.785 2.532C0.785 3.826 1.458 4.951 2.411 5.625C1.794 5.625 1.234 5.456 0.729 5.175V5.232C0.729 7.032 2.018 8.494 3.701 8.831C3.364 8.888 3.083 8.944 2.747 8.944C2.523 8.944 2.299 8.944 2.074 8.888C2.523 10.35 3.925 11.419 5.494 11.475C4.261 12.488 2.636 13.05 0.897 13.05C0.616 13.05 0.28 13.05 0 12.994C1.682 14.007 3.645 14.625 5.719 14.625C12.504 14.625 16.206 9 16.206 4.107V3.657C16.878 3.094 17.495 2.475 18 1.744Z" />
</svg>
