<?xml version="1.0" encoding="UTF-8"?>
<svg version="1.1" xmlns="http://www.w3.org/2000/svg" xmlns:xlink="http://www.w3.org/1999/xlink">
<defs>

</defs>
<symbol id="i-discord" viewBox="0 0 18 14" fill="currentColor" xmlns="http://www.w3.org/2000/svg"><path fill-rule="evenodd" clip-rule="evenodd" d="M11.659 9c-.791 0-1.432-.733-1.432-1.636 0-.904.641-1.637 1.432-1.637.791 0 1.432.733 1.432 1.637 0 .903-.641 1.636-1.432 1.636zM6.341 9c-.791 0-1.432-.733-1.432-1.636 0-.904.641-1.637 1.432-1.637.791 0 1.432.733 1.432 1.637C7.773 8.267 7.132 9 6.341 9zm9.204-7.364S13.67.168 11.454 0l-.199.399c2.003.49 2.922 1.193 3.882 2.056C13.482 1.61 11.847.818 9 .818c-2.848 0-4.482.792-6.136 1.637C3.823 1.592 4.916.812 6.745.399L6.545 0C4.222.22 2.454 1.636 2.454 1.636S.36 4.674 0 10.636c2.112 2.436 5.318 2.455 5.318 2.455l.671-.894a8.193 8.193 0 01-3.535-2.379C3.779 10.82 5.778 11.864 9 11.864c3.221 0 5.221-1.044 6.545-2.046a8.19 8.19 0 01-3.534 2.379l.671.894s3.206-.019 5.318-2.455c-.36-5.962-2.455-9-2.455-9z"/></symbol>
<symbol id="i-facebook" viewBox="0 0 28 28" fill="currentColor" xmlns="http://www.w3.org/2000/svg"><path fill-rule="evenodd" clip-rule="evenodd" d="M26.775 0H1.225C.525 0 0 .525 0 1.225V26.95C0 27.475.525 28 1.225 28H14v-8.75h-3.5V14H14v-3.5c0-3.675 2.1-5.25 5.25-5.25h3.5v5.25H21c-1.05 0-1.75.7-1.75 1.75V14h4.55l-1.05 5.25h-3.5V28h7.525c.7 0 1.225-.525 1.225-1.225V1.225C28 .525 27.475 0 26.775 0z"/></symbol>
<symbol id="i-github" viewBox="0 0 33 32" fill="currentColor" xmlns="http://www.w3.org/2000/svg"><path fill-rule="evenodd" clip-rule="evenodd" d="M16.289 0C7.294 0 0 7.293 0 16.291c0 7.196 4.667 13.301 11.141 15.456.815.149 1.112-.354 1.112-.786 0-.386-.014-1.411-.022-2.77-4.531.984-5.487-2.184-5.487-2.184-.741-1.882-1.809-2.382-1.809-2.382-1.479-1.011.112-.991.112-.991 1.635.116 2.495 1.679 2.495 1.679 1.453 2.489 3.812 1.77 4.741 1.354.148-1.053.568-1.771 1.034-2.178-3.617-.411-7.42-1.809-7.42-8.051 0-1.778.635-3.232 1.677-4.371-.168-.412-.727-2.068.159-4.311 0 0 1.368-.438 4.48 1.67a15.602 15.602 0 014.078-.549c1.383.007 2.777.187 4.078.549 3.11-2.108 4.475-1.67 4.475-1.67.889 2.243.33 3.899.162 4.311 1.044 1.139 1.675 2.593 1.675 4.371 0 6.258-3.809 7.635-7.438 8.038.585.503 1.106 1.497 1.106 3.017 0 2.177-.02 3.934-.02 4.468 0 .436.293.943 1.12.784 6.467-2.159 11.131-8.26 11.131-15.454C32.58 7.293 25.286 0 16.289 0z"/></symbol>
<symbol id="i-redit" viewBox="0 0 28 28" fill="currentColor" xmlns="http://www.w3.org/2000/svg"><path fill-rule="evenodd" clip-rule="evenodd" d="M17.5 16.642a2.612 2.612 0 002.608 2.608 2.633 2.633 0 002.642-2.608A2.631 2.631 0 0020.108 14c-1.437 0-2.608 1.178-2.608 2.642zm1.577 7.418c-2.106 2.92-8.048 2.92-10.154 0-.23-.281-.23-.778 0-1.1.203-.28.561-.28.764 0 1.608 2.287 6.943 2.328 8.621 0 .202-.28.561-.28.763 0 .238.322.238.819.006 1.1zM9.642 14A2.631 2.631 0 007 16.642a2.62 2.62 0 002.642 2.608 2.612 2.612 0 002.608-2.608C12.25 15.17 11.08 14 9.642 14zm13-2.283c.571-.607 1.35-.994 2.235-.994 3.264 0 4.35 4.63 1.405 6.23.13.494.183 1.043.183 1.568 0 5.237-5.57 9.479-12.44 9.479-6.84 0-12.41-4.242-12.41-9.48 0-.524.046-1.048.152-1.542-3.004-1.594-1.93-6.255 1.352-6.255.885 0 1.693.387 2.266 1.019 2.113-1.544 4.922-2.537 8.044-2.675L15.223.469c.076-.306.36-.525.65-.444l5.747 1.35C22.01.58 22.794 0 23.703 0c1.304 0 2.343 1.13 2.343 2.48s-1.045 2.482-2.343 2.482c-1.275 0-2.313-1.1-2.313-2.45l-5.205-1.237-1.635 7.798c3.145.107 5.984 1.1 8.091 2.644z"/></symbol>
<symbol id="i-telegram" viewBox="0 0 28 24" fill="currentColor" xmlns="http://www.w3.org/2000/svg"><path fill-rule="evenodd" clip-rule="evenodd" d="M26.135.117L1.303 9.691c-1.7.666-1.67 1.608-.29 2.046l6.356 1.983 14.746-9.285c.685-.455 1.32-.197.801.26l-11.933 10.78-.457 6.553c.665 0 .955-.29 1.298-.634l3.106-2.99 6.438 4.744c1.174.665 2.014.322 2.327-1.09L27.923 2.14l-.002.002c.373-1.743-.633-2.44-1.786-2.024z"/></symbol>
<symbol id="i-twitter" viewBox="0 0 18 15" fill="currentColor" xmlns="http://www.w3.org/2000/svg"><path fill-rule="evenodd" clip-rule="evenodd" d="M18 1.744c-.673.281-1.346.506-2.131.562A3.63 3.63 0 0017.495.282c-.729.45-1.514.731-2.355.9A3.61 3.61 0 0012.504 0a3.705 3.705 0 00-3.701 3.706v.007c0 .281.056.562.113.844C5.832 4.388 3.14 2.925 1.289.675a3.556 3.556 0 00-.504 1.857c0 1.294.673 2.419 1.626 3.093a3.42 3.42 0 01-1.682-.45v.057c0 1.8 1.289 3.262 2.972 3.599-.337.057-.618.113-.954.113-.224 0-.448 0-.673-.056.449 1.462 1.851 2.531 3.42 2.587C4.261 12.488 2.636 13.05.897 13.05c-.281 0-.617 0-.897-.056 1.682 1.013 3.645 1.631 5.719 1.631 6.785 0 10.487-5.625 10.487-10.518v-.45c.672-.563 1.289-1.182 1.794-1.913z"/></symbol>
</svg>