<?xml version="1.0" encoding="UTF-8"?>
<svg version="1.1" xmlns="http://www.w3.org/2000/svg" xmlns:xlink="http://www.w3.org/1999/xlink">
<defs>

</defs>
<symbol id="i-arrow-down" viewBox="0 0 12 6" fill="currentColor" xmlns="http://www.w3.org/2000/svg"><path fill-rule="evenodd" clip-rule="evenodd" d="M5.535 5.829L0 1.085.928 0 6 4.347 11.072 0 12 1.085 6.465 5.829a.72.72 0 01-.93 0z"/></symbol>
<symbol id="i-arrow-right" viewBox="0 0 14 14" fill="currentColor" xmlns="http://www.w3.org/2000/svg"><path clip-rule="evenodd" d="M13.9 7.4c.1-.2.1-.5 0-.8-.101-.1-.101-.2-.2-.3l-6-6c-.401-.4-1-.4-1.401 0-.399.4-.399 1 0 1.4l4.3 4.3H1c-.6 0-1 .4-1 1s.4 1 1 1h9.599l-4.3 4.3c-.399.4-.399 1 0 1.4.201.2.401.3.701.3.299 0 .5-.1.7-.3l6-6c.099-.1.2-.2.2-.3z"/></symbol>
<symbol id="i-close" viewBox="0 0 25 25" fill="currentColor" xmlns="http://www.w3.org/2000/svg"><path clip-rule="evenodd" d="M18.51 6.49a1 1 0 00-1.414 0L12.5 11.086 7.904 6.49A1 1 0 006.49 7.904l4.596 4.596-4.596 4.596a1 1 0 101.414 1.414l4.596-4.596 4.596 4.596a1 1 0 001.414-1.414L13.914 12.5l4.596-4.596a1 1 0 000-1.414z"/></symbol>
<symbol id="i-download" viewBox="0 0 16 16" fill="currentColor" xmlns="http://www.w3.org/2000/svg"><path fill-rule="evenodd" clip-rule="evenodd" d="M9.88 8.31L8.672 9.516V4.86a.673.673 0 10-1.346 0v4.656L6.12 8.31a.672.672 0 10-.951.95l2.355 2.356a.672.672 0 00.952 0l2.355-2.355a.672.672 0 10-.952-.951z"/><path fill-rule="evenodd" clip-rule="evenodd" d="M8 14.654A6.662 6.662 0 011.346 8 6.663 6.663 0 018 1.345 6.662 6.662 0 0114.654 8 6.661 6.661 0 018 14.654zM8 0C3.59 0 0 3.589 0 8s3.589 8 8 8 8-3.589 8-8-3.589-8-8-8z"/></symbol>
<symbol id="i-external" viewBox="0 0 12 12" fill="currentColor" xmlns="http://www.w3.org/2000/svg"><path fill-rule="evenodd" clip-rule="evenodd" d="M11.357 10.667H1.286v-10A.655.655 0 00.643 0 .655.655 0 000 .667v10C0 11.402.576 12 1.286 12h10.071a.655.655 0 00.643-.666.655.655 0 00-.643-.667z"/><path fill-rule="evenodd" clip-rule="evenodd" d="M6.14 6.805l4.524-4.525v3.109a.668.668 0 101.336 0V.668a.652.652 0 00-.012-.122L11.987.54a.773.773 0 00-.034-.116l-.005-.01a.688.688 0 00-.055-.106C11.89.304 11.889.3 11.888.298a.703.703 0 00-.083-.1l-.001-.002h-.001a.652.652 0 00-.102-.084l-.008-.005a.733.733 0 00-.107-.056l-.01-.004a.683.683 0 00-.115-.034h-.007a.645.645 0 00-.12-.013H6.611a.668.668 0 00-.001 1.336h3.11L5.194 5.861a.668.668 0 00.945.944z"/></symbol>
<symbol id="i-github" viewBox="0 0 33 32" fill="currentColor" xmlns="http://www.w3.org/2000/svg"><path fill-rule="evenodd" clip-rule="evenodd" d="M16.289 0C7.294 0 0 7.293 0 16.291c0 7.196 4.667 13.301 11.141 15.456.815.149 1.112-.354 1.112-.786 0-.386-.014-1.411-.022-2.77-4.531.984-5.487-2.184-5.487-2.184-.741-1.882-1.809-2.382-1.809-2.382-1.479-1.011.112-.991.112-.991 1.635.116 2.495 1.679 2.495 1.679 1.453 2.489 3.812 1.77 4.741 1.354.148-1.053.568-1.771 1.034-2.178-3.617-.411-7.42-1.809-7.42-8.051 0-1.778.635-3.232 1.677-4.371-.168-.412-.727-2.068.159-4.311 0 0 1.368-.438 4.48 1.67a15.602 15.602 0 014.078-.549c1.383.007 2.777.187 4.078.549 3.11-2.108 4.475-1.67 4.475-1.67.889 2.243.33 3.899.162 4.311 1.044 1.139 1.675 2.593 1.675 4.371 0 6.258-3.809 7.635-7.438 8.038.585.503 1.106 1.497 1.106 3.017 0 2.177-.02 3.934-.02 4.468 0 .436.293.943 1.12.784 6.467-2.159 11.131-8.26 11.131-15.454C32.58 7.293 25.286 0 16.289 0z"/></symbol>
<symbol id="i-language" viewBox="0 0 24 24" fill="currentColor" xmlns="http://www.w3.org/2000/svg"><path fill-rule="evenodd" clip-rule="evenodd" d="M15.231 21.623c.84-1.233 1.497-2.955 1.891-5.008h3.918a10.203 10.203 0 01-5.809 5.009zm-12.27-5.008h3.917c.394 2.053 1.05 3.775 1.89 5.009a10.203 10.203 0 01-5.808-5.009zM8.767 2.376c-.84 1.234-1.496 2.956-1.89 5.009H2.96a10.204 10.204 0 015.808-5.009zM21.04 7.385h-3.917c-.394-2.053-1.05-3.775-1.89-5.009a10.204 10.204 0 015.808 5.009zM17.393 9.23h4.374a10.124 10.124 0 010 5.538h-4.373A26.17 26.17 0 0017.538 12c0-.96-.052-1.886-.146-2.77zM12 2.144c.816 0 1.719.97 2.415 2.597.335.783.608 1.676.815 2.644H8.777C9.46 4.21 10.78 2.144 12 2.144zM1.846 12c0-.96.137-1.888.387-2.77h4.373A26.219 26.219 0 006.462 12c0 .961.05 1.886.144 2.77H2.233A10.12 10.12 0 011.846 12zm6.621 2.77a23.756 23.756 0 01.004-5.54h7.062a23.76 23.76 0 01-.004 5.54H8.467zM12 21.856c-.816 0-1.719-.971-2.415-2.598a14.435 14.435 0 01-.815-2.644h6.453C14.54 19.79 13.22 21.857 12 21.857zm11.342-5.946a11.945 11.945 0 00-.001-7.825.898.898 0 00-.052-.152C21.62 3.313 17.19 0 12 0 6.81 0 2.38 3.312.71 7.933a.92.92 0 00-.052.155 11.946 11.946 0 00.002 7.83.9.9 0 00.05.146C2.379 20.686 6.81 24 12 24c5.19 0 9.619-3.312 11.29-7.932a.924.924 0 00.052-.157z"/></symbol>
<symbol id="i-menu" viewBox="0 0 4 18" fill="currentColor" xmlns="http://www.w3.org/2000/svg"><circle cx="2" cy="16" r="2"/><circle cx="2" cy="9" r="2"/><circle cx="2" cy="2" r="2"/></symbol>
<symbol id="i-trend-down" viewBox="0 0 23 15" fill="#DF5A5A" xmlns="http://www.w3.org/2000/svg"><path fill-rule="evenodd" clip-rule="evenodd" d="M23 14.167a.844.844 0 01-.014.153l-.002.008a.846.846 0 01-.042.144l-.004.012a.83.83 0 01-.07.134l-.005.01a.85.85 0 01-.103.128h-.001a.835.835 0 01-.126.105l-.01.005a.807.807 0 01-.132.071l-.01.004a.789.789 0 01-.143.043l-.008.001c-.049.01-.1.015-.151.015h-6.572a.828.828 0 01-.821-.833c0-.46.368-.834.821-.834h4.588l-7.874-7.988-3.526 3.578a.813.813 0 01-1.162 0l-7.392-7.5a.842.842 0 010-1.179.813.813 0 011.161 0l6.812 6.91 3.527-3.577a.813.813 0 011.161 0l8.455 8.578V7.5c0-.46.368-.833.822-.833.453 0 .821.373.821.833V14.167z"/></symbol>
<symbol id="i-trend-up" viewBox="0 0 23 15" fill="#71BB05" xmlns="http://www.w3.org/2000/svg"><path fill-rule="evenodd" clip-rule="evenodd" d="M23 .833a.845.845 0 00-.014-.153l-.002-.008a.844.844 0 00-.042-.144l-.004-.012a.831.831 0 00-.07-.134l-.005-.01a.848.848 0 00-.103-.128h-.001a.837.837 0 00-.126-.105l-.01-.005a.81.81 0 00-.132-.071l-.01-.004a.793.793 0 00-.143-.043L22.33.015A.814.814 0 0022.18 0h-6.572a.828.828 0 00-.821.833c0 .46.368.834.821.834h4.588l-7.874 7.988-3.526-3.578a.813.813 0 00-1.162 0l-7.392 7.5a.842.842 0 000 1.179.813.813 0 001.161 0l6.812-6.91 3.527 3.577a.813.813 0 001.161 0l8.455-8.578V7.5c0 .46.368.833.822.833A.828.828 0 0023 7.5V.833z"/></symbol>
</svg>