<svg width="57" height="53" viewBox="0 0 57 53" xmlns="http://www.w3.org/2000/svg">
  <path fill-rule="evenodd" clip-rule="evenodd" d="M19.7072 17.803C11.3402 17.803 4.53418 24.61 4.53418 32.976C4.53418 41.343 11.3402 48.15 19.7072 48.15C28.0732 48.15 34.8802 41.343 34.8802 32.976C34.8802 24.61 28.0732 17.803 19.7072 17.803Z" fill="#CADDFF"/>
  <path fill-rule="evenodd" clip-rule="evenodd" d="M19.7073 24.8313C15.2153 24.8313 11.5623 28.4853 11.5623 32.9763C11.5623 37.4673 15.2153 41.1213 19.7073 41.1213C24.1983 41.1213 27.8523 37.4673 27.8523 32.9763C27.8523 28.4853 24.1983 24.8313 19.7073 24.8313Z" fill="#4585FB"/>
  <path fill-rule="evenodd" clip-rule="evenodd" d="M19.7072 15.511C10.0762 15.511 2.24024 23.345 2.24024 32.976C2.24024 42.607 10.0762 50.443 19.7072 50.443C29.3372 50.443 37.1722 42.607 37.1722 32.976C37.1722 23.345 29.3372 15.511 19.7072 15.511ZM19.7072 52.682C8.84025 52.682 0.000244141 43.843 0.000244141 32.976C0.000244141 22.111 8.84025 13.27 19.7072 13.27C30.5722 13.27 39.4132 22.111 39.4132 32.976C39.4132 43.843 30.5722 52.682 19.7072 52.682Z" fill="#6D9FFC"/>
  <path fill-rule="evenodd" clip-rule="evenodd" d="M18.1014 37.178L18.7114 36.568L17.7214 35.573H22.3034C22.7814 35.573 23.1694 35.185 23.1694 34.707V33.409H22.3034V34.707H17.7214L18.7114 33.716L18.1014 33.106L16.3714 34.837C16.2034 35.006 16.2034 35.278 16.3714 35.447L18.1014 37.178Z" fill="#E5EEFE"/>
  <path fill-rule="evenodd" clip-rule="evenodd" d="M17.1111 31.2459H21.6931L20.7021 32.2369L21.3121 32.8469L23.0431 31.1159C23.2111 30.9469 23.2111 30.6739 23.0431 30.5059L21.3121 28.7749L20.6981 29.3889L21.6931 30.3799H17.1111C16.6321 30.3799 16.2451 30.7669 16.2451 31.2459V32.5439H17.1111V31.2459Z" fill="#E5EEFE"/>
  <path fill-rule="evenodd" clip-rule="evenodd" d="M36.2946 4.53247C30.1516 4.53247 24.8516 8.20347 22.4666 13.4645C32.0306 14.8115 39.4126 23.0475 39.4126 32.9765C39.4126 33.5125 39.3906 34.0445 39.3486 34.5715C46.2556 33.1525 51.4676 27.0265 51.4676 19.7055C51.4676 11.3395 44.6616 4.53247 36.2946 4.53247Z" fill="#CADDFF"/>
  <path fill-rule="evenodd" clip-rule="evenodd" d="M36.2946 0.000244141C27.6416 0.000244141 20.2746 5.60724 17.6326 13.3802C18.3146 13.3072 19.0056 13.2712 19.7066 13.2712C19.8236 13.2712 19.9416 13.2722 20.0576 13.2752C22.6236 6.81824 28.9336 2.24024 36.2946 2.24024C45.9256 2.24024 53.7596 10.0742 53.7596 19.7062C53.7596 28.4132 47.3536 35.6522 39.0066 36.9602C38.8426 37.7592 38.6286 38.5412 38.3706 39.3022C48.2646 38.2622 56.0016 29.8702 56.0016 19.7062C56.0016 8.83924 47.1606 0.000244141 36.2946 0.000244141Z" fill="#6D9FFC"/>
  <path fill-rule="evenodd" clip-rule="evenodd" d="M36.005 13.3376C33.354 13.3376 31.071 14.8296 30 16.9826C33.42 19.0616 36.043 22.2356 37.317 25.9996C40.365 25.4156 42.663 22.8316 42.663 19.7316C42.663 16.2006 39.682 13.3376 36.005 13.3376Z" fill="#4585FB"/>
</svg>
