<svg width="58" height="58" viewBox="0 0 58 58" xmlns="http://www.w3.org/2000/svg">
  <circle cx="29" cy="29" r="29" fill="#E5EEFE"/>
  <path fill-rule="evenodd" clip-rule="evenodd" d="M29.2016 34.2259L31.1828 36.0734C32.8254 37.6025 35.3954 37.5128 36.928 35.8735L46.6298 25.4696C48.1582 23.8263 48.0685 21.2563 46.4285 19.7244L37.5109 11.4085C35.869 9.8801 33.299 9.96985 31.7664 11.6092L22.0645 22.0131C20.5361 23.6563 20.6259 26.2264 22.2652 27.7576L24.2471 29.6058" fill="#6D9FFC"/>
  <path fill-rule="evenodd" clip-rule="evenodd" d="M28.2107 33.3018L25.2382 30.5299L24.2476 29.6061L22.3994 31.588C22.2763 31.7186 22.2108 31.8938 22.2171 32.0732L22.2944 34.2689L20.0987 34.3449C19.9193 34.3511 19.7491 34.4287 19.6274 34.5606L18.7037 35.5512C18.5799 35.6825 18.5151 35.857 18.5214 36.0364L18.5813 37.7538L16.8646 37.8131C16.6851 37.8194 16.5156 37.8962 16.3939 38.0281L13.1598 41.4963C13.0184 41.6464 12.9541 41.8527 12.9842 42.0569L13.6135 46.3479C13.6357 46.5004 13.7088 46.6404 13.8219 46.7458C13.8422 46.7647 13.8651 46.7835 13.888 46.7996C14.0362 46.9065 14.2227 46.9486 14.4026 46.9167L17.7371 46.3207C17.8821 46.2954 18.0133 46.2233 18.1136 46.1158L29.2014 34.2256L28.2107 33.3018Z" fill="#4585FB"/>
  <path fill-rule="evenodd" clip-rule="evenodd" d="M35.1676 12.9282C35.4412 13.1834 35.4562 13.6124 35.2017 13.8854C34.9458 14.1598 34.5175 14.174 34.2438 13.9189C33.9701 13.6637 33.9552 13.236 34.211 12.9616C34.4656 12.6887 34.8939 12.673 35.1676 12.9282Z" fill="#1A63E9"/>
  <path fill-rule="evenodd" clip-rule="evenodd" d="M45.0765 22.1684C45.3501 22.4236 45.3644 22.8519 45.1099 23.1249C44.854 23.3993 44.4264 23.4142 44.1527 23.159C43.879 22.9038 43.8634 22.4755 44.1193 22.2011C44.3738 21.9282 44.8028 21.9132 45.0765 22.1684Z" fill="#1A63E9"/>
  <path fill-rule="evenodd" clip-rule="evenodd" d="M24.5416 24.3233C24.8153 24.5784 24.8309 25.0068 24.5757 25.2804C24.3198 25.5548 23.8915 25.5691 23.6178 25.3139C23.3442 25.0587 23.3292 24.631 23.5851 24.3567C23.8403 24.083 24.2679 24.0681 24.5416 24.3233Z" fill="#1A63E9"/>
  <path fill-rule="evenodd" clip-rule="evenodd" d="M34.4505 33.5634C34.7242 33.8186 34.7391 34.2463 34.4839 34.5199C34.2281 34.7943 33.8004 34.8092 33.5267 34.554C33.2531 34.2988 33.2374 33.8705 33.4933 33.5962C33.7485 33.3225 34.1768 33.3082 34.4505 33.5634Z" fill="#1A63E9"/>
  <path fill-rule="evenodd" clip-rule="evenodd" d="M34.5 17.9999C37.5371 17.9999 40 20.4628 40 23.4999C40 26.5381 37.5371 28.9999 34.5 28.9999C31.4629 28.9999 29 26.5381 29 23.4999C29 20.4628 31.4629 17.9999 34.5 17.9999Z" fill="#0F3A8A"/>
  <path fill-rule="evenodd" clip-rule="evenodd" d="M36.4668 25.2434C36.3645 24.9431 36.2633 24.6813 36.1643 24.4613C36.0642 24.2402 35.9553 24.0543 35.8376 23.9036C35.7188 23.7529 35.5824 23.6374 35.4295 23.556C35.2755 23.4757 35.0896 23.4218 34.8685 23.3954V23.3635C35.0731 23.336 35.248 23.2821 35.3932 23.2018C35.5384 23.1204 35.666 23.0104 35.7771 22.8707C35.8871 22.7299 35.9872 22.5583 36.0785 22.3537C36.1709 22.1491 36.2633 21.9115 36.3579 21.6398C36.4514 21.3681 36.5559 21.059 36.6692 20.7147H35.6352C35.523 21.081 35.4174 21.4066 35.3206 21.6915C35.2238 21.9775 35.1171 22.2184 35.0016 22.4142C34.8861 22.6111 34.7519 22.7607 34.6023 22.8619C34.5616 22.8894 34.5187 22.9125 34.4736 22.9334V21.8213H33.9566V23.0159H33.4957V22.3614V20.7147H32.52V26.2851H33.4957V24.3238V23.7507H33.9566V24.9453H34.4736V23.8211C34.5286 23.842 34.5825 23.8651 34.6309 23.8959C34.7838 23.9927 34.918 24.1423 35.0335 24.3436C35.1501 24.5449 35.2612 24.8067 35.369 25.1268C35.4768 25.4469 35.6055 25.833 35.7562 26.2851H36.8144C36.6846 25.8924 36.5691 25.5448 36.4668 25.2434Z" fill="#E5EEFE"/>
</svg>
