<svg width="52" height="54" viewBox="0 0 52 54" xmlns="http://www.w3.org/2000/svg">
  <path fill-rule="evenodd" clip-rule="evenodd" d="M38.8137 35.0068C38.8137 35.6538 38.2887 36.1788 37.6417 36.1788H14.2077C13.5607 36.1788 13.0357 35.6538 13.0357 35.0068V18.6028C13.0357 17.9558 13.5607 17.4308 14.2077 17.4308H37.6417C38.2887 17.4308 38.8137 17.9558 38.8137 18.6028V35.0068ZM48.4267 1.17181H3.42171C2.17971 1.17181 1.17171 2.17881 1.17171 3.42181V19.9238C1.17171 43.5558 21.2287 51.3848 25.2337 52.7128C25.6817 52.8668 26.1677 52.8668 26.6157 52.7128C30.6207 51.3848 50.6777 43.5558 50.6777 19.9238V3.42181C50.6777 2.17881 49.6697 1.17181 48.4267 1.17181Z" fill="#DEE9FE"/>
  <path fill-rule="evenodd" clip-rule="evenodd" d="M3.42211 2.34331C2.82711 2.34331 2.34311 2.82731 2.34311 3.42231V19.9243C2.34311 42.7343 21.7181 50.3133 25.6021 51.6013C25.8151 51.6743 26.0341 51.6743 26.2341 51.6053C30.1301 50.3133 49.5051 42.7343 49.5051 19.9243V3.42231C49.5051 2.82731 49.0221 2.34331 48.4271 2.34331H3.42211ZM25.9281 54.0003C25.5651 54.0003 25.1991 53.9403 24.8521 53.8213C20.7131 52.4483 0.000106812 44.3443 0.000106812 19.9243V3.42231C0.000106812 1.53531 1.53511 0.000305176 3.42211 0.000305176H48.4271C50.3141 0.000305176 51.8491 1.53531 51.8491 3.42231V19.9243C51.8491 44.3443 31.1361 52.4483 26.9841 53.8253C26.6461 53.9413 26.2881 54.0003 25.9281 54.0003Z" fill="#6A9DFC"/>
  <path fill-rule="evenodd" clip-rule="evenodd" d="M25.9246 27.9766C24.3066 27.9766 22.9956 26.6646 22.9956 25.0476C22.9956 23.4296 24.3066 22.1186 25.9246 22.1186C27.5426 22.1186 28.8536 23.4296 28.8536 25.0476C28.8536 26.6646 27.5426 27.9766 25.9246 27.9766ZM37.6416 17.4316H14.2076C13.5606 17.4316 13.0356 17.9556 13.0356 18.6026V35.0066C13.0356 35.6546 13.5606 36.1786 14.2076 36.1786H37.6416C38.2886 36.1786 38.8136 35.6546 38.8136 35.0066V18.6026C38.8136 17.9556 38.2886 17.4316 37.6416 17.4316Z" fill="white"/>
  <path fill-rule="evenodd" clip-rule="evenodd" d="M25.9246 26.8047C24.9556 26.8047 24.1666 26.0167 24.1666 25.0477C24.1666 24.0777 24.9556 23.2897 25.9246 23.2897C26.8936 23.2897 27.6826 24.0777 27.6826 25.0477C27.6826 26.0167 26.8936 26.8047 25.9246 26.8047ZM25.9246 20.9467C23.6636 20.9467 21.8236 22.7857 21.8236 25.0477C21.8236 26.9017 23.0606 28.4707 24.7526 28.9757V31.4917C24.7526 32.1387 25.2776 32.6637 25.9246 32.6637C26.5716 32.6637 27.0966 32.1387 27.0966 31.4917V28.9757C28.7886 28.4707 30.0256 26.9017 30.0256 25.0477C30.0256 22.7857 28.1856 20.9467 25.9246 20.9467Z" fill="#344564"/>
  <path fill-rule="evenodd" clip-rule="evenodd" d="M37.6419 35.0068H14.2069L14.2059 18.6028H14.2069H37.6419V35.0068ZM21.8239 12.1578C21.8239 9.89681 23.6629 8.05681 25.9249 8.05681C28.1859 8.05681 30.0259 9.89681 30.0259 12.1578V16.2588H21.8239V12.1578ZM37.6419 16.2588H32.3689V12.1578C32.3689 8.60481 29.4779 5.71381 25.9249 5.71381C22.3709 5.71381 19.4799 8.60481 19.4799 12.1578V16.2588H14.2069C12.9149 16.2588 11.8639 17.3108 11.8639 18.6028V35.0068C11.8639 36.2988 12.9149 37.3508 14.2069 37.3508H37.6419C38.9339 37.3508 39.9849 36.2988 39.9849 35.0068V18.6028C39.9849 17.3108 38.9339 16.2588 37.6419 16.2588Z" fill="#344564"/>
</svg>
