<svg width="58" height="58" viewBox="0 0 58 58" xmlns="http://www.w3.org/2000/svg">
  <circle cx="29" cy="29" r="29" fill="#E5EEFE"/>
  <path fill-rule="evenodd" clip-rule="evenodd" d="M46.9998 42.0001C46.9998 42.6441 46.4778 43.1671 45.8338 43.1671H13.1668C12.5218 43.1671 11.9998 42.6441 11.9998 42.0001C11.9998 41.3551 12.5218 40.8331 13.1668 40.8331H45.8338C46.4778 40.8331 46.9998 41.3551 46.9998 42.0001Z" fill="#1A63E9"/>
  <path fill-rule="evenodd" clip-rule="evenodd" d="M13.2106 24.818C13.0676 24.316 13.2766 23.78 13.7226 23.506L28.8886 14.173C29.2636 13.943 29.7356 13.943 30.1106 14.173L45.2776 23.506C45.8266 23.844 45.9976 24.563 45.6596 25.111C45.4476 25.457 45.0716 25.667 44.6666 25.667H41.1666V36.167H43.4996C44.1446 36.167 44.6666 36.689 44.6666 37.333C44.6666 37.978 44.1446 38.5 43.4996 38.5H15.4996C14.8556 38.5 14.3336 37.978 14.3336 37.333C14.3336 36.689 14.8556 36.167 15.4996 36.167H17.8336V25.667H14.3336C13.8116 25.667 13.3536 25.32 13.2106 24.818Z" fill="#6D9FFC"/>
  <path fill-rule="evenodd" clip-rule="evenodd" d="M31.8337 33.8331C31.8337 34.4781 32.3547 35.0001 32.9997 35.0001C33.6447 35.0001 34.1667 34.4781 34.1667 33.8331V26.8331C34.1667 26.1891 33.6447 25.6661 32.9997 25.6661C32.3547 25.6661 31.8337 26.1891 31.8337 26.8331V33.8331Z" fill="#0F3A8A"/>
  <path fill-rule="evenodd" clip-rule="evenodd" d="M24.8337 33.8331C24.8337 34.4781 25.3547 35.0001 25.9997 35.0001C26.6447 35.0001 27.1667 34.4781 27.1667 33.8331V26.8331C27.1667 26.1891 26.6447 25.6661 25.9997 25.6661C25.3547 25.6661 24.8337 26.1891 24.8337 26.8331V33.8331Z" fill="#0F3A8A"/>
</svg>
