<svg width="54" height="54" viewBox="0 0 54 54" xmlns="http://www.w3.org/2000/svg">
  <path fill-rule="evenodd" clip-rule="evenodd" d="M31.4554 5.27439C31.4554 7.86839 29.3524 9.97139 26.7584 9.97139C24.1644 9.97139 22.0614 7.86839 22.0614 5.27439C22.0614 2.68039 24.1644 0.577393 26.7584 0.577393C29.3524 0.577393 31.4554 2.68039 31.4554 5.27439Z" fill="#DEE9FE"/>
  <path fill-rule="evenodd" clip-rule="evenodd" d="M9.88799 27.3423C9.88799 29.9363 7.78499 32.0393 5.19099 32.0393C2.59599 32.0393 0.493988 29.9363 0.493988 27.3423C0.493988 24.7483 2.59599 22.6453 5.19099 22.6453C7.78499 22.6453 9.88799 24.7483 9.88799 27.3423Z" fill="#DEE9FE"/>
  <path fill-rule="evenodd" clip-rule="evenodd" d="M53.2469 27.3423C53.2469 29.9363 51.1439 32.0393 48.5499 32.0393C45.9559 32.0393 43.8529 29.9363 43.8529 27.3423C43.8529 24.7483 45.9559 22.6453 48.5499 22.6453C51.1439 22.6453 53.2469 24.7483 53.2469 27.3423Z" fill="#DEE9FE"/>
  <path fill-rule="evenodd" clip-rule="evenodd" d="M31.4554 49.04C31.4554 51.634 29.3524 53.737 26.7584 53.737C24.1644 53.737 22.0614 51.634 22.0614 49.04C22.0614 46.446 24.1644 44.343 26.7584 44.343C29.3524 44.343 31.4554 46.446 31.4554 49.04Z" fill="#DEE9FE"/>
  <rect x="17" y="25" width="19" height="9" fill="white"/>
  <path fill-rule="evenodd" clip-rule="evenodd" d="M13.5741 24.0459H39.9441L26.7591 15.2559L13.5741 24.0459Z" fill="#DEE9FE"/>
  <path fill-rule="evenodd" clip-rule="evenodd" d="M26.7591 16.5767L36.3151 22.9477H17.2031L26.7591 16.5767ZM31.1541 33.9347H35.5491V25.1447H31.1541V33.9347ZM24.5611 33.9347H28.9561V25.1447H24.5611V33.9347ZM17.9691 33.9347H22.3641V25.1447H17.9691V33.9347ZM13.5741 33.9347C12.9671 33.9347 12.4751 34.4267 12.4751 35.0337C12.4751 35.6397 12.9671 36.1317 13.5741 36.1317H39.9441C40.5501 36.1317 41.0421 35.6397 41.0421 35.0337C41.0421 34.4267 40.5501 33.9347 39.9441 33.9347H37.7461V25.1447H39.9441C40.4271 25.1447 40.8551 24.8277 40.9951 24.3647C41.1351 23.9007 40.9561 23.4007 40.5531 23.1317L27.3681 14.3417C26.9991 14.0957 26.5181 14.0957 26.1491 14.3417L12.9651 23.1317C12.5621 23.4007 12.3821 23.9007 12.5231 24.3647C12.6631 24.8277 13.0901 25.1447 13.5741 25.1447H15.7721V33.9347H13.5741Z" fill="#2C3E5E"/>
  <path fill-rule="evenodd" clip-rule="evenodd" d="M42.1409 38.3291H11.3769C10.7699 38.3291 10.2779 38.8211 10.2779 39.4281C10.2779 40.0351 10.7699 40.5271 11.3769 40.5271H42.1409C42.7479 40.5271 43.2399 40.0351 43.2399 39.4281C43.2399 38.8211 42.7479 38.3291 42.1409 38.3291Z" fill="#344564"/>
  <path fill-rule="evenodd" clip-rule="evenodd" d="M26.7586 2.19731C25.0616 2.19731 23.6816 3.57731 23.6816 5.27431C23.6816 6.9703 25.0616 8.35131 26.7586 8.35131C28.4546 8.35131 29.8356 6.9703 29.8356 5.27431C29.8356 3.57731 28.4546 2.19731 26.7586 2.19731ZM26.7586 10.5483C23.8506 10.5483 21.4846 8.18231 21.4846 5.27431C21.4846 2.36631 23.8506 0.000305176 26.7586 0.000305176C29.6666 0.000305176 32.0326 2.36631 32.0326 5.27431C32.0326 8.18231 29.6666 10.5483 26.7586 10.5483Z" fill="#6A9DFC"/>
  <path fill-rule="evenodd" clip-rule="evenodd" d="M26.7586 46.2773C25.2356 46.2773 23.9956 47.5163 23.9956 49.0403C23.9956 50.5633 25.2356 51.8023 26.7586 51.8023C28.2816 51.8023 29.5216 50.5633 29.5216 49.0403C29.5216 47.5163 28.2816 46.2773 26.7586 46.2773ZM26.7586 54.0003C24.0236 54.0003 21.7986 51.7743 21.7986 49.0403C21.7986 46.3043 24.0236 44.0793 26.7586 44.0793C29.4936 44.0793 31.7186 46.3043 31.7186 49.0403C31.7186 51.7743 29.4936 54.0003 26.7586 54.0003Z" fill="#6A9DFC"/>
  <path fill-rule="evenodd" clip-rule="evenodd" d="M5.19079 24.3486C3.54079 24.3486 2.19779 25.6916 2.19779 27.3426C2.19779 28.9926 3.54079 30.3356 5.19079 30.3356C6.84179 30.3356 8.18479 28.9926 8.18479 27.3426C8.18479 25.6916 6.84179 24.3486 5.19079 24.3486ZM5.19079 32.5326C2.32879 32.5326 -0.000213623 30.2036 -0.000213623 27.3426C-0.000213623 24.4796 2.32879 22.1516 5.19079 22.1516C8.05279 22.1516 10.3818 24.4796 10.3818 27.3426C10.3818 30.2036 8.05279 32.5326 5.19079 32.5326Z" fill="#6A9DFC"/>
  <path fill-rule="evenodd" clip-rule="evenodd" d="M48.5496 24.2427C46.8406 24.2427 45.4496 25.6327 45.4496 27.3427C45.4496 29.0517 46.8406 30.4417 48.5496 30.4417C50.2586 30.4417 51.6496 29.0517 51.6496 27.3427C51.6496 25.6327 50.2586 24.2427 48.5496 24.2427ZM48.5496 32.6387C45.6286 32.6387 43.2526 30.2627 43.2526 27.3427C43.2526 24.4217 45.6286 22.0447 48.5496 22.0447C51.4706 22.0447 53.8466 24.4217 53.8466 27.3427C53.8466 30.2627 51.4706 32.6387 48.5496 32.6387Z" fill="#6A9DFC"/>
</svg>
