<svg width="73" height="56" viewBox="0 0 73 56" xmlns="http://www.w3.org/2000/svg">
  <path fill-rule="evenodd" clip-rule="evenodd" d="M12.6526 55.6641H19.5416V7.72363H12.6526V55.6641Z" fill="#0F3A8A"/>
  <path fill-rule="evenodd" clip-rule="evenodd" d="M52.2861 55.6641H59.1743V7.72363H52.2861V55.6641Z" fill="#0F3A8A"/>
  <path fill-rule="evenodd" clip-rule="evenodd" d="M0 40.1505H71.8269V12.5791H0V40.1505Z" fill="#4585FB"/>
  <path fill-rule="evenodd" clip-rule="evenodd" d="M18.3048 26.7262L17.0013 23.0259H15.9342L14.6299 26.7262L13.4027 23.0259H11.8638L14.0768 29.7049H15.1465L16.4635 25.9402L17.789 29.7049H18.8578L21.0718 23.0259H19.5329L18.3048 26.7262Z" fill="white"/>
  <path fill-rule="evenodd" clip-rule="evenodd" d="M23.5481 26.8258H25.5131V25.4478H23.5481V24.4043H26.1525V23.0264H22.033V29.7045H26.244V28.3265H23.5481V26.8258Z" fill="white"/>
  <path fill-rule="evenodd" clip-rule="evenodd" d="M29.0491 23.0261H27.5339V29.7043H31.7449V28.3263H29.0491V23.0261Z" fill="white"/>
  <path fill-rule="evenodd" clip-rule="evenodd" d="M37.5608 27.5859C37.3203 27.8967 36.7808 28.4176 35.8627 28.4176C34.6982 28.4176 33.8199 27.5351 33.8199 26.3654C33.8199 25.2144 34.6931 24.3124 35.8085 24.3124C36.348 24.3124 36.8646 24.5318 37.2619 24.929L37.3643 25.0315L38.3544 23.9855L38.2545 23.8881C37.6193 23.2732 36.7537 22.9344 35.817 22.9344C33.8148 22.9344 32.3047 24.4098 32.3047 26.3654C32.3047 28.321 33.8224 29.7955 35.8356 29.7955C36.9756 29.7955 37.9953 29.3297 38.6331 28.5175L38.7144 28.4133L37.6531 27.4665L37.5608 27.5859Z" fill="white"/>
  <path fill-rule="evenodd" clip-rule="evenodd" d="M42.7437 28.4179C41.6443 28.4179 40.783 27.5168 40.783 26.3649C40.783 25.2139 41.6443 24.3128 42.7437 24.3128C43.8439 24.3128 44.7052 25.2139 44.7052 26.3649C44.7052 27.5168 43.8439 28.4179 42.7437 28.4179ZM42.7437 22.9348C40.7618 22.9348 39.2678 24.4093 39.2678 26.3649C39.2678 28.3205 40.7618 29.7959 42.7437 29.7959C44.7255 29.7959 46.2195 28.3205 46.2195 26.3649C46.2195 24.4093 44.7255 22.9348 42.7437 22.9348Z" fill="white"/>
  <path fill-rule="evenodd" clip-rule="evenodd" d="M50.7578 26.7253L48.5067 23.0259H47.4192V29.7049H48.9335V26.4992L50.2497 28.653H51.2669L52.5822 26.4992V29.7049H54.0965V23.0259H53.009L50.7578 26.7253Z" fill="white"/>
  <path fill-rule="evenodd" clip-rule="evenodd" d="M57.2676 28.3265V26.8258H59.2325V25.4478H57.2676V24.4043H59.872V23.0264H55.7524V29.7045H59.9635V28.3265H57.2676Z" fill="white"/>
</svg>
