<svg width="54" height="50" viewBox="0 0 54 50" xmlns="http://www.w3.org/2000/svg">
  <path fill-rule="evenodd" clip-rule="evenodd" d="M21.3706 5.99469C25.3366 5.99469 28.5526 9.21069 28.5526 13.1767C28.5526 17.1437 25.3366 20.3597 21.3706 20.3597C17.4036 20.3597 14.1876 17.1437 14.1876 13.1767C14.1876 9.21069 17.4036 5.99469 21.3706 5.99469Z" fill="white"/>
  <path fill-rule="evenodd" clip-rule="evenodd" d="M21.3706 20.3594C17.4036 20.3594 14.1876 17.1434 14.1876 13.1764C14.1876 9.21041 17.4036 5.99441 21.3706 5.99441C25.3366 5.99441 28.5526 9.21041 28.5526 13.1764C28.5526 17.1434 25.3366 20.3594 21.3706 20.3594ZM48.5786 1.10541H5.42061C3.03761 1.10541 1.10461 3.03741 1.10461 5.42141V29.1574H52.8946V5.42141C52.8946 3.03741 50.9626 1.10541 48.5786 1.10541Z" fill="#DEE9FE"/>
  <path fill-rule="evenodd" clip-rule="evenodd" d="M15.293 13.1768C15.293 9.82577 18.02 7.09977 21.37 7.09977C24.722 7.09977 27.448 9.82577 27.448 13.1768C27.448 16.5278 24.722 19.2548 21.37 19.2548C18.02 19.2548 15.293 16.5278 15.293 13.1768ZM28.998 21.6668C28.042 20.9948 27.015 20.4738 25.948 20.0788C28.181 18.5928 29.658 16.0548 29.658 13.1768C29.658 8.60777 25.94 4.88977 21.37 4.88977C16.801 4.88977 13.083 8.60777 13.083 13.1768C13.083 16.0528 14.558 18.5908 16.789 20.0768C14.273 20.9978 12.095 22.6508 10.522 24.8888C10.17 25.3878 10.291 26.0768 10.79 26.4278C10.983 26.5638 11.205 26.6298 11.424 26.6298C11.772 26.6298 12.114 26.4658 12.329 26.1598C14.027 23.7448 16.564 22.1358 19.472 21.6288C22.38 21.1218 25.312 21.7768 27.727 23.4748C28.772 24.2098 29.676 25.1138 30.411 26.1588C30.762 26.6578 31.451 26.7788 31.951 26.4268C32.45 26.0768 32.57 25.3868 32.219 24.8878C31.336 23.6338 30.253 22.5498 28.998 21.6668Z" fill="#344564"/>
  <path fill-rule="evenodd" clip-rule="evenodd" d="M43.479 24.8887C41.911 22.6557 39.71 20.9967 37.214 20.0767C40.127 18.1387 41.605 14.4737 40.607 10.9287C39.367 6.52971 34.781 3.95971 30.382 5.19871C29.794 5.36471 29.452 5.97471 29.618 6.56171C29.783 7.14971 30.394 7.49171 30.981 7.32571C32.544 6.88571 34.184 7.07971 35.601 7.87371C37.017 8.66771 38.039 9.96571 38.479 11.5277C39.389 14.7537 37.503 18.1177 34.277 19.0267C33.742 19.1777 33.187 19.2537 32.63 19.2547H32.629C32.552 19.2547 32.485 19.2837 32.412 19.2987C32.341 19.3127 32.265 19.3137 32.2 19.3417C32.127 19.3717 32.071 19.4267 32.007 19.4707C31.955 19.5077 31.894 19.5327 31.849 19.5777C31.796 19.6307 31.765 19.7007 31.724 19.7627C31.687 19.8187 31.638 19.8667 31.612 19.9297C31.583 19.9987 31.581 20.0787 31.566 20.1537C31.553 20.2227 31.525 20.2857 31.525 20.3597C31.525 20.4457 31.556 20.5207 31.574 20.6007C31.588 20.6637 31.587 20.7317 31.612 20.7897C31.66 20.9017 31.733 20.9987 31.813 21.0887C31.828 21.1037 31.834 21.1257 31.849 21.1407C32.049 21.3407 32.325 21.4647 32.63 21.4647C32.633 21.4637 32.636 21.4647 32.639 21.4647C36.23 21.4647 39.606 23.2187 41.67 26.1587C41.886 26.4647 42.228 26.6287 42.576 26.6287C42.795 26.6287 43.017 26.5637 43.209 26.4277C43.709 26.0767 43.83 25.3887 43.479 24.8887Z" fill="#344564"/>
  <path fill-rule="evenodd" clip-rule="evenodd" d="M48.5791 38.8423H5.42112C3.65012 38.8423 2.21012 37.4023 2.21012 35.6313V30.2623H51.7901V35.6313C51.7901 37.4023 50.3501 38.8423 48.5791 38.8423ZM5.42112 2.21031H48.5791C50.3501 2.21031 51.7901 3.65031 51.7901 5.42031V28.0523H2.21012V5.42031C2.21012 3.65031 3.65012 2.21031 5.42112 2.21031ZM48.5791 0.000305176H5.42112C2.43212 0.000305176 0.00012207 2.43131 0.00012207 5.42031V35.6313C0.00012207 38.6203 2.43212 41.0523 5.42112 41.0523H25.8951V47.4743H17.9741C17.3631 47.4743 16.8691 47.9693 16.8691 48.5793C16.8691 49.1893 17.3631 49.6843 17.9741 49.6843H34.8431C35.4531 49.6843 35.9471 49.1893 35.9471 48.5793C35.9471 47.9693 35.4531 47.4743 34.8431 47.4743H28.1051V41.0523H48.5791C51.5681 41.0523 54.0001 38.6203 54.0001 35.6313V5.42031C54.0001 2.43131 51.5681 0.000305176 48.5791 0.000305176Z" fill="#6A9DFC"/>
</svg>
