<svg width="54" height="46" viewBox="0 0 54 46" xmlns="http://www.w3.org/2000/svg">
  <rect x="1" y="1" width="51" height="42" rx="1" fill="#DEE9FE"/>
  <path fill-rule="evenodd" clip-rule="evenodd" d="M27.001 34.3114C24.1 34.3114 21.749 31.9594 21.749 29.0594C21.749 26.1584 24.1 23.8064 27.001 23.8064C29.902 23.8064 32.253 26.1584 32.253 29.0594C32.253 31.9594 29.902 34.3114 27.001 34.3114ZM27.001 19.6034C16.497 19.6034 12.294 29.0594 12.294 29.0594C12.294 29.0594 16.497 38.5124 27.001 38.5124C37.506 38.5124 41.708 29.0594 41.708 29.0594C41.708 29.0594 37.506 19.6034 27.001 19.6034Z" fill="white"/>
  <path fill-rule="evenodd" clip-rule="evenodd" d="M27.001 37.4603C22.959 37.4603 19.428 35.9913 16.505 33.0953C14.863 31.4673 13.876 29.8153 13.47 29.0583C14.091 27.9033 16.089 24.6833 19.703 22.5913L22.047 25.1693C21.241 26.1913 20.769 27.4323 20.706 28.7583C20.626 30.4393 21.205 32.0513 22.337 33.2973C23.58 34.6633 25.289 35.3573 27.004 35.3573C28.184 35.3573 29.361 35.0183 30.397 34.3543L32.325 36.4763C30.633 37.1293 28.822 37.4783 27.001 37.4603ZM23.498 26.7653L28.95 32.7633C27.297 33.6303 25.205 33.3283 23.892 31.8843C23.137 31.0533 22.751 29.9793 22.804 28.8573C22.84 28.0973 23.09 27.3853 23.498 26.7653ZM31.312 32.2373H31.311L24.246 24.4643H24.245L17.274 16.7963C16.883 16.3673 16.219 16.3353 15.79 16.7253C15.361 17.1153 15.329 17.7803 15.719 18.2093L18.248 20.9903C13.48 23.9173 11.426 28.4253 11.334 28.6313C11.214 28.9023 11.214 29.2123 11.334 29.4843C11.381 29.5883 12.493 32.0543 14.966 34.5273C18.26 37.8203 22.421 39.5613 26.993 39.5613C27.036 39.5623 27.079 39.5623 27.122 39.5623C29.426 39.5623 31.728 39.0693 33.834 38.1363L36.729 41.3193C36.936 41.5473 37.22 41.6633 37.506 41.6633C37.758 41.6633 38.011 41.5733 38.212 41.3903C38.642 41.0003 38.673 40.3353 38.283 39.9063L31.312 32.2373Z" fill="#344564"/>
  <path fill-rule="evenodd" clip-rule="evenodd" d="M42.6675 28.6312C42.6215 28.5272 41.5095 26.0612 39.0365 23.5882C35.7425 20.2932 31.5805 18.5522 27.0025 18.5522H26.9735C26.0185 18.5522 25.0565 18.6312 24.1135 18.7872C23.5415 18.8822 23.1545 19.4232 23.2495 19.9952C23.3435 20.5682 23.8845 20.9542 24.4575 20.8602C25.2945 20.7212 26.1455 20.6522 27.0005 20.6532C31.0425 20.6532 34.5735 22.1222 37.4975 25.0192C39.1405 26.6482 40.1265 28.3002 40.5315 29.0572C40.0775 29.9042 38.8975 31.8692 36.8845 33.6722C36.4525 34.0592 36.4165 34.7232 36.8035 35.1552C37.0105 35.3872 37.2975 35.5052 37.5855 35.5052C37.8355 35.5052 38.0855 35.4162 38.2865 35.2362C41.2825 32.5532 42.6125 29.6082 42.6675 29.4842C42.7885 29.2132 42.7885 28.9022 42.6675 28.6312Z" fill="#344564"/>
  <path fill-rule="evenodd" clip-rule="evenodd" d="M31.1846 28.663C31.2366 29.207 31.6936 29.614 32.2286 29.614C32.2626 29.614 32.2956 29.613 32.3296 29.609C32.9076 29.555 33.3306 29.042 33.2766 28.465C33.0136 25.694 30.9206 23.392 28.1876 22.867C27.6176 22.758 27.0676 23.131 26.9576 23.701C26.8486 24.27 27.2216 24.821 27.7916 24.93C29.6146 25.28 31.0096 26.815 31.1846 28.663Z" fill="#344564"/>
  <path fill-rule="evenodd" clip-rule="evenodd" d="M1.05029 14.0248H52.9473L52.9493 3.21278C52.9493 2.01878 51.9813 1.05078 50.7873 1.05078H3.21529C2.02029 1.05078 1.05229 2.01878 1.05229 3.21278L1.05029 14.0248Z" fill="#DEE9FE"/>
  <path fill-rule="evenodd" clip-rule="evenodd" d="M50.7871 43.2474H3.21511C2.60211 43.2474 2.10311 42.7484 2.10311 42.1354V15.0754H51.8991V42.1354C51.8991 42.7484 51.4001 43.2474 50.7871 43.2474ZM3.21511 2.10139H50.7871C51.4001 2.10139 51.8991 2.59939 51.8991 3.21239V12.9744H2.10311V3.21239C2.10311 2.59939 2.60211 2.10139 3.21511 2.10139ZM50.7871 -0.000610352H3.21511C1.44311 -0.000610352 0.00210681 1.44139 0.00210681 3.21239V14.0144C0.00210681 14.0184 0.000106812 14.0204 0.000106812 14.0244C0.000106812 14.0284 0.00210681 14.0314 0.00210681 14.0354V42.1354C0.00210681 43.9074 1.44311 45.3484 3.21511 45.3484H50.7871C52.5581 45.3484 54.0001 43.9074 54.0001 42.1354V3.21239C54.0001 1.44139 52.5581 -0.000610352 50.7871 -0.000610352Z" fill="#6A9DFC"/>
  <path fill-rule="evenodd" clip-rule="evenodd" d="M6.71729 6.11658C6.07129 6.11658 5.54829 6.63958 5.54829 7.28558C5.54829 7.93158 6.07129 8.45458 6.71729 8.45458C7.36329 8.45458 7.88629 7.93158 7.88629 7.28558C7.88629 6.63958 7.36329 6.11658 6.71729 6.11658Z" fill="#344564"/>
  <path fill-rule="evenodd" clip-rule="evenodd" d="M10.6333 6.11658C9.98729 6.11658 9.46429 6.63958 9.46429 7.28558C9.46429 7.93158 9.98729 8.45458 10.6333 8.45458C11.2793 8.45458 11.8023 7.93158 11.8023 7.28558C11.8023 6.63958 11.2793 6.11658 10.6333 6.11658Z" fill="#344564"/>
  <path fill-rule="evenodd" clip-rule="evenodd" d="M14.5493 6.11658C13.9033 6.11658 13.3803 6.63958 13.3803 7.28558C13.3803 7.93158 13.9033 8.45458 14.5493 8.45458C15.1953 8.45458 15.7183 7.93158 15.7183 7.28558C15.7183 6.63958 15.1953 6.11658 14.5493 6.11658Z" fill="#344564"/>
</svg>
