<svg width="46" height="56" viewBox="0 0 46 56" xmlns="http://www.w3.org/2000/svg">
  <path fill-rule="evenodd" clip-rule="evenodd" d="M35.1932 55.1663H2.44976C1.09652 55.1663 -0.000244141 54.0695 -0.000244141 52.7173V8.44945C-0.000244141 7.09726 1.09652 5.99945 2.44976 5.99945H35.1932C36.5465 5.99945 37.6432 7.09726 37.6432 8.44945V52.7173C37.6432 54.0695 36.5465 55.1663 35.1932 55.1663Z" fill="#E5EEFE"/>
  <path fill-rule="evenodd" clip-rule="evenodd" d="M6.70087 13.6113H10.894C11.2985 13.6113 11.6259 13.2839 11.6259 12.8784C11.6259 12.4749 11.2985 12.1465 10.894 12.1465H6.70087C6.29636 12.1465 5.96899 12.4749 5.96899 12.8784C5.96899 13.2839 6.29636 13.6113 6.70087 13.6113Z" fill="#4585FB"/>
  <path fill-rule="evenodd" clip-rule="evenodd" d="M9.56781 18.2233H16.1505C16.555 18.2233 16.8834 17.896 16.8834 17.4904C16.8834 17.0869 16.555 16.7585 16.1505 16.7585H9.56781C9.1633 16.7585 8.83594 17.0869 8.83594 17.4904C8.83594 17.896 9.1633 18.2233 9.56781 18.2233Z" fill="#4585FB"/>
  <path fill-rule="evenodd" clip-rule="evenodd" d="M19.1259 18.2233H28.5756C28.9812 18.2233 29.3075 17.896 29.3075 17.4904C29.3075 17.0869 28.9812 16.7585 28.5756 16.7585H19.1259C18.7214 16.7585 18.394 17.0869 18.394 17.4904C18.394 17.896 18.7214 18.2233 19.1259 18.2233Z" fill="#4585FB"/>
  <path fill-rule="evenodd" clip-rule="evenodd" d="M7.1355 43.3184H13.7182C14.1227 43.3184 14.4501 42.9911 14.4501 42.5865C14.4501 42.182 14.1227 41.8547 13.7182 41.8547H7.1355C6.73099 41.8547 6.40259 42.182 6.40259 42.5865C6.40259 42.9911 6.73099 43.3184 7.1355 43.3184Z" fill="#4585FB"/>
  <path fill-rule="evenodd" clip-rule="evenodd" d="M16.6931 43.3184H26.1428C26.5473 43.3184 26.8757 42.9911 26.8757 42.5865C26.8757 42.182 26.5473 41.8547 26.1428 41.8547H16.6931C16.2885 41.8547 15.9612 42.182 15.9612 42.5865C15.9612 42.9911 16.2885 43.3184 16.6931 43.3184Z" fill="#4585FB"/>
  <path fill-rule="evenodd" clip-rule="evenodd" d="M8.61224 37.5543H12.8054C13.2099 37.5543 13.5373 37.227 13.5373 36.8224C13.5373 36.4179 13.2099 36.0906 12.8054 36.0906H8.61224C8.20773 36.0906 7.88037 36.4179 7.88037 36.8224C7.88037 37.227 8.20773 37.5543 8.61224 37.5543Z" fill="#4585FB"/>
  <path fill-rule="evenodd" clip-rule="evenodd" d="M16.2585 37.5543H30.4872C30.8918 37.5543 31.2202 37.227 31.2202 36.8224C31.2202 36.4179 30.8918 36.0906 30.4872 36.0906H16.2585C15.854 36.0906 15.5266 36.4179 15.5266 36.8224C15.5266 37.227 15.854 37.5543 16.2585 37.5543Z" fill="#4585FB"/>
  <path fill-rule="evenodd" clip-rule="evenodd" d="M11.9572 23.0018H18.5399C18.9444 23.0018 19.2728 22.6745 19.2728 22.27C19.2728 21.8654 18.9444 21.5381 18.5399 21.5381H11.9572C11.5527 21.5381 11.2253 21.8654 11.2253 22.27C11.2253 22.6745 11.5527 23.0018 11.9572 23.0018Z" fill="#4585FB"/>
  <path fill-rule="evenodd" clip-rule="evenodd" d="M21.5153 23.0018H28.098C28.5025 23.0018 28.8299 22.6745 28.8299 22.27C28.8299 21.8654 28.5025 21.5381 28.098 21.5381H21.5153C21.1108 21.5381 20.7834 21.8654 20.7834 22.27C20.7834 22.6745 21.1108 23.0018 21.5153 23.0018Z" fill="#4585FB"/>
  <path fill-rule="evenodd" clip-rule="evenodd" d="M26.206 13.6113H28.0096C28.4141 13.6113 28.7415 13.2839 28.7415 12.8784C28.7415 12.4749 28.4141 12.1465 28.0096 12.1465H26.206C25.8015 12.1465 25.4741 12.4749 25.4741 12.8784C25.4741 13.2839 25.8015 13.6113 26.206 13.6113Z" fill="#4585FB"/>
  <path fill-rule="evenodd" clip-rule="evenodd" d="M6.70087 23.0018H8.50448C8.90899 23.0018 9.23636 22.6745 9.23636 22.27C9.23636 21.8654 8.90899 21.5381 8.50448 21.5381H6.70087C6.29636 21.5381 5.96899 21.8654 5.96899 22.27C5.96899 22.6745 6.29636 23.0018 6.70087 23.0018Z" fill="#4585FB"/>
  <path fill-rule="evenodd" clip-rule="evenodd" d="M13.8261 13.6448H23.7304C24.1359 13.6448 24.4633 13.3175 24.4633 12.913C24.4633 12.5085 24.1359 12.1811 23.7304 12.1811H13.8261C13.4216 12.1811 13.0942 12.5085 13.0942 12.913C13.0942 13.3175 13.4216 13.6448 13.8261 13.6448Z" fill="#4585FB"/>
  <path fill-rule="evenodd" clip-rule="evenodd" d="M7.98114 48.3815H12.1743C12.5788 48.3815 12.9062 48.0542 12.9062 47.6497C12.9062 47.2452 12.5788 46.9167 12.1743 46.9167H7.98114C7.57663 46.9167 7.24927 47.2452 7.24927 47.6497C7.24927 48.0542 7.57663 48.3815 7.98114 48.3815Z" fill="#4585FB"/>
  <path fill-rule="evenodd" clip-rule="evenodd" d="M27.4863 48.3815H29.2899C29.6944 48.3815 30.0228 48.0542 30.0228 47.6497C30.0228 47.2452 29.6944 46.9167 29.2899 46.9167H27.4863C27.0818 46.9167 26.7544 47.2452 26.7544 47.6497C26.7544 48.0542 27.0818 48.3815 27.4863 48.3815Z" fill="#4585FB"/>
  <path fill-rule="evenodd" clip-rule="evenodd" d="M15.1069 48.4152H25.0112C25.4157 48.4152 25.7431 48.0878 25.7431 47.6833C25.7431 47.2788 25.4157 46.9514 25.0112 46.9514H15.1069C14.7024 46.9514 14.374 47.2788 14.374 47.6833C14.374 48.0878 14.7024 48.4152 15.1069 48.4152Z" fill="#4585FB"/>
  <path fill-rule="evenodd" clip-rule="evenodd" d="M9.82635 27.8201H25.9432C26.3487 27.8201 26.6761 27.4928 26.6761 27.0883C26.6761 26.6837 26.3487 26.3564 25.9432 26.3564H9.82635C9.42184 26.3564 9.09448 26.6837 9.09448 27.0883C9.09448 27.4928 9.42184 27.8201 9.82635 27.8201Z" fill="#4585FB"/>
  <path fill-rule="evenodd" clip-rule="evenodd" d="M6.48138 32.5992H28.3333C28.7378 32.5992 29.0652 32.2718 29.0652 31.8673C29.0652 31.4628 28.7378 31.1354 28.3333 31.1354H6.48138C6.07687 31.1354 5.74951 31.4628 5.74951 31.8673C5.74951 32.2718 6.07687 32.5992 6.48138 32.5992Z" fill="#4585FB"/>
  <path fill-rule="evenodd" clip-rule="evenodd" d="M45.9897 3.49855V9.77368C45.9626 16.4491 41.856 22.4292 35.634 24.85C35.5444 24.8844 35.4453 24.8844 35.3557 24.85C29.1348 22.4292 25.0281 16.4491 25 9.77368V3.49855C25 3.28378 25.1741 3.10968 25.3889 3.10968C30.0147 3.10968 32.9297 1.42178 34.8615 0.305207C35.0169 0.215548 35.1628 0.131101 35.3036 0.0508245C35.4224 -0.0169415 35.5673 -0.0169415 35.6872 0.0508245C35.8269 0.129016 35.9739 0.215548 36.1293 0.305207C38.0601 1.42178 40.975 3.10968 45.6009 3.10968C45.8156 3.10968 45.9897 3.28378 45.9897 3.49855Z" fill="#1A63E9"/>
  <path fill-rule="evenodd" clip-rule="evenodd" d="M37.6433 11.7123L35.1049 14.1353C34.9703 14.2626 34.7596 14.2626 34.6259 14.1353L33.3567 12.9238C33.2184 12.791 33.2139 12.5722 33.3466 12.4339C33.4785 12.2956 33.6974 12.291 33.8357 12.4229L34.865 13.4064L37.1644 11.2114C37.3027 11.0795 37.5225 11.0841 37.6543 11.2233C37.7862 11.3615 37.7807 11.5795 37.6433 11.7123ZM35.5005 7.99982C33.0142 7.99982 31.0005 10.0145 31.0005 12.4998C31.0005 14.9852 33.0142 16.9998 35.5005 16.9998C37.9858 16.9998 40.0005 14.9852 40.0005 12.4998C39.9968 10.0154 37.984 8.00256 35.5005 7.99982Z" fill="white"/>
</svg>
