<svg width="58" height="58" viewBox="0 0 58 58" xmlns="http://www.w3.org/2000/svg">
  <circle cx="29" cy="29" r="29" fill="#E5EEFE"/>
  <path fill-rule="evenodd" clip-rule="evenodd" d="M28.6509 23.6528H35.999C36.3583 17.8643 33.7263 13.8556 28.6509 13.7333V10C36.3229 10.0485 40.0207 16.5221 39.9657 23.6528H40.4818C41.4833 23.6528 42.3018 24.4713 42.3018 25.4728V42.7124C42.3018 43.7139 41.4833 44.5333 40.4818 44.5333H28.6509V23.6528Z" fill="#4585FB"/>
  <path fill-rule="evenodd" clip-rule="evenodd" d="M28.6509 23.6528H21.3028C20.9425 17.8643 23.5745 13.8556 28.6509 13.7333V10C20.9789 10.0485 17.2811 16.5221 17.3361 23.6528H16.82C15.8185 23.6528 15 24.4713 15 25.4728V42.7124C15 43.7139 15.8185 44.5333 16.82 44.5333H28.6509V23.6528Z" fill="#6D9FFC"/>
  <circle cx="29.0192" cy="34.0192" r="5.01923" fill="white"/>
  <path fill-rule="evenodd" clip-rule="evenodd" d="M32.0559 33.061L28.5953 36.3643C28.4118 36.5378 28.1247 36.5378 27.9424 36.3643L26.2121 34.7126C26.0236 34.5316 26.0174 34.2332 26.1984 34.0447C26.3782 33.8562 26.6765 33.85 26.865 34.0298L28.2682 35.3705L31.403 32.3781C31.5915 32.1984 31.8911 32.2046 32.0708 32.3944C32.2506 32.5829 32.2431 32.88 32.0559 33.061ZM29.1346 28C25.7452 28 23 30.7465 23 34.1346C23 37.5228 25.7452 40.2692 29.1346 40.2692C32.5228 40.2692 35.2692 37.5228 35.2692 34.1346C35.2642 30.7477 32.5203 28.0037 29.1346 28Z" fill="#0F3A8A"/>
</svg>
