<svg width="24" height="18" viewBox="0 0 24 18" xmlns="http://www.w3.org/2000/svg">
  <path fill-rule="evenodd" clip-rule="evenodd" d="M0 18H24V0H0V18Z" fill="#DE2910"/>
  <path fill-rule="evenodd" clip-rule="evenodd" d="M7.03711 3.6777H5.16211L4.48311 1.8027L3.80511 3.6777H1.93011L3.44911 4.8087L2.86711 6.7487L4.48311 5.6167L6.10011 6.7487L5.51711 4.8087L7.03711 3.6777Z" fill="#FFDE00"/>
  <path fill-rule="evenodd" clip-rule="evenodd" d="M8.9082 1.4616L8.3342 1.2316L8.6602 1.7636L8.2442 2.2866L8.8772 2.1396L9.2342 2.6836L9.2942 2.0186L9.8982 1.8586L9.3242 1.6286L9.3462 0.970596L8.9082 1.4616Z" fill="#FFDE00"/>
  <path fill-rule="evenodd" clip-rule="evenodd" d="M11.6118 3.9902L11.1658 3.5612L11.4338 2.9602L10.8428 3.2502L10.3978 2.8212L10.4998 3.4372L9.91681 3.7652L10.5608 3.8662L10.6858 4.5062L10.9908 3.9112L11.6118 3.9902Z" fill="#FFDE00"/>
  <path fill-rule="evenodd" clip-rule="evenodd" d="M11.6235 6.0186L11.0055 6.0366L10.7635 5.4246L10.5575 6.0496L9.93848 6.0676L10.4505 6.4266L10.2765 7.0716L10.7995 6.6826L11.3435 7.0406L11.1335 6.4066L11.6235 6.0186Z" fill="#FFDE00"/>
  <path fill-rule="evenodd" clip-rule="evenodd" d="M9.86522 8.1353L9.28722 7.9133L9.30022 7.2553L8.86922 7.7533L8.29122 7.5313L8.62522 8.0593L8.21722 8.5883L8.84922 8.4313L9.21322 8.9703L9.26322 8.3043L9.86522 8.1353Z" fill="#FFDE00"/>
</svg>
