<svg width="24" height="18" viewBox="0 0 24 18" xmlns="http://www.w3.org/2000/svg">
  <path fill-rule="evenodd" clip-rule="evenodd" d="M0 1.385H24V0H0V1.385ZM0 4.154H24V2.77H0V4.154ZM0 6.923H24V5.539H0V6.923ZM0 9.692H24V8.308H0V9.692ZM0 12.462H24V11.077H0V12.462ZM0 15.231H24V13.846H0V15.231ZM0 18H24V16.615H0V18Z" fill="#BD3D44"/>
  <path fill-rule="evenodd" clip-rule="evenodd" d="M0 2.769H24V1.385H0V2.769ZM0 5.539H24V4.154H0V5.539ZM0 8.308H24V6.923H0V8.308ZM0 11.077H24V9.692H0V11.077ZM0 13.846H24V12.463H0V13.846ZM0 16.615H24V15.231H0V16.615Z" fill="white"/>
  <path fill-rule="evenodd" clip-rule="evenodd" d="M0 9.692H13.68V0H0V9.692Z" fill="#192F5D"/>
  <path fill-rule="evenodd" clip-rule="evenodd" d="M12.4155 0.798298H12.0125L12.3395 1.0343L12.2145 1.4183L12.5395 1.1813L12.8655 1.4183L12.7415 1.0343L13.0675 0.798298H12.6645L12.5395 0.415298L12.4155 0.798298ZM10.1355 0.798298H9.73249L10.0585 1.0343L9.93449 1.4183L10.2595 1.1813L10.5855 1.4183L10.4615 1.0343L10.7875 0.798298H10.3845L10.2595 0.415298L10.1355 0.798298ZM7.85549 0.798298H7.45249L7.77849 1.0343L7.65449 1.4183L7.98049 1.1813L8.30649 1.4183L8.18149 1.0343L8.50749 0.798298H8.10449L7.98049 0.415298L7.85549 0.798298ZM5.57549 0.798298H5.17349L5.49849 1.0343L5.37349 1.4183L5.70049 1.1813L6.02549 1.4183L5.90149 1.0343L6.22749 0.798298H5.82449L5.70049 0.415298L5.57549 0.798298ZM3.29549 0.798298H2.89249L3.21849 1.0343L3.09449 1.4183L3.42049 1.1813L3.74549 1.4183L3.62149 1.0343L3.94749 0.798298H3.54449L3.42049 0.415298L3.29549 0.798298ZM1.01549 0.798298H0.612488L0.938488 1.0343L0.813488 1.4183L1.14049 1.1813L1.46649 1.4183L1.34149 1.0343L1.66749 0.798298H1.26449L1.14049 0.415298L1.01549 0.798298ZM11.2755 1.7663H10.8725L11.1985 2.0043L11.0745 2.3873L11.4005 2.1503L11.7255 2.3873L11.6015 2.0043L11.9265 1.7663H11.5245L11.4005 1.3843L11.2755 1.7663ZM8.99549 1.7663H8.59349L8.91849 2.0043L8.79349 2.3873L9.11949 2.1503L9.44549 2.3873L9.32149 2.0043L9.64749 1.7663H9.24449L9.11949 1.3843L8.99549 1.7663ZM6.71449 1.7663H6.31249L6.63849 2.0043L6.51449 2.3873L6.83949 2.1503L7.16549 2.3873L7.04149 2.0043L7.36749 1.7663H6.96449L6.83949 1.3843L6.71449 1.7663ZM4.43549 1.7663H4.03249L4.35849 2.0043L4.23349 2.3873L4.56049 2.1503L4.88649 2.3873L4.76149 2.0043L5.08749 1.7663H4.68449L4.56049 1.3843L4.43549 1.7663ZM2.15549 1.7663H1.75349L2.07849 2.0043L1.95349 2.3873L2.28049 2.1503L2.60649 2.3873L2.48149 2.0043L2.80749 1.7663H2.40349L2.28049 1.3843L2.15549 1.7663ZM12.4155 2.7363H12.0125L12.3395 2.9723L12.2145 3.3563L12.5395 3.1193L12.8655 3.3563L12.7415 2.9723L13.0675 2.7363H12.6645L12.5395 2.3533L12.4155 2.7363ZM10.1355 2.7363H9.73249L10.0585 2.9723L9.93449 3.3563L10.2595 3.1193L10.5855 3.3563L10.4615 2.9723L10.7875 2.7363H10.3845L10.2595 2.3533L10.1355 2.7363ZM7.85549 2.7363H7.45249L7.77849 2.9723L7.65449 3.3563L7.98049 3.1193L8.30649 3.3563L8.18149 2.9723L8.50749 2.7363H8.10449L7.98049 2.3533L7.85549 2.7363ZM5.57549 2.7363H5.17349L5.49849 2.9723L5.37349 3.3563L5.70049 3.1193L6.02549 3.3563L5.90149 2.9723L6.22749 2.7363H5.82449L5.70049 2.3533L5.57549 2.7363ZM3.29549 2.7363H2.89249L3.21849 2.9723L3.09449 3.3563L3.42049 3.1193L3.74549 3.3563L3.62149 2.9723L3.94749 2.7363H3.54449L3.42049 2.3533L3.29549 2.7363ZM1.01549 2.7363H0.612488L0.938488 2.9723L0.813488 3.3563L1.14049 3.1193L1.46649 3.3563L1.34149 2.9723L1.66749 2.7363H1.26449L1.14049 2.3533L1.01549 2.7363ZM11.2755 3.7053H10.8725L11.1985 3.9433L11.0745 4.3253L11.4005 4.0883L11.7255 4.3253L11.6015 3.9433L11.9265 3.7053H11.5245L11.4005 3.3233L11.2755 3.7053ZM8.99549 3.7053H8.59349L8.91849 3.9433L8.79349 4.3253L9.11949 4.0883L9.44549 4.3253L9.32149 3.9433L9.64749 3.7053H9.24449L9.11949 3.3233L8.99549 3.7053ZM6.71449 3.7053H6.31249L6.63849 3.9433L6.51449 4.3253L6.83949 4.0883L7.16549 4.3253L7.04149 3.9433L7.36749 3.7053H6.96449L6.83949 3.3233L6.71449 3.7053ZM4.43549 3.7053H4.03249L4.35849 3.9433L4.23349 4.3253L4.56049 4.0883L4.88649 4.3253L4.76149 3.9433L5.08749 3.7053H4.68449L4.56049 3.3233L4.43549 3.7053ZM2.15549 3.7053H1.75349L2.07849 3.9433L1.95349 4.3253L2.28049 4.0883L2.60649 4.3253L2.48149 3.9433L2.80749 3.7053H2.40349L2.28049 3.3233L2.15549 3.7053ZM12.4155 4.6743H12.0125L12.3395 4.9113L12.2145 5.2943L12.5395 5.0583L12.8655 5.2943L12.7415 4.9113L13.0675 4.6743H12.6645L12.5395 4.2923L12.4155 4.6743ZM10.1355 4.6743H9.73249L10.0585 4.9113L9.93449 5.2943L10.2595 5.0583L10.5855 5.2943L10.4615 4.9113L10.7875 4.6743H10.3845L10.2595 4.2923L10.1355 4.6743ZM7.85549 4.6743H7.45249L7.77849 4.9113L7.65449 5.2943L7.98049 5.0583L8.30649 5.2943L8.18149 4.9113L8.50749 4.6743H8.10449L7.98049 4.2923L7.85549 4.6743ZM5.57549 4.6743H5.17349L5.49849 4.9113L5.37349 5.2943L5.70049 5.0583L6.02549 5.2943L5.90149 4.9113L6.22749 4.6743H5.82449L5.70049 4.2923L5.57549 4.6743ZM3.29549 4.6743H2.89249L3.21849 4.9113L3.09449 5.2943L3.42049 5.0583L3.74549 5.2943L3.62149 4.9113L3.94749 4.6743H3.54449L3.42049 4.2923L3.29549 4.6743ZM1.01549 4.6743H0.612488L0.938488 4.9113L0.813488 5.2943L1.14049 5.0583L1.46649 5.2943L1.34149 4.9113L1.66749 4.6743H1.26449L1.14049 4.2923L1.01549 4.6743ZM11.2755 5.6443H10.8725L11.1985 5.8803L11.0745 6.2643L11.4005 6.0273L11.7255 6.2643L11.6015 5.8803L11.9265 5.6443H11.5245L11.4005 5.2603L11.2755 5.6443ZM8.99549 5.6443H8.59349L8.91849 5.8803L8.79349 6.2643L9.11949 6.0273L9.44549 6.2643L9.32149 5.8803L9.64749 5.6443H9.24449L9.11949 5.2603L8.99549 5.6443ZM6.71449 5.6443H6.31249L6.63849 5.8803L6.51449 6.2643L6.83949 6.0273L7.16549 6.2643L7.04149 5.8803L7.36749 5.6443H6.96449L6.83949 5.2603L6.71449 5.6443ZM4.43549 5.6443H4.03249L4.35849 5.8803L4.23349 6.2643L4.56049 6.0273L4.88649 6.2643L4.76149 5.8803L5.08749 5.6443H4.68449L4.56049 5.2603L4.43549 5.6443ZM2.15549 5.6443H1.75349L2.07849 5.8803L1.95349 6.2643L2.28049 6.0273L2.60649 6.2643L2.48149 5.8803L2.80749 5.6443H2.40349L2.28049 5.2603L2.15549 5.6443Z" fill="white"/>
  <path fill-rule="evenodd" clip-rule="evenodd" d="M12.4155 6.6132H12.0125L12.3395 6.8502L12.2145 7.2332L12.5395 6.9962L12.8655 7.2332L12.7415 6.8502L13.0675 6.6132H12.6645L12.5395 6.2302L12.4155 6.6132ZM10.1355 6.6132H9.73249L10.0585 6.8502L9.93449 7.2332L10.2595 6.9962L10.5855 7.2332L10.4615 6.8502L10.7875 6.6132H10.3845L10.2595 6.2302L10.1355 6.6132ZM7.85549 6.6132H7.45249L7.77849 6.8502L7.65449 7.2332L7.98049 6.9962L8.30649 7.2332L8.18149 6.8502L8.50749 6.6132H8.10449L7.98049 6.2302L7.85549 6.6132ZM5.57549 6.6132H5.17349L5.49849 6.8502L5.37349 7.2332L5.70049 6.9962L6.02549 7.2332L5.90149 6.8502L6.22749 6.6132H5.82449L5.70049 6.2302L5.57549 6.6132ZM3.29549 6.6132H2.89249L3.21849 6.8502L3.09449 7.2332L3.42049 6.9962L3.74549 7.2332L3.62149 6.8502L3.94749 6.6132H3.54449L3.42049 6.2302L3.29549 6.6132ZM1.01549 6.6132H0.612488L0.938488 6.8502L0.813488 7.2332L1.14049 6.9962L1.46649 7.2332L1.34149 6.8502L1.66749 6.6132H1.26449L1.14049 6.2302L1.01549 6.6132ZM11.2755 7.5822H10.8725L11.1985 7.8192L11.0745 8.2022L11.4005 7.9662L11.7255 8.2022L11.6015 7.8192L11.9265 7.5822H11.5245L11.4005 7.1992L11.2755 7.5822ZM8.99549 7.5822H8.59349L8.91849 7.8192L8.79349 8.2022L9.11949 7.9662L9.44549 8.2022L9.32149 7.8192L9.64749 7.5822H9.24449L9.11949 7.1992L8.99549 7.5822ZM6.71449 7.5822H6.31249L6.63849 7.8192L6.51449 8.2022L6.83949 7.9662L7.16549 8.2022L7.04149 7.8192L7.36749 7.5822H6.96449L6.83949 7.1992L6.71449 7.5822ZM4.43549 7.5822H4.03249L4.35849 7.8192L4.23349 8.2022L4.56049 7.9662L4.88649 8.2022L4.76149 7.8192L5.08749 7.5822H4.68449L4.56049 7.1992L4.43549 7.5822ZM2.15549 7.5822H1.75349L2.07849 7.8192L1.95349 8.2022L2.28049 7.9662L2.60649 8.2022L2.48149 7.8192L2.80749 7.5822H2.40349L2.28049 7.1992L2.15549 7.5822Z" fill="white"/>
  <path fill-rule="evenodd" clip-rule="evenodd" d="M12.4155 8.5518H12.0125L12.3395 8.7888L12.2145 9.1718L12.5395 8.9338L12.8655 9.1718L12.7415 8.7888L13.0675 8.5518H12.6645L12.5395 8.1688L12.4155 8.5518ZM10.1355 8.5518H9.73249L10.0585 8.7888L9.93449 9.1718L10.2595 8.9338L10.5855 9.1718L10.4615 8.7888L10.7875 8.5518H10.3845L10.2595 8.1688L10.1355 8.5518ZM7.85549 8.5518H7.45249L7.77849 8.7888L7.65449 9.1718L7.98049 8.9338L8.30649 9.1718L8.18149 8.7888L8.50749 8.5518H8.10449L7.98049 8.1688L7.85549 8.5518ZM5.57549 8.5518H5.17349L5.49849 8.7888L5.37349 9.1718L5.70049 8.9338L6.02549 9.1718L5.90149 8.7888L6.22749 8.5518H5.82449L5.70049 8.1688L5.57549 8.5518ZM3.29549 8.5518H2.89249L3.21849 8.7888L3.09449 9.1718L3.42049 8.9338L3.74549 9.1718L3.62149 8.7888L3.94749 8.5518H3.54449L3.42049 8.1688L3.29549 8.5518ZM1.01549 8.5518H0.612488L0.938488 8.7888L0.813488 9.1718L1.14049 8.9338L1.46649 9.1718L1.34149 8.7888L1.66749 8.5518H1.26449L1.14049 8.1688L1.01549 8.5518Z" fill="white"/>
</svg>
