<svg width="24" height="18" viewBox="0 0 24 18" xmlns="http://www.w3.org/2000/svg">
  <path fill-rule="evenodd" clip-rule="evenodd" d="M0 17.999H23.999V0H0V17.999Z" fill="white"/>
  <path fill-rule="evenodd" clip-rule="evenodd" d="M17.1851 9.24559C17.1851 12.0966 14.8991 14.4066 12.0781 14.4066C9.25807 14.4066 6.97107 12.0966 6.97107 9.24559C6.97107 6.39459 9.25807 4.08459 12.0781 4.08459C14.8991 4.08459 17.1851 6.39559 17.1851 9.24559Z" fill="#C70000"/>
  <path fill-rule="evenodd" clip-rule="evenodd" d="M2.59429 5.2935L5.53529 1.8915L6.23229 2.4935L3.29129 5.8965L2.59429 5.2935ZM1.63129 4.4605L4.57229 1.0585L5.26929 1.6615L2.32729 5.0635L1.63129 4.4605Z" fill="black"/>
  <path fill-rule="evenodd" clip-rule="evenodd" d="M1.63092 4.4605L4.57192 1.0585L5.26892 1.6615L2.32792 5.0635L1.63092 4.4605Z" fill="black"/>
  <path fill-rule="evenodd" clip-rule="evenodd" d="M3.57823 6.1441L6.51923 2.7421L7.21623 3.3441L4.27523 6.7461L3.57823 6.1441ZM1.63123 4.4601L4.57223 1.0591L5.26923 1.6611L2.32823 5.0631L1.63123 4.4601Z" fill="black"/>
  <path fill-rule="evenodd" clip-rule="evenodd" d="M1.63092 4.4605L4.57192 1.0585L5.26892 1.6615L2.32792 5.0635L1.63092 4.4605Z" fill="black"/>
  <path fill-rule="evenodd" clip-rule="evenodd" d="M17.5611 2.7276L20.4791 6.1496L19.7781 6.7476L16.8601 3.3256L17.5611 2.7276ZM19.5191 1.0576L22.4371 4.4796L21.7371 5.0776L18.8191 1.6556L19.5191 1.0576ZM1.6311 4.4606L4.5721 1.0586L5.2691 1.6616L2.3281 5.0626L1.6311 4.4606Z" fill="black"/>
  <path fill-rule="evenodd" clip-rule="evenodd" d="M18.0474 4.6978L20.8114 2.3138L21.3254 2.9098L18.3724 5.5648L18.0474 4.6978Z" fill="white"/>
  <path fill-rule="evenodd" clip-rule="evenodd" d="M20.4673 12.2798L17.6403 15.6488L16.9473 15.0728L19.7753 11.7038L20.4673 12.2798ZM22.4043 13.8908L19.5773 17.2598L18.8843 16.6828L21.7113 13.3138L22.4043 13.8908ZM18.5503 1.8838L21.4683 5.3058L20.7683 5.9038L17.8493 2.4818L18.5503 1.8838ZM21.4463 13.0938L18.6193 16.4638L17.9263 15.8858L20.7533 12.5168L21.4463 13.0938Z" fill="black"/>
  <path fill-rule="evenodd" clip-rule="evenodd" d="M7.04553 8.33641C7.20753 9.63641 7.44253 11.0844 9.44253 11.2344C10.1925 11.2794 11.6515 11.0574 12.1525 9.01341C12.8095 7.05041 14.7885 6.48641 16.1345 7.55041C16.8985 8.04841 17.1095 8.83941 17.1645 9.43341C17.1035 11.3404 16.0085 12.9914 14.6045 13.7274C12.9895 14.6874 10.7525 14.7074 8.79353 13.2534C7.90953 12.4244 6.67553 10.8974 7.04553 8.33641Z" fill="#3D5897"/>
  <path fill-rule="evenodd" clip-rule="evenodd" d="M18.6929 13.0444L21.4619 15.4224L20.9479 16.0204L17.8839 13.4944L18.6929 13.0444Z" fill="white"/>
  <path fill-rule="evenodd" clip-rule="evenodd" d="M3.30183 12.5728L6.21983 15.9948L5.51883 16.5928L2.60083 13.1708L3.30183 12.5728Z" fill="black"/>
  <path fill-rule="evenodd" clip-rule="evenodd" d="M2.79938 15.3872L5.56238 13.0032L6.07738 13.5992L3.12438 16.2542L2.79938 15.3872Z" fill="white"/>
  <path fill-rule="evenodd" clip-rule="evenodd" d="M2.31257 13.4165L5.23057 16.8395L4.52957 17.4375L1.61157 14.0155L2.31257 13.4165ZM4.27057 11.7465L7.18857 15.1685L6.48757 15.7665L3.56957 12.3445L4.27057 11.7465Z" fill="black"/>
</svg>
