<svg width="542" height="404" viewBox="0 0 542 404" fill="none" xmlns="http://www.w3.org/2000/svg">
  <path fill-rule="evenodd" clip-rule="evenodd" d="M248.8 401.8H503.199V368.6H248.8V401.8Z" fill="#3D7AEE"/>
  <path fill-rule="evenodd" clip-rule="evenodd" d="M502.699 368.101H249.3H248.3V369.101V401.301V402.301H249.3H502.699H503.699V401.301V369.101V368.101H502.699ZM249.3 401.301H502.699V369.101H249.3V401.301Z" fill="#123F60"/>
  <path d="M302 368.5V401.7" stroke="#123F60"/>
  <path d="M330.1 368.5V401.7" stroke="#123F60"/>
  <path d="M358.2 368.5V401.7" stroke="#123F60"/>
  <path d="M278.6 368.5V401.7" stroke="#123F60"/>
  <path d="M260.8 368.5V401.7" stroke="#123F60"/>
  <path d="M450 401.7V368.5" stroke="#123F60"/>
  <path d="M421.9 401.7V368.5" stroke="#123F60"/>
  <path d="M393.8 401.7V368.5" stroke="#123F60"/>
  <path d="M473.4 401.7V368.5" stroke="#123F60"/>
  <path d="M491.2 401.7V368.5" stroke="#123F60"/>
  <path fill-rule="evenodd" clip-rule="evenodd" d="M287.5 368.6H541.5V335.4H287.5V368.6Z" fill="#3D7AEE"/>
  <path fill-rule="evenodd" clip-rule="evenodd" d="M541.001 334.9H288H287V335.901V368.101V369.101H288H541.001H542V334.9H541.001ZM288 368.101H541.001V335.901H288V368.101Z" fill="#123F60"/>
  <path d="M340.3 335.5V368.5" stroke="#123F60"/>
  <path d="M368.4 335.5V368.5" stroke="#123F60"/>
  <path d="M396.5 335.5V368.5" stroke="#123F60"/>
  <path d="M316.9 335.5V368.5" stroke="#123F60"/>
  <path d="M299.1 335.5V368.5" stroke="#123F60"/>
  <path d="M488.3 368.5V335.5" stroke="#123F60"/>
  <path d="M460.2 368.5V335.5" stroke="#123F60"/>
  <path d="M432.1 368.5V335.5" stroke="#123F60"/>
  <path d="M511.7 368.5V335.5" stroke="#123F60"/>
  <path d="M529.5 368.5V335.5" stroke="#123F60"/>
  <path fill-rule="evenodd" clip-rule="evenodd" d="M287.5 335.499H541.5V302.3H287.5V335.499Z" fill="#3D7AEE"/>
  <path fill-rule="evenodd" clip-rule="evenodd" d="M542 301.8H541H288H287V302.8V334.999V335.999H288H541H542V334.999V302.8V301.8ZM288 334.999H541V302.8H288V334.999Z" fill="#123F60"/>
  <path d="M340.3 302.3V335.4" stroke="#123F60"/>
  <path d="M368.4 302.3V335.4" stroke="#123F60"/>
  <path d="M396.5 302.3V335.4" stroke="#123F60"/>
  <path d="M316.9 302.3V335.4" stroke="#123F60"/>
  <path d="M299.1 302.3V335.4" stroke="#123F60"/>
  <path d="M488.3 335.4V302.3" stroke="#123F60"/>
  <path d="M460.2 335.4V302.3" stroke="#123F60"/>
  <path d="M432.1 335.4V302.3" stroke="#123F60"/>
  <path d="M511.7 335.4V302.3" stroke="#123F60"/>
  <path d="M529.5 335.4V302.3" stroke="#123F60"/>
  <path fill-rule="evenodd" clip-rule="evenodd" d="M248.8 302.2H503.199V269H248.8V302.2Z" fill="#3D7AEE"/>
  <path fill-rule="evenodd" clip-rule="evenodd" d="M503.7 268.5H502.7H249.301H248.301V269.5V301.7V302.7H249.301H502.7H503.7V301.7V269.5V268.5ZM249.301 301.7H502.7V269.5H249.301V301.7Z" fill="#123F60"/>
  <path d="M302 269V302.101" stroke="#123F60"/>
  <path d="M330.1 269V302.101" stroke="#123F60"/>
  <path d="M358.2 269V302.101" stroke="#123F60"/>
  <path d="M278.6 269V302.101" stroke="#123F60"/>
  <path d="M260.8 269V302.101" stroke="#123F60"/>
  <path d="M450 302.1V268.999" stroke="#123F60"/>
  <path d="M421.9 302.1V268.999" stroke="#123F60"/>
  <path d="M393.8 302.1V268.999" stroke="#123F60"/>
  <path d="M473.4 302.1V268.999" stroke="#123F60"/>
  <path d="M491.2 302.1V268.999" stroke="#123F60"/>
  <path d="M263.267 211.32H468.284L468.404 192.939L485.429 192.937" stroke="#123F60"/>
  <path fill-rule="evenodd" clip-rule="evenodd" d="M490.909 186.514C494.223 186.514 496.909 189.2 496.909 192.514C496.909 195.827 494.223 198.514 490.909 198.514C487.596 198.514 484.909 195.827 484.909 192.514C484.909 189.2 487.596 186.514 490.909 186.514Z" fill="#123F60"/>
  <path d="M180.1 331.9H87.157L87.14 343.319L75.475 343.311" stroke="#123F60"/>
  <path fill-rule="evenodd" clip-rule="evenodd" d="M69.7416 337.137C73.0556 337.137 75.7416 339.824 75.7416 343.137C75.7416 346.45 73.0556 349.137 69.7416 349.137C66.4286 349.137 63.7416 346.45 63.7416 343.137C63.7416 339.824 66.4286 337.137 69.7416 337.137Z" fill="#123F60"/>
  <path d="M228.312 208.576V106.775" stroke="#123F60" stroke-dasharray="9"/>
  <path fill-rule="evenodd" clip-rule="evenodd" d="M228.312 97.5758C231.625 97.5758 234.312 100.262 234.312 103.576C234.312 106.889 231.625 109.576 228.312 109.576C224.999 109.576 222.312 106.889 222.312 103.576C222.312 100.262 224.999 97.5758 228.312 97.5758Z" stroke="#123F60"/>
  <path d="M12.3734 190.208H46.5724V240.608H289.572" stroke="#123F60" stroke-dasharray="9"/>
  <path fill-rule="evenodd" clip-rule="evenodd" d="M6.50043 184.1C9.81343 184.1 12.5004 186.787 12.5004 190.1C12.5004 193.413 9.81343 196.1 6.50043 196.1C3.18643 196.1 0.500427 193.413 0.500427 190.1C0.500427 186.787 3.18643 184.1 6.50043 184.1Z" stroke="#123F60"/>
  <path fill-rule="evenodd" clip-rule="evenodd" d="M112.411 278.194C115.724 278.194 118.411 280.881 118.411 284.194C118.411 287.507 115.724 290.194 112.411 290.194C109.098 290.194 106.411 287.507 106.411 284.194C106.411 280.881 109.098 278.194 112.411 278.194Z" fill="#123F60"/>
  <path d="M117.577 284.08H174.093" stroke="#123F60"/>
  <path fill-rule="evenodd" clip-rule="evenodd" d="M378.092 250.194C374.779 250.194 372.092 247.507 372.092 244.194C372.092 240.881 374.779 238.194 378.092 238.194C381.405 238.194 384.092 240.881 384.092 244.194C384.092 247.507 381.405 250.194 378.092 250.194Z" fill="#123F60"/>
  <path d="M372.927 244.309H316.411" stroke="#123F60"/>
  <path fill-rule="evenodd" clip-rule="evenodd" d="M133.4 145.4L124.9 118.1L143.7 97.8L152.2 125.3L133.4 145.4Z" fill="#3D7AEE"/>
  <path fill-rule="evenodd" clip-rule="evenodd" d="M133.4 145.4L124.9 118.1L143.7 97.8L152.2 125.3L133.4 145.4Z" stroke="#123F60" stroke-linecap="round" stroke-linejoin="round"/>
  <path fill-rule="evenodd" clip-rule="evenodd" d="M133.4 145.4L105.9 139.5L97.3998 112L124.9 118.1L133.4 145.4Z" fill="white"/>
  <path fill-rule="evenodd" clip-rule="evenodd" d="M133.4 145.4L105.9 139.5L97.3998 112L124.9 118.1L133.4 145.4Z" stroke="#123F60" stroke-linecap="round" stroke-linejoin="round"/>
  <path fill-rule="evenodd" clip-rule="evenodd" d="M97.3998 112L116.1 91.6006L143.7 97.8006L124.9 118.101L97.3998 112Z" fill="#6A9DFC"/>
  <path fill-rule="evenodd" clip-rule="evenodd" d="M97.3998 112L116.1 91.6006L143.7 97.8006L124.9 118.101L97.3998 112Z" stroke="#123F60" stroke-linecap="round" stroke-linejoin="round"/>
  <path fill-rule="evenodd" clip-rule="evenodd" d="M381.8 171.7L394.199 158.6L411.1 162.7L398.6 175.801L381.8 171.7Z" fill="#3D7AEE"/>
  <path fill-rule="evenodd" clip-rule="evenodd" d="M381.8 171.7L394.199 158.6L411.1 162.7L398.6 175.801L381.8 171.7Z" stroke="#123F60" stroke-linecap="round" stroke-linejoin="round"/>
  <path fill-rule="evenodd" clip-rule="evenodd" d="M381.8 171.7L376.5 154.801L389 141.7L394.199 158.6L381.8 171.7Z" fill="#6A9DFC"/>
  <path fill-rule="evenodd" clip-rule="evenodd" d="M381.8 171.7L376.5 154.801L389 141.7L394.199 158.6L381.8 171.7Z" stroke="#123F60" stroke-linecap="round" stroke-linejoin="round"/>
  <path fill-rule="evenodd" clip-rule="evenodd" d="M389 141.7L405.899 145.7L411.1 162.7L394.199 158.6L389 141.7Z" fill="white"/>
  <path fill-rule="evenodd" clip-rule="evenodd" d="M389 141.7L405.899 145.7L411.1 162.7L394.199 158.6L389 141.7Z" stroke="#123F60" stroke-linecap="round" stroke-linejoin="round"/>
  <path fill-rule="evenodd" clip-rule="evenodd" d="M299.5 34.6002L287 21.4992L303.899 17.4992L316.3 30.4992L299.5 34.6002Z" fill="#3D7AEE"/>
  <path fill-rule="evenodd" clip-rule="evenodd" d="M299.5 34.6002L287 21.4992L303.899 17.4992L316.3 30.4992L299.5 34.6002Z" stroke="#123F60" stroke-linecap="round" stroke-linejoin="round"/>
  <path fill-rule="evenodd" clip-rule="evenodd" d="M303.9 17.4996L309.1 0.499599L321.501 13.6006L316.3 30.4996L303.9 17.4996Z" fill="#6A9DFC"/>
  <path fill-rule="evenodd" clip-rule="evenodd" d="M303.9 17.4996L309.1 0.499599L321.501 13.6006L316.3 30.4996L303.9 17.4996Z" stroke="#123F60" stroke-linecap="round" stroke-linejoin="round"/>
  <path fill-rule="evenodd" clip-rule="evenodd" d="M303.9 17.4996L287.001 21.4996L292.1 4.4996L309.1 0.499599L303.9 17.4996Z" fill="white"/>
  <path fill-rule="evenodd" clip-rule="evenodd" d="M303.9 17.4996L287.001 21.4996L292.1 4.4996L309.1 0.499599L303.9 17.4996Z" stroke="#123F60" stroke-linecap="round" stroke-linejoin="round"/>
  <path fill-rule="evenodd" clip-rule="evenodd" d="M255.75 161.375H235.391V164.13C192.37 175.853 160.138 223.916 160.138 281.458C160.138 338.999 192.37 387.062 235.391 398.785V401.54H255.75C308.557 401.54 351.364 347.777 351.364 281.458C351.364 215.138 308.557 161.375 255.75 161.375Z" fill="#6A9DFC"/>
  <path fill-rule="evenodd" clip-rule="evenodd" d="M255.75 160.375H235.391H234.391V161.375V163.37C213.443 169.298 194.432 184.08 180.793 205.066C166.828 226.555 159.137 253.684 159.137 281.458C159.137 309.231 166.828 336.36 180.793 357.849C194.432 378.835 213.443 393.616 234.391 399.545V401.54V402.54H235.391H255.75C281.601 402.54 305.889 389.916 324.142 366.992C342.341 344.135 352.364 313.758 352.364 281.458C352.364 249.157 342.341 218.78 324.142 195.923C305.889 172.999 281.601 160.375 255.75 160.375ZM255.75 161.375C308.557 161.375 351.364 215.138 351.364 281.458C351.364 347.777 308.557 401.54 255.75 401.54H235.391V398.785C192.37 387.062 160.137 338.999 160.137 281.458C160.137 223.916 192.37 175.853 235.391 164.13V161.375H255.75Z" fill="#123F60"/>
  <path fill-rule="evenodd" clip-rule="evenodd" d="M331.004 281.458C331.004 347.777 288.196 401.54 235.391 401.54C182.585 401.54 139.777 347.777 139.777 281.458C139.777 215.138 182.585 161.375 235.391 161.375C288.196 161.375 331.004 215.138 331.004 281.458Z" fill="white"/>
  <path fill-rule="evenodd" clip-rule="evenodd" d="M235.391 160.375C209.541 160.375 185.252 172.999 167 195.923C148.801 218.78 138.778 249.157 138.778 281.458C138.778 313.758 148.801 344.135 167 366.992C185.252 389.916 209.541 402.54 235.391 402.54C261.242 402.54 285.53 389.916 303.783 366.992C321.982 344.135 332.004 313.758 332.004 281.458C332.004 249.157 321.982 218.78 303.783 195.923C285.53 172.999 261.242 160.375 235.391 160.375ZM235.391 161.375C288.198 161.375 331.004 215.138 331.004 281.458C331.004 347.777 288.198 401.54 235.391 401.54C182.585 401.54 139.778 347.777 139.778 281.458C139.778 215.138 182.585 161.375 235.391 161.375Z" fill="#123F60"/>
  <path fill-rule="evenodd" clip-rule="evenodd" d="M159.871 281.434C159.871 223.868 194.906 177.028 238.624 175.277C237.782 175.243 236.943 175.193 236.095 175.193C191.204 175.193 154.812 222.759 154.812 281.434C154.812 340.11 191.204 387.676 236.095 387.676C236.943 387.676 237.782 387.626 238.624 387.592C194.906 385.841 159.871 339.001 159.871 281.434Z" fill="#6A9DFC"/>
  <path fill-rule="evenodd" clip-rule="evenodd" d="M316.691 281.458C316.691 340.146 280.292 387.721 235.391 387.721C190.491 387.721 154.092 340.146 154.092 281.458C154.092 222.77 190.491 175.194 235.391 175.194C280.292 175.194 316.691 222.77 316.691 281.458Z" stroke="#123F60"/>
  <path d="M272.134 170.045H292.455" stroke="#123F60"/>
  <path d="M308.356 203.042H328.683" stroke="#123F60"/>
  <path d="M320.752 225.437H341.145" stroke="#123F60"/>
  <path d="M329.424 257.605H349.817" stroke="#123F60"/>
  <path d="M331.21 293.303H351.733" stroke="#123F60"/>
  <path d="M324.668 326.028H345.126" stroke="#123F60"/>
  <path d="M314.72 349.355H335.047" stroke="#123F60"/>
  <path d="M301.409 369.172H321.904" stroke="#123F60"/>
  <path d="M283.992 385.52H304.184" stroke="#123F60"/>
  <path d="M260.973 397.681H281.667" stroke="#123F60"/>
  <path d="M291.623 183.527H311.568" stroke="#123F60"/>
  <path fill-rule="evenodd" clip-rule="evenodd" d="M264.725 306.683C263.064 302.044 261.434 298.044 259.836 294.677C258.246 291.331 256.518 288.531 254.654 286.271C252.801 284.029 250.693 282.322 248.33 281.152C245.991 279.991 244.19 278.752 241.694 278.752V278.283C243.724 278.283 245.562 277.147 247.775 275.91C250.006 274.663 251.985 272.973 253.705 270.834C255.437 268.684 257.029 266.038 258.483 262.897C259.944 259.738 261.434 256.051 262.954 251.831C264.482 247.589 266.176 241.884 268.034 236.447L251.505 237.964C249.758 243.554 248.145 249.366 246.666 253.677C245.195 257.967 243.589 261.586 241.854 264.542C240.128 267.481 238.157 269.722 235.946 271.274C235.357 271.687 234.729 272.044 234.066 272.352V255.601L226.677 256.049V273.742L220.275 273.916V264.759V240.823L207.205 242.023V319.61L220.275 320.453V292.229V284.204L226.677 284.161V301.693L234.066 301.891V285.124C234.88 285.421 235.659 285.762 236.36 286.197C238.615 287.596 240.608 289.774 242.336 292.734C244.076 295.71 245.765 299.579 247.405 304.345C249.053 309.141 251.046 315.709 253.39 322.581L270.441 323.681C268.3 317.513 266.396 311.354 264.725 306.683Z" fill="#6A9DFC"/>
  <path fill-rule="evenodd" clip-rule="evenodd" d="M260.725 306.683C259.064 302.044 257.434 298.044 255.836 294.677C254.246 291.331 252.518 288.531 250.654 286.271C248.801 284.029 246.693 282.322 244.33 281.152C241.991 279.991 239.164 279.245 235.87 278.904V278.434C238.921 277.988 241.562 277.147 243.775 275.91C246.006 274.663 247.985 272.973 249.705 270.834C251.437 268.684 253.029 266.038 254.483 262.897C255.944 259.738 257.434 256.051 258.954 251.831C260.482 247.589 262.176 242.752 264.034 237.314L247.505 238.832C245.758 244.421 244.145 249.366 242.666 253.677C241.195 257.967 239.589 261.586 237.854 264.542C236.128 267.481 234.157 269.722 231.946 271.274C231.357 271.687 230.729 272.044 230.066 272.352V256.348L222.677 256.797V273.742L216.275 273.916V264.759V241.699L203.205 242.899V318.857L216.275 319.7V292.229V284.204L222.677 284.161V301.107L230.066 301.306V285.124C230.88 285.421 231.659 285.762 232.36 286.197C234.615 287.596 236.608 289.774 238.336 292.734C240.076 295.71 241.765 299.579 243.405 304.345C245.053 309.141 247.046 314.962 249.39 321.834L266.441 322.934C264.3 316.766 262.396 311.354 260.725 306.683Z" fill="white"/>
  <path fill-rule="evenodd" clip-rule="evenodd" d="M260.725 306.683C259.064 302.044 257.434 298.044 255.836 294.677C254.246 291.331 252.518 288.531 250.654 286.271C248.801 284.029 246.693 282.322 244.33 281.152C241.991 279.991 239.164 279.245 235.87 278.904V278.434C238.921 277.988 241.562 277.147 243.775 275.91C246.006 274.663 247.985 272.973 249.705 270.834C251.437 268.684 253.029 266.038 254.483 262.897C255.944 259.738 257.434 256.051 258.954 251.831C260.482 247.589 262.176 242.752 264.034 237.314L247.505 238.832C245.758 244.421 244.145 249.366 242.666 253.677C241.195 257.967 239.589 261.586 237.854 264.542C236.128 267.481 234.157 269.722 231.946 271.274C231.357 271.687 230.729 272.044 230.066 272.352V256.348L222.677 256.797V273.742L216.275 273.916V264.759V241.699L203.205 242.899V318.857L216.275 319.7V292.229V284.204L222.677 284.161V301.107L230.066 301.306V285.124C230.88 285.421 231.659 285.762 232.36 286.197C234.615 287.596 236.608 289.774 238.336 292.734C240.076 295.71 241.765 299.579 243.405 304.345C245.053 309.141 247.046 314.962 249.39 321.834L266.441 322.934C264.3 316.766 262.396 311.354 260.725 306.683Z" stroke="#123F60"/>
</svg>
