<svg width="486" height="481" viewBox="0 0 486 481" fill="none" xmlns="http://www.w3.org/2000/svg">
  <path d="M292.615 198.103H41.8049" stroke="#123F60"/>
  <path fill-rule="evenodd" clip-rule="evenodd" d="M35.2223 204.797C31.5263 204.797 28.5293 201.8 28.5293 198.103C28.5293 194.405 31.5263 191.408 35.2223 191.408C38.9193 191.408 41.9163 194.405 41.9163 198.103C41.9163 201.8 38.9193 204.797 35.2223 204.797Z" fill="#123F60"/>
  <path d="M274.483 126.967V13.3893" stroke="#123F60"/>
  <path fill-rule="evenodd" clip-rule="evenodd" d="M281.177 6.69485C281.177 10.3919 278.18 13.3889 274.483 13.3889C270.785 13.3889 267.788 10.3919 267.788 6.69485C267.788 2.99785 270.785 0.000854492 274.483 0.000854492C278.18 0.000854492 281.177 2.99785 281.177 6.69485Z" fill="#123F60"/>
  <path d="M127.5 405.065H13.9216" stroke="#123F60" stroke-dasharray="9"/>
  <path fill-rule="evenodd" clip-rule="evenodd" d="M0.499603 405.065C0.499603 401.369 3.4966 398.372 7.1936 398.372C10.8916 398.372 13.8886 401.369 13.8886 405.065C13.8886 408.762 10.8916 411.759 7.1936 411.759C3.4966 411.759 0.499603 408.762 0.499603 405.065Z" stroke="#123F60"/>
  <path d="M162 211.546H433.115V155.315H471.272" stroke="#123F60" stroke-dasharray="9"/>
  <path fill-rule="evenodd" clip-rule="evenodd" d="M484.519 155.194C484.519 158.891 481.522 161.888 477.825 161.888C474.128 161.888 471.131 158.891 471.131 155.194C471.131 151.498 474.128 148.501 477.825 148.501C481.522 148.501 484.519 151.498 484.519 155.194Z" stroke="#123F60"/>
  <path fill-rule="evenodd" clip-rule="evenodd" d="M214.673 75.5826H338.627C358.599 75.5826 374.777 91.7606 374.777 111.731V429.93C374.777 449.9 358.599 466.078 338.627 466.078H214.673C194.702 466.078 178.525 449.9 178.525 429.93V111.731C178.524 91.7606 194.701 75.5826 214.673 75.5826Z" fill="#E3EBF3"/>
  <path fill-rule="evenodd" clip-rule="evenodd" d="M214.673 75.5826H338.627C358.599 75.5826 374.777 91.7606 374.777 111.731V429.93C374.777 449.9 358.599 466.078 338.627 466.078H214.673C194.702 466.078 178.525 449.9 178.525 429.93V111.731C178.524 91.7606 194.701 75.5826 214.673 75.5826Z" stroke="#123F60"/>
  <path fill-rule="evenodd" clip-rule="evenodd" d="M216.793 85.2887H336.619C352.351 85.2887 365.181 98.0077 365.181 113.851V427.921C365.181 443.652 352.462 456.483 336.619 456.483H216.793C201.061 456.483 188.231 443.764 188.231 427.921V113.851C188.231 98.0077 200.949 85.2887 216.793 85.2887Z" fill="white"/>
  <path fill-rule="evenodd" clip-rule="evenodd" d="M216.793 85.2887H336.619C352.351 85.2887 365.181 98.0077 365.181 113.851V427.921C365.181 443.652 352.462 456.483 336.619 456.483H216.793C201.061 456.483 188.231 443.764 188.231 427.921V113.851C188.231 98.0077 200.949 85.2887 216.793 85.2887Z" stroke="#123F60"/>
  <path fill-rule="evenodd" clip-rule="evenodd" d="M227.459 118.331H325.952C338.883 118.331 349.43 128.785 349.43 141.808V199.138C349.43 212.068 338.975 222.615 325.952 222.615H227.459C214.528 222.615 203.981 212.16 203.981 199.138V141.808C203.981 128.785 214.437 118.331 227.459 118.331Z" fill="#F1F7FB"/>
  <path fill-rule="evenodd" clip-rule="evenodd" d="M227.459 241.058H325.952C338.883 241.058 349.43 251.512 349.43 264.535V399.964C349.43 412.895 338.975 423.441 325.952 423.441H227.459C214.528 423.441 203.981 412.986 203.981 399.964V264.535C203.981 251.512 214.437 241.058 227.459 241.058Z" fill="#F1F7FB"/>
  <path fill-rule="evenodd" clip-rule="evenodd" d="M75.6178 248.986L75.5828 147.244C75.5918 138.923 82.4768 131.969 90.7988 131.978L246.994 131.865C255.315 131.874 262.267 138.758 262.259 147.08L262.294 248.822C262.285 257.143 255.4 264.096 247.079 264.088L90.8828 264.201C82.3168 264.282 75.5318 257.474 75.6178 248.986Z" fill="#123F60"/>
  <path fill-rule="evenodd" clip-rule="evenodd" d="M71.1549 244.523L71.1199 142.781C71.1289 134.46 78.0139 127.506 86.3359 127.515L242.531 127.402C250.852 127.411 257.804 134.296 257.797 142.617L257.831 244.359C257.822 252.68 250.937 259.633 242.616 259.625L86.4209 259.738C77.8549 259.819 71.0689 253.011 71.1549 244.523Z" fill="white"/>
  <path fill-rule="evenodd" clip-rule="evenodd" d="M71.1549 244.523L71.1199 142.781C71.1289 134.46 78.0139 127.506 86.3359 127.515L242.531 127.402C250.852 127.411 257.804 134.296 257.797 142.617L257.831 244.359C257.822 252.68 250.937 259.633 242.616 259.625L86.4209 259.738C77.8549 259.819 71.0689 253.011 71.1549 244.523Z" stroke="#162039"/>
  <path fill-rule="evenodd" clip-rule="evenodd" d="M201.029 182.636L200.953 157.017C200.943 150.92 205.907 145.917 212.004 145.907L230.125 145.799C236.22 145.789 241.223 150.754 241.233 156.85L241.309 182.469C241.319 188.565 236.355 193.568 230.258 193.578L212.137 193.686C205.875 193.618 201.039 188.732 201.029 182.636Z" fill="#6A9DFC"/>
  <path fill-rule="evenodd" clip-rule="evenodd" d="M87.3893 152.777C87.2833 149.073 90.3263 146.019 94.1973 145.991L129.127 145.977C132.831 145.872 135.884 148.915 135.912 152.786C136.019 156.49 132.976 159.543 129.105 159.572L94.1753 159.585C90.5483 159.524 87.4953 156.481 87.3893 152.777Z" fill="#FFE7C1"/>
  <path fill-rule="evenodd" clip-rule="evenodd" d="M207.998 233.184L208.042 226.097C208.072 224.285 209.594 222.757 211.484 222.621L237.85 222.689C239.662 222.719 241.189 224.241 241.326 226.131L241.282 233.218C241.251 235.031 239.73 236.558 237.84 236.695L211.475 236.626C209.661 236.596 208.135 235.075 207.998 233.184Z" fill="#FFE7C1"/>
  <path fill-rule="evenodd" clip-rule="evenodd" d="M167.962 233.261L168.006 226.175C168.036 224.362 169.558 222.835 171.448 222.698L197.814 222.766C199.626 222.796 201.153 224.318 201.29 226.209L201.246 233.295C201.216 235.109 199.694 236.635 197.804 236.772L171.439 236.704C169.458 236.596 167.932 235.074 167.962 233.261Z" fill="#FFE7C1"/>
  <path fill-rule="evenodd" clip-rule="evenodd" d="M127.758 233.261L127.802 226.174C127.832 224.361 129.354 222.834 131.244 222.698L157.61 222.766C159.422 222.796 160.949 224.318 161.086 226.208L161.042 233.294C161.012 235.108 159.49 236.634 157.6 236.771L131.235 236.703C129.254 236.596 127.728 235.074 127.758 233.261Z" fill="#FFE7C1"/>
  <path fill-rule="evenodd" clip-rule="evenodd" d="M87.5553 233.26L87.5993 226.174C87.6293 224.361 89.1513 222.834 91.0413 222.697L117.407 222.765C119.219 222.795 120.746 224.317 120.883 226.208L120.839 233.294C120.808 235.108 119.287 236.634 117.397 236.771L91.0323 236.703C89.0513 236.595 87.5253 235.073 87.5553 233.26Z" fill="#FFE7C1"/>
  <path fill-rule="evenodd" clip-rule="evenodd" d="M220.586 403.822C220.586 437.293 193.475 464.516 159.892 464.516C126.421 464.516 99.1966 437.404 99.1966 403.822C99.1966 370.239 126.31 343.128 159.892 343.128C193.362 343.128 220.586 370.35 220.586 403.822Z" fill="#F0F4F9"/>
  <path fill-rule="evenodd" clip-rule="evenodd" d="M220.586 403.822C220.586 437.293 193.475 464.516 159.892 464.516C126.421 464.516 99.1966 437.404 99.1966 403.822C99.1966 370.239 126.31 343.128 159.892 343.128C193.362 343.128 220.586 370.35 220.586 403.822Z" stroke="#123F60"/>
  <path fill-rule="evenodd" clip-rule="evenodd" d="M209.405 404.202C209.405 431.425 187.313 453.404 160.202 453.404C132.979 453.404 111 431.313 111 404.202C111 376.978 133.091 355 160.202 355C187.425 355 209.405 376.978 209.405 404.202Z" fill="white"/>
  <path fill-rule="evenodd" clip-rule="evenodd" d="M209.094 403.822C209.094 431.045 187.002 453.024 159.891 453.024C132.668 453.024 110.689 430.933 110.689 403.822C110.689 376.598 132.78 354.62 159.891 354.62C187.114 354.62 209.094 376.598 209.094 403.822Z" stroke="#123F60"/>
  <path fill-rule="evenodd" clip-rule="evenodd" d="M173.513 415.27C172.853 413.323 172.201 411.635 171.557 410.209C170.913 408.784 170.208 407.583 169.444 406.609C168.678 405.635 167.8 404.887 166.809 404.366C165.818 403.844 164.609 403.497 163.183 403.322V403.113C164.504 402.94 165.635 402.591 166.575 402.07C167.513 401.548 168.339 400.835 169.052 399.93C169.765 399.027 170.417 397.914 171.009 396.592C171.6 395.27 172.201 393.731 172.809 391.974C173.417 390.218 174.087 388.227 174.818 386H168.139C167.409 388.367 166.731 390.47 166.105 392.313C165.479 394.157 164.791 395.713 164.044 396.983C163.295 398.253 162.435 399.218 161.461 399.878C161.2 400.055 160.921 400.207 160.626 400.336V393.148H157.287V400.87H154.314V396.643V386H148V422H154.314V409.322V405.618H157.287V413.339H160.626V406.073C160.989 406.207 161.334 406.362 161.644 406.557C162.635 407.182 163.504 408.148 164.252 409.453C165 410.756 165.722 412.444 166.417 414.513C167.114 416.583 167.948 419.079 168.922 422H175.757C174.922 419.461 174.174 417.218 173.513 415.27Z" fill="#1C69FA"/>
  <path fill-rule="evenodd" clip-rule="evenodd" d="M478.524 336.636C478.524 328.707 472.097 322.281 464.169 322.281H309.281V480.946H464.169C472.097 480.946 478.524 474.519 478.524 466.59V336.636Z" fill="#123F60"/>
  <path fill-rule="evenodd" clip-rule="evenodd" d="M472.743 330.855C472.743 322.926 466.316 316.5 458.388 316.5H303.5V475.166H458.388C466.316 475.166 472.743 468.739 472.743 460.81V330.855Z" fill="white"/>
  <path fill-rule="evenodd" clip-rule="evenodd" d="M304.018 317L304 474.668L459.013 474.614V474.613L304.018 317Z" fill="#F7FBFD"/>
  <path fill-rule="evenodd" clip-rule="evenodd" d="M472.743 330.855C472.743 322.926 466.316 316.5 458.388 316.5H303.5V475.166H458.388C466.316 475.166 472.743 468.739 472.743 460.81V330.855Z" stroke="#123F60"/>
  <path fill-rule="evenodd" clip-rule="evenodd" d="M435.726 377.43H478.393C481.781 377.43 484.528 380.176 484.528 383.564V408.101C484.528 411.489 481.781 414.235 478.393 414.235H435.726C432.338 414.235 429.592 411.489 429.592 408.101V383.564C429.592 380.176 432.338 377.43 435.726 377.43Z" fill="white"/>
  <path fill-rule="evenodd" clip-rule="evenodd" d="M435.726 377.43H478.393C481.781 377.43 484.528 380.176 484.528 383.564V408.101C484.528 411.489 481.781 414.235 478.393 414.235H435.726C432.338 414.235 429.592 411.489 429.592 408.101V383.564C429.592 380.176 432.338 377.43 435.726 377.43Z" stroke="#123F60"/>
  <path fill-rule="evenodd" clip-rule="evenodd" d="M465.256 386.339C470.499 386.339 474.749 390.589 474.749 395.832C474.749 401.075 470.499 405.325 465.256 405.325C460.013 405.325 455.763 401.075 455.763 395.832C455.763 390.589 460.013 386.339 465.256 386.339Z" fill="#6A9DFC"/>
</svg>
