<svg width="322" height="287" viewBox="0 0 322 287" xmlns="http://www.w3.org/2000/svg">
  <path fill-rule="evenodd" clip-rule="evenodd" d="M155.141 0.140957L116.626 21.7925L155.141 43.444L193.657 21.7925L155.141 0.140957Z" fill="#F4F6FB"/>
  <path fill-rule="evenodd" clip-rule="evenodd" d="M155.141 43.3829V86.5502L193.657 64.8987V21.7923L155.141 43.3829Z" fill="#D5DEF1"/>
  <path fill-rule="evenodd" clip-rule="evenodd" d="M116.626 64.8982L155.141 86.5497V43.3833L116.626 21.7926V64.8982Z" fill="#E0E7F5"/>
  <path fill-rule="evenodd" clip-rule="evenodd" d="M245.733 149.879L207.217 171.531L245.733 193.182L284.248 171.531L245.733 149.879Z" fill="#F4F6FB"/>
  <path fill-rule="evenodd" clip-rule="evenodd" d="M207.218 214.636L245.733 236.288V193.121L207.218 171.531V214.636Z" fill="#E0E7F5"/>
  <path d="M135.878 54.2644L97.364 75.8543" stroke="#6D9FFC" stroke-width="2" stroke-linecap="round"/>
  <path d="M174.376 54.2644L212.89 75.8543" stroke="#CDD8EE" stroke-width="2" stroke-linecap="round"/>
  <path d="M276.467 176.791L314.965 155.174" stroke="#CDD8EE" stroke-width="2" stroke-linecap="round"/>
  <path fill-rule="evenodd" clip-rule="evenodd" d="M306.376 156.195C306.374 152.358 309.482 149.246 313.319 149.242C317.155 149.239 320.268 152.348 320.271 156.185C320.273 160.022 317.166 163.135 313.329 163.137C309.492 163.14 306.378 160.032 306.376 156.195Z" fill="white"/>
  <path fill-rule="evenodd" clip-rule="evenodd" d="M306.376 156.195C306.374 152.358 309.482 149.246 313.319 149.242C317.155 149.239 320.268 152.348 320.271 156.185C320.273 160.022 317.166 163.135 313.329 163.137C309.492 163.14 306.378 160.032 306.376 156.195Z" stroke="#CDD8EE" stroke-width="2" stroke-linecap="round"/>
  <path fill-rule="evenodd" clip-rule="evenodd" d="M245.733 50.112L207.217 71.7635L245.733 93.415L284.248 71.7635L245.733 50.112Z" fill="#F4F6FB"/>
  <path fill-rule="evenodd" clip-rule="evenodd" d="M245.733 93.354V136.521L284.248 114.87V71.7634L245.733 93.354Z" fill="#D5DEF1"/>
  <path fill-rule="evenodd" clip-rule="evenodd" d="M207.218 114.869L245.733 136.521V93.3543L207.218 71.7637V114.869Z" fill="#E0E7F5"/>
  <path d="M226.48 104.14L187.967 125.73" stroke="#CDD8EE" stroke-width="2" stroke-linecap="round"/>
  <path fill-rule="evenodd" clip-rule="evenodd" d="M155.141 99.9927L116.626 121.644L155.141 143.296L193.657 121.644L155.141 99.9927Z" fill="#F4F6FB"/>
  <path fill-rule="evenodd" clip-rule="evenodd" d="M155.141 143.235V186.402L193.657 164.75V121.644L155.141 143.235Z" fill="#D5DEF1"/>
  <path fill-rule="evenodd" clip-rule="evenodd" d="M116.626 164.75L155.141 186.401V143.235L116.626 121.645V164.75Z" fill="#E0E7F5"/>
  <path d="M135.884 154.021L97.3698 175.612" stroke="#CDD8EE" stroke-width="2" stroke-linecap="round"/>
  <path fill-rule="evenodd" clip-rule="evenodd" d="M64.5498 149.879L26.0343 171.531L64.5498 193.182L103.065 171.531L64.5498 149.879Z" fill="#F4F6FB"/>
  <path fill-rule="evenodd" clip-rule="evenodd" d="M64.5498 193.121V236.288L103.065 214.637V171.53L64.5498 193.121Z" fill="#D5DEF1"/>
  <path fill-rule="evenodd" clip-rule="evenodd" d="M26.0342 214.636L64.5497 236.288V193.121L26.0342 171.531V214.636Z" fill="#E0E7F5"/>
  <path d="M83.8079 203.91L122.322 225.501" stroke="#CDD8EE" stroke-width="2" stroke-linecap="round"/>
  <path d="M226.457 203.921L187.943 225.51" stroke="#CDD8EE" stroke-width="2" stroke-linecap="round"/>
  <path fill-rule="evenodd" clip-rule="evenodd" d="M155.141 199.758L116.626 221.409L155.141 243.061L193.657 221.409L155.141 199.758Z" fill="#F4F6FB"/>
  <path fill-rule="evenodd" clip-rule="evenodd" d="M155.141 243V286.166L193.657 264.516V221.409L155.141 243Z" fill="#D5DEF1"/>
  <path fill-rule="evenodd" clip-rule="evenodd" d="M116.626 264.516L155.141 286.166V243L116.626 221.41V264.516Z" fill="#E0E7F5"/>
  <path fill-rule="evenodd" clip-rule="evenodd" d="M245.733 193.121V236.288L284.248 214.637V171.53L245.733 193.121Z" fill="#D5DEF1"/>
  <path fill-rule="evenodd" clip-rule="evenodd" d="M64.5498 50.112L26.0343 71.7635L64.5498 93.415L103.065 71.7635L64.5498 50.112Z" fill="#C1D6FB"/>
  <path fill-rule="evenodd" clip-rule="evenodd" d="M64.5551 74.9268L49.3903 83.4517L64.5551 91.9766L79.72 83.4517L64.5551 74.9268Z" fill="#1A63E9"/>
  <path fill-rule="evenodd" clip-rule="evenodd" d="M64.5498 93.354V136.521L103.065 114.87V71.7634L64.5498 93.354Z" fill="#6196F9"/>
  <path fill-rule="evenodd" clip-rule="evenodd" d="M65 92.5983L65.0152 108.811L79.8176 100.577V84.2927L65 92.5983Z" fill="#1A63E9"/>
  <path fill-rule="evenodd" clip-rule="evenodd" d="M26.0342 114.869L64.5497 136.521V93.3543L26.0342 71.7637V114.869Z" fill="#83ADFB"/>
  <path fill-rule="evenodd" clip-rule="evenodd" d="M49.3903 100.555L63.9198 108.722V92.4377L49.3903 84.2927V100.555Z" fill="#1A63E9"/>
  <path fill-rule="evenodd" clip-rule="evenodd" d="M74.705 99.0006C74.575 98.5164 74.4465 98.1054 74.3198 97.7677C74.1931 97.4304 74.0546 97.1635 73.904 96.9671C73.7532 96.7712 73.5806 96.6512 73.3854 96.6077C73.1901 96.5641 72.9522 96.5929 72.6715 96.6943V96.635C72.9316 96.4458 73.1542 96.2271 73.339 95.9793C73.524 95.7319 73.6866 95.4417 73.8268 95.1091C73.9673 94.7765 74.0956 94.3908 74.212 93.9522C74.3285 93.5139 74.4465 93.0127 74.5663 92.4485C74.686 91.8847 74.8182 91.2472 74.9619 90.5366L73.6472 91.2429C73.5034 91.9933 73.3699 92.6635 73.2467 93.2539C73.1236 93.8445 72.9882 94.3599 72.8409 94.7998C72.6937 95.2406 72.5242 95.6059 72.3326 95.8969C72.2812 95.9745 72.2265 96.047 72.1683 96.1152V94.0705L71.5111 94.4238V96.6203L70.9254 96.9347V95.7323V92.705L69.683 93.3725V103.613L70.9254 102.945V99.3388V98.2852L71.5111 97.9708V100.167L72.1683 99.8142V97.7472C72.2396 97.7472 72.3077 97.7543 72.3686 97.7773C72.5637 97.8504 72.735 98.033 72.8822 98.3251C73.0294 98.617 73.1711 99.0203 73.3081 99.5355C73.4452 100.051 73.6094 100.672 73.8012 101.401L75.1464 100.678C74.9824 100.044 74.8348 99.4849 74.705 99.0006Z" fill="#E5EEFE" fill-opacity="0.6"/>
  <path fill-rule="evenodd" clip-rule="evenodd" d="M59.279 101.297C59.1605 100.689 59.0419 100.154 58.9232 99.6925C58.8043 99.2309 58.6714 98.8253 58.5243 98.4761C58.3776 98.1265 58.2059 97.828 58.0098 97.5804C57.8135 97.3328 57.572 97.1103 57.2856 96.9134L57.2871 96.8553C57.5551 96.9453 57.7865 96.967 57.9801 96.9206C58.174 96.8743 58.3462 96.7634 58.4977 96.5874C58.6487 96.4117 58.789 96.1717 58.9186 95.8677C59.0485 95.5637 59.1816 95.2002 59.3185 94.7777C59.4547 94.3556 59.6057 93.8743 59.7707 93.3346L58.422 92.6378C58.2558 93.2165 58.1025 93.7274 57.9615 94.172C57.8209 94.617 57.6699 94.9758 57.5087 95.2494C57.3477 95.5228 57.1662 95.6997 56.9646 95.7808C56.9104 95.8029 56.8528 95.8155 56.7922 95.8206L56.8483 93.8318L56.1739 93.4834L56.1136 95.6198L55.513 95.3095C55.5292 94.7371 55.5427 94.2554 55.5462 94.1403L55.6292 91.1955L54.3538 90.5366L54.0731 100.497L55.3481 101.156L55.4468 97.6485C55.4497 97.5545 55.4617 97.1384 55.4759 96.6233L56.0765 96.9334L56.0164 99.0702L56.6908 99.4186L56.7474 97.4078C56.8198 97.4826 56.8884 97.5615 56.949 97.648C57.1446 97.9246 57.3127 98.2822 57.4536 98.7211C57.5946 99.1599 57.727 99.7022 57.8513 100.347C57.9757 100.993 58.1249 101.77 58.2987 102.68L59.6796 103.393C59.5309 102.604 59.3971 101.905 59.279 101.297Z" fill="#E5EEFE" fill-opacity="0.6"/>
  <path fill-rule="evenodd" clip-rule="evenodd" d="M70.4388 83.6312C69.841 83.4562 69.3053 83.3149 68.8321 83.207C68.3585 83.0989 67.9241 83.028 67.528 82.9944C67.132 82.9611 66.7628 82.9717 66.4207 83.0257C66.0792 83.0802 65.7288 83.1846 65.3704 83.3385L65.3218 83.311C65.5769 83.1239 65.7488 82.9376 65.8376 82.752C65.927 82.5669 65.9463 82.3705 65.8963 82.1627C65.8467 81.9548 65.7348 81.7271 65.5614 81.4793C65.3876 81.2316 65.1657 80.9541 64.8953 80.6468C64.6251 80.34 64.3145 79.9941 63.9625 79.6098L62.4717 80.439C62.8558 80.8418 63.1907 81.2034 63.4772 81.5243C63.7638 81.8449 63.9701 82.1356 64.0968 82.396C64.2232 82.6563 64.2542 82.8903 64.1895 83.0984C64.1723 83.1542 64.1449 83.2085 64.109 83.2625L62.4472 82.3146L61.7014 82.7295L63.487 83.7474L62.8232 84.1165C62.345 83.8441 61.9422 83.6143 61.846 83.5595L59.3849 82.1561L57.9756 82.9401L66.2995 87.6867L67.7089 86.9027L64.7774 85.2311C64.6991 85.1866 64.3516 84.9881 63.9209 84.7427L64.5848 84.3736L66.3702 85.3917L67.116 84.9768L65.4352 84.0186C65.5477 83.9917 65.6604 83.969 65.7746 83.9564C66.1406 83.9157 66.5578 83.9349 67.0264 84.014C67.4947 84.093 68.0461 84.2261 68.6799 84.4124C69.3139 84.5991 70.0772 84.8245 70.9703 85.0887L72.4958 84.2398C71.7228 84.0089 71.0368 83.8057 70.4388 83.6312Z" fill="#E5EEFE"/>
  <path fill-rule="evenodd" clip-rule="evenodd" d="M64.5497 135.803H65.3302V92.889H64.5497V135.803Z" fill="url(#paint0_linear)"/>
  <path fill-rule="evenodd" clip-rule="evenodd" d="M63.7692 135.803H64.5497V92.889H63.7692V135.803Z" fill="url(#paint1_linear)"/>
  <path d="M45.2927 104.143L6.79431 125.761" stroke="#6D9FFC" stroke-width="2" stroke-linecap="round"/>
  <path fill-rule="evenodd" clip-rule="evenodd" d="M15.3833 124.739C15.3856 128.576 12.2777 131.689 8.44087 131.692C4.60399 131.695 1.4914 128.586 1.48828 124.749C1.48594 120.913 4.59384 117.799 8.43072 117.797C12.2676 117.795 15.381 120.902 15.3833 124.739Z" fill="white"/>
  <path fill-rule="evenodd" clip-rule="evenodd" d="M15.3833 124.739C15.3856 128.576 12.2777 131.689 8.44087 131.692C4.60399 131.695 1.4914 128.586 1.48828 124.749C1.48594 120.913 4.59384 117.799 8.43072 117.797C12.2676 117.795 15.381 120.902 15.3833 124.739Z" stroke="#6D9FFC" stroke-width="2" stroke-linecap="square"/>
  <path fill-rule="evenodd" clip-rule="evenodd" d="M63.7878 91.9914L64.5504 93.3534L103.064 71.7627L101.47 70.8667L63.7878 91.9914Z" fill="url(#paint2_linear)"/>
  <path fill-rule="evenodd" clip-rule="evenodd" d="M26.0372 71.7627L64.5504 93.3534L65.3129 91.9914L27.6302 70.8667L26.0372 71.7627Z" fill="url(#paint3_linear)"/>
  <defs>
    <linearGradient id="paint0_linear" x1="64.5497" y1="92.889" x2="64.5497" y2="135.803" gradientUnits="userSpaceOnUse">
      <stop stop-color="white"/>
      <stop offset="1" stop-color="#6196F9"/>
    </linearGradient>
    <linearGradient id="paint1_linear" x1="64.5396" y1="135.7" x2="64.5396" y2="93.8904" gradientUnits="userSpaceOnUse">
      <stop stop-color="#83ADFB"/>
      <stop offset="1" stop-color="white"/>
    </linearGradient>
    <linearGradient id="paint2_linear" x1="82.7912" y1="103.634" x2="102.195" y2="70.8587" gradientUnits="userSpaceOnUse">
      <stop stop-color="white"/>
      <stop offset="1" stop-color="#C1D6FB"/>
    </linearGradient>
    <linearGradient id="paint3_linear" x1="83.6712" y1="81.5151" x2="64.2678" y2="48.74" gradientUnits="userSpaceOnUse">
      <stop stop-color="white"/>
      <stop offset="1" stop-color="#C1D6FB"/>
    </linearGradient>
  </defs>
</svg>
