<?xml version="1.0" encoding="UTF-8"?>
<svg version="1.1" xmlns="http://www.w3.org/2000/svg" xmlns:xlink="http://www.w3.org/1999/xlink">
<defs>

</defs>
<symbol id="i-coins" viewBox="0 0 57 53" xmlns="http://www.w3.org/2000/svg"><path fill-rule="evenodd" clip-rule="evenodd" d="M19.707 17.803c-8.367 0-15.173 6.807-15.173 15.173 0 8.367 6.806 15.174 15.173 15.174 8.366 0 15.173-6.807 15.173-15.174 0-8.366-6.807-15.173-15.173-15.173z" fill="#CADDFF"/><path fill-rule="evenodd" clip-rule="evenodd" d="M19.707 24.831c-4.492 0-8.145 3.654-8.145 8.145s3.653 8.145 8.145 8.145c4.491 0 8.145-3.654 8.145-8.145 0-4.49-3.654-8.145-8.145-8.145z" fill="#4585FB"/><path fill-rule="evenodd" clip-rule="evenodd" d="M19.707 15.511c-9.63 0-17.467 7.834-17.467 17.465s7.836 17.467 17.467 17.467c9.63 0 17.465-7.836 17.465-17.467 0-9.631-7.835-17.465-17.465-17.465zm0 37.171C8.84 52.682 0 43.843 0 32.976 0 22.111 8.84 13.27 19.707 13.27c10.865 0 19.706 8.841 19.706 19.706 0 10.867-8.84 19.706-19.706 19.706z" fill="#6D9FFC"/><path fill-rule="evenodd" clip-rule="evenodd" d="M18.101 37.178l.61-.61-.99-.995h4.582a.866.866 0 00.866-.866v-1.298h-.866v1.298h-4.582l.99-.991-.61-.61-1.73 1.731a.432.432 0 000 .61l1.73 1.731zM17.111 31.246h4.582l-.99.99.61.61 1.73-1.73a.432.432 0 000-.61l-1.73-1.731-.615.614.995.99h-4.582a.865.865 0 00-.866.867v1.298h.866v-1.298z" fill="#E5EEFE"/><path fill-rule="evenodd" clip-rule="evenodd" d="M36.295 4.532c-6.143 0-11.443 3.671-13.828 8.932 9.564 1.348 16.946 9.583 16.946 19.512 0 .537-.022 1.069-.064 1.596 6.907-1.42 12.119-7.546 12.119-14.867 0-8.365-6.806-15.173-15.173-15.173z" fill="#CADDFF"/><path fill-rule="evenodd" clip-rule="evenodd" d="M36.295 0c-8.653 0-16.02 5.607-18.662 13.38a19.47 19.47 0 012.425-.105C22.624 6.818 28.934 2.24 36.295 2.24c9.63 0 17.465 7.834 17.465 17.466 0 8.707-6.406 15.946-14.753 17.254a19.519 19.519 0 01-.636 2.342C48.265 38.262 56 29.87 56 19.706 56.002 8.84 47.162 0 36.296 0z" fill="#6D9FFC"/><path fill-rule="evenodd" clip-rule="evenodd" d="M36.005 13.338c-2.651 0-4.934 1.492-6.005 3.645 3.42 2.079 6.043 5.253 7.317 9.017 3.048-.584 5.346-3.168 5.346-6.268 0-3.531-2.981-6.394-6.658-6.394z" fill="#4585FB"/></symbol>
<symbol id="i-full-control" viewBox="0 0 58 58" xmlns="http://www.w3.org/2000/svg"><circle cx="29" cy="29" r="29" fill="#E5EEFE"/><path fill-rule="evenodd" clip-rule="evenodd" d="M29.202 34.226l1.98 1.847a4.07 4.07 0 005.746-.2L46.63 25.47a4.07 4.07 0 00-.202-5.746l-8.917-8.316a4.069 4.069 0 00-5.745.201l-9.701 10.404a4.069 4.069 0 00.2 5.745l1.982 1.848" fill="#6D9FFC"/><path fill-rule="evenodd" clip-rule="evenodd" d="M28.21 33.302l-2.972-2.772-.99-.924-1.849 1.982a.673.673 0 00-.182.485l.077 2.196-2.195.076a.673.673 0 00-.472.216l-.923.99a.672.672 0 00-.183.485l.06 1.718-1.716.06a.672.672 0 00-.471.214l-3.234 3.468a.673.673 0 00-.176.56l.63 4.292a.676.676 0 00.789.569l3.334-.596a.672.672 0 00.377-.205L29.2 34.226l-.99-.924z" fill="#4585FB"/><path fill-rule="evenodd" clip-rule="evenodd" d="M35.168 12.928a.678.678 0 11-.925.992.678.678 0 01.925-.992zM45.077 22.168a.677.677 0 11-.924.99.677.677 0 01.924-.99zM24.542 24.323a.677.677 0 11-.923.991.677.677 0 01.923-.99zM34.45 33.563a.676.676 0 11-.923.991.677.677 0 11.923-.99z" fill="#1A63E9"/><path fill-rule="evenodd" clip-rule="evenodd" d="M34.5 18A5.5 5.5 0 1134.499 29 5.5 5.5 0 0134.5 18z" fill="#0F3A8A"/><path fill-rule="evenodd" clip-rule="evenodd" d="M36.467 25.243a9.017 9.017 0 00-.303-.782 2.742 2.742 0 00-.326-.557 1.293 1.293 0 00-.409-.348 1.622 1.622 0 00-.56-.16v-.033c.204-.027.379-.08.524-.161.145-.082.273-.192.384-.331.11-.141.21-.313.301-.517.093-.205.185-.442.28-.714.093-.272.198-.581.311-.925h-1.034c-.112.366-.218.692-.314.977a3.876 3.876 0 01-.32.722c-.115.197-.25.347-.399.448a.915.915 0 01-.128.071v-1.112h-.517v1.195h-.461v-2.301h-.976v5.57h.976v-2.534h.46v1.194h.518v-1.124c.055.021.109.044.157.075.153.097.287.246.402.448.117.2.228.463.336.783.108.32.236.706.387 1.158h1.058a142.3 142.3 0 00-.347-1.042z" fill="#E5EEFE"/></symbol>
<symbol id="i-liberty" viewBox="0 0 52 54" xmlns="http://www.w3.org/2000/svg"><path fill-rule="evenodd" clip-rule="evenodd" d="M38.814 35.007c0 .647-.525 1.172-1.172 1.172H14.208a1.172 1.172 0 01-1.172-1.172V18.603c0-.647.525-1.172 1.172-1.172h23.434c.647 0 1.172.525 1.172 1.172v16.404zm9.613-33.835H3.422a2.25 2.25 0 00-2.25 2.25v16.502c0 23.632 20.057 31.46 24.062 32.789.448.154.934.154 1.382 0 4.005-1.328 24.062-9.157 24.062-32.79V3.423a2.25 2.25 0 00-2.251-2.25z" fill="#DEE9FE"/><path fill-rule="evenodd" clip-rule="evenodd" d="M3.422 2.343a1.08 1.08 0 00-1.079 1.08v16.501c0 22.81 19.375 30.39 23.26 31.677a.965.965 0 00.631.004c3.896-1.292 23.271-8.87 23.271-31.68V3.421a1.08 1.08 0 00-1.078-1.079H3.422zM25.928 54c-.363 0-.729-.06-1.076-.179C20.713 52.448 0 44.344 0 19.924V3.422A3.426 3.426 0 013.422 0h45.005a3.426 3.426 0 013.422 3.422v16.502c0 24.42-20.713 32.524-24.865 33.901a3.258 3.258 0 01-1.056.175z" fill="#6A9DFC"/><path fill-rule="evenodd" clip-rule="evenodd" d="M25.925 27.977a2.93 2.93 0 110-5.859 2.93 2.93 0 010 5.859zm11.717-10.545H14.208c-.647 0-1.172.524-1.172 1.17v16.405c0 .648.525 1.172 1.172 1.172h23.434c.647 0 1.172-.524 1.172-1.172V18.603c0-.647-.525-1.171-1.172-1.171z" fill="#fff"/><path fill-rule="evenodd" clip-rule="evenodd" d="M25.925 26.805a1.76 1.76 0 01-1.758-1.757c0-.97.789-1.758 1.758-1.758a1.76 1.76 0 011.758 1.758 1.76 1.76 0 01-1.758 1.757zm0-5.858a4.105 4.105 0 00-4.101 4.1 4.105 4.105 0 002.929 3.929v2.516a1.172 1.172 0 002.344 0v-2.516a4.105 4.105 0 002.929-3.928 4.105 4.105 0 00-4.101-4.101z" fill="#344564"/><path fill-rule="evenodd" clip-rule="evenodd" d="M37.642 35.007H14.207l-.001-16.404h23.436v16.404zm-15.818-22.85a4.105 4.105 0 014.1-4.1 4.106 4.106 0 014.102 4.1v4.102h-8.202v-4.101zm15.818 4.102h-5.273v-4.101a6.452 6.452 0 00-6.444-6.444 6.452 6.452 0 00-6.445 6.444v4.1h-5.273a2.346 2.346 0 00-2.343 2.345v16.404a2.346 2.346 0 002.343 2.344h23.435a2.346 2.346 0 002.343-2.344V18.603a2.346 2.346 0 00-2.343-2.344z" fill="#344564"/></symbol>
<symbol id="i-no-intermediaries" viewBox="0 0 54 54" xmlns="http://www.w3.org/2000/svg"><path fill-rule="evenodd" clip-rule="evenodd" d="M31.455 5.274a4.697 4.697 0 11-9.394 0 4.697 4.697 0 019.394 0zM9.888 27.342a4.697 4.697 0 11-9.394 0 4.697 4.697 0 019.394 0zM53.247 27.342a4.697 4.697 0 11-9.394 0 4.697 4.697 0 019.394 0zM31.455 49.04a4.697 4.697 0 11-9.394 0 4.697 4.697 0 019.394 0z" fill="#DEE9FE"/><path fill="#fff" d="M17 25h19v9H17z"/><path fill-rule="evenodd" clip-rule="evenodd" d="M13.574 24.046h26.37l-13.185-8.79-13.185 8.79z" fill="#DEE9FE"/><path fill-rule="evenodd" clip-rule="evenodd" d="M26.76 16.577l9.555 6.37H17.203l9.556-6.37zm4.394 17.358h4.395v-8.79h-4.395v8.79zm-6.593 0h4.395v-8.79h-4.395v8.79zm-6.592 0h4.395v-8.79H17.97v8.79zm-4.395 0a1.099 1.099 0 100 2.197h26.37a1.099 1.099 0 000-2.197h-2.198v-8.79h2.198a1.099 1.099 0 00.61-2.013l-13.186-8.79a1.099 1.099 0 00-1.219 0l-13.184 8.79a1.098 1.098 0 00.61 2.013h2.197v8.79h-2.198z" fill="#2C3E5E"/><path fill-rule="evenodd" clip-rule="evenodd" d="M42.14 38.33H11.378a1.099 1.099 0 100 2.197H42.14a1.099 1.099 0 100-2.198z" fill="#344564"/><path fill-rule="evenodd" clip-rule="evenodd" d="M26.759 2.197a3.08 3.08 0 00-3.077 3.077 3.08 3.08 0 003.077 3.077 3.081 3.081 0 003.077-3.077 3.08 3.08 0 00-3.077-3.077zm0 8.351a5.28 5.28 0 01-5.274-5.274A5.28 5.28 0 0126.759 0a5.28 5.28 0 015.274 5.274 5.28 5.28 0 01-5.274 5.274zM26.759 46.277a2.766 2.766 0 00-2.763 2.763 2.766 2.766 0 002.763 2.762 2.766 2.766 0 002.763-2.762 2.766 2.766 0 00-2.763-2.763zm0 7.723a4.966 4.966 0 01-4.96-4.96 4.966 4.966 0 014.96-4.96 4.966 4.966 0 014.96 4.96 4.966 4.966 0 01-4.96 4.96zM5.19 24.349a2.997 2.997 0 00-2.992 2.994 2.997 2.997 0 002.993 2.993 2.997 2.997 0 002.994-2.993 2.997 2.997 0 00-2.994-2.994zm0 8.184A5.197 5.197 0 010 27.343a5.197 5.197 0 015.19-5.191 5.197 5.197 0 015.192 5.19 5.197 5.197 0 01-5.191 5.19zM48.55 24.243c-1.71 0-3.1 1.39-3.1 3.1a3.103 3.103 0 003.1 3.099c1.709 0 3.1-1.39 3.1-3.1 0-1.71-1.391-3.1-3.1-3.1zm0 8.396a5.302 5.302 0 01-5.297-5.296 5.304 5.304 0 015.297-5.298 5.304 5.304 0 015.297 5.298 5.302 5.302 0 01-5.297 5.296z" fill="#6A9DFC"/></symbol>
<symbol id="i-no-intermediates" viewBox="0 0 58 58" xmlns="http://www.w3.org/2000/svg"><circle cx="29" cy="29" r="29" fill="#E5EEFE"/><path fill-rule="evenodd" clip-rule="evenodd" d="M47 42c0 .644-.522 1.167-1.166 1.167H13.167a1.167 1.167 0 010-2.334h32.667c.644 0 1.166.522 1.166 1.167z" fill="#1A63E9"/><path fill-rule="evenodd" clip-rule="evenodd" d="M13.21 24.818a1.165 1.165 0 01.513-1.312l15.166-9.333c.375-.23.847-.23 1.222 0l15.167 9.333a1.166 1.166 0 01-.611 2.161h-3.5v10.5H43.5a1.166 1.166 0 110 2.333h-28a1.166 1.166 0 010-2.333h2.334v-10.5h-3.5c-.522 0-.98-.347-1.123-.849z" fill="#6D9FFC"/><path fill-rule="evenodd" clip-rule="evenodd" d="M31.834 33.833a1.166 1.166 0 102.333 0v-7a1.167 1.167 0 00-2.333 0v7zM24.834 33.833a1.166 1.166 0 102.333 0v-7a1.167 1.167 0 00-2.333 0v7z" fill="#0F3A8A"/></symbol>
<symbol id="i-openness" viewBox="0 0 73 56" xmlns="http://www.w3.org/2000/svg"><path fill-rule="evenodd" clip-rule="evenodd" d="M12.653 55.664h6.889V7.724h-6.89v47.94zM52.286 55.664h6.888V7.724h-6.888v47.94z" fill="#0F3A8A"/><path fill-rule="evenodd" clip-rule="evenodd" d="M0 40.15h71.827V12.58H0v27.57z" fill="#4585FB"/><path fill-rule="evenodd" clip-rule="evenodd" d="M18.305 26.726L17 23.026h-1.067l-1.304 3.7-1.227-3.7h-1.54l2.214 6.679h1.07l1.316-3.765 1.326 3.765h1.069l2.214-6.68h-1.54l-1.227 3.701zM23.548 26.826h1.965v-1.378h-1.965v-1.044h2.605v-1.378h-4.12v6.678h4.211v-1.378h-2.696v-1.5zM29.05 23.026h-1.516v6.678h4.21v-1.378H29.05v-5.3zM37.56 27.586c-.24.31-.78.832-1.697.832-1.165 0-2.043-.883-2.043-2.053 0-1.15.873-2.053 1.989-2.053.539 0 1.056.22 1.453.617l.102.103.99-1.047-.1-.097c-.635-.615-1.5-.954-2.437-.954-2.002 0-3.512 1.476-3.512 3.431 0 1.956 1.517 3.43 3.53 3.43 1.14 0 2.16-.465 2.798-1.278l.081-.104-1.06-.947-.093.12zM42.744 28.418c-1.1 0-1.961-.901-1.961-2.053 0-1.151.861-2.052 1.96-2.052 1.1 0 1.962.9 1.962 2.052 0 1.152-.861 2.053-1.961 2.053zm0-5.483c-1.982 0-3.476 1.474-3.476 3.43 0 1.956 1.494 3.43 3.476 3.43 1.981 0 3.475-1.475 3.475-3.43 0-1.956-1.494-3.43-3.475-3.43zM50.758 26.725l-2.251-3.7h-1.088v6.68h1.515v-3.206l1.316 2.154h1.017l1.315-2.154v3.206h1.514v-6.68H53.01l-2.251 3.7zM57.268 28.326v-1.5h1.965v-1.378h-1.965v-1.044h2.604v-1.378h-4.12v6.678h4.212v-1.378h-2.696z" fill="#fff"/></symbol>
<symbol id="i-privacy" viewBox="0 0 46 56" xmlns="http://www.w3.org/2000/svg"><path fill-rule="evenodd" clip-rule="evenodd" d="M35.193 55.166H2.45A2.45 2.45 0 010 52.717V8.45A2.45 2.45 0 012.45 6h32.743a2.45 2.45 0 012.45 2.45v44.268a2.45 2.45 0 01-2.45 2.45z" fill="#E5EEFE"/><path fill-rule="evenodd" clip-rule="evenodd" d="M6.7 13.611h4.194a.732.732 0 100-1.465H6.701a.732.732 0 000 1.465zM9.568 18.223h6.583a.733.733 0 100-1.464H9.568a.732.732 0 000 1.464zM19.126 18.223h9.45a.731.731 0 100-1.465h-9.45a.732.732 0 000 1.465zM7.136 43.318h6.582a.731.731 0 100-1.463H7.136a.732.732 0 100 1.463zM16.693 43.318h9.45a.732.732 0 100-1.463h-9.45a.731.731 0 100 1.463zM8.612 37.554h4.193a.731.731 0 100-1.463H8.612a.731.731 0 100 1.463zM16.259 37.554h14.228a.732.732 0 100-1.463H16.26a.731.731 0 100 1.463zM11.957 23.002h6.583a.732.732 0 100-1.464h-6.583a.731.731 0 100 1.464zM21.515 23.002h6.583a.731.731 0 100-1.464h-6.583a.731.731 0 100 1.464zM26.206 13.611h1.804a.732.732 0 100-1.465h-1.804a.732.732 0 000 1.465zM6.7 23.002h1.804a.731.731 0 100-1.464H6.701a.731.731 0 100 1.464zM13.826 13.645h9.904a.732.732 0 100-1.464h-9.904a.732.732 0 100 1.464zM7.981 48.382h4.193a.731.731 0 100-1.465H7.981a.732.732 0 000 1.465zM27.486 48.382h1.804a.732.732 0 100-1.465h-1.804a.732.732 0 000 1.465zM15.107 48.415h9.904a.732.732 0 100-1.464h-9.904a.732.732 0 100 1.464zM9.826 27.82h16.117a.732.732 0 100-1.464H9.826a.731.731 0 100 1.464zM6.481 32.6h21.852a.732.732 0 100-1.465H6.481a.732.732 0 100 1.464z" fill="#4585FB"/><path fill-rule="evenodd" clip-rule="evenodd" d="M45.99 3.499v6.275A16.247 16.247 0 0135.634 24.85a.388.388 0 01-.278 0A16.25 16.25 0 0125 9.774V3.499c0-.215.174-.39.389-.39 4.626 0 7.54-1.687 9.473-2.804.155-.09.3-.174.442-.254a.387.387 0 01.383 0c.14.078.287.165.442.254 1.931 1.117 4.846 2.805 9.472 2.805.215 0 .389.174.389.389z" fill="#1A63E9"/><path fill-rule="evenodd" clip-rule="evenodd" d="M37.643 11.712l-2.538 2.423a.348.348 0 01-.48 0l-1.268-1.211a.346.346 0 01.479-.501l1.029.983 2.3-2.195a.346.346 0 01.478.501zM35.501 8a4.5 4.5 0 100 9 4.5 4.5 0 100-9z" fill="#fff"/></symbol>
<symbol id="i-security" viewBox="0 0 58 58" xmlns="http://www.w3.org/2000/svg"><circle cx="29" cy="29" r="29" fill="#E5EEFE"/><path fill-rule="evenodd" clip-rule="evenodd" d="M28.65 23.653H36c.36-5.789-2.273-9.797-7.348-9.92V10c7.672.049 11.37 6.522 11.315 13.653h.516c1.001 0 1.82.818 1.82 1.82v17.24c0 1-.819 1.82-1.82 1.82H28.65v-20.88z" fill="#4585FB"/><path fill-rule="evenodd" clip-rule="evenodd" d="M28.65 23.653h-7.347c-.36-5.789 2.271-9.797 7.348-9.92V10c-7.672.049-11.37 6.522-11.315 13.653h-.516c-1.002 0-1.82.818-1.82 1.82v17.24c0 1 .819 1.82 1.82 1.82h11.83v-20.88z" fill="#6D9FFC"/><circle cx="29.019" cy="34.019" r="5.019" fill="#fff"/><path fill-rule="evenodd" clip-rule="evenodd" d="M32.056 33.061l-3.46 3.303a.475.475 0 01-.654 0l-1.73-1.651a.472.472 0 01.653-.683l1.403 1.34 3.135-2.992a.472.472 0 01.653.683zM29.135 28A6.134 6.134 0 0023 34.135a6.134 6.134 0 1012.27 0A6.142 6.142 0 0029.134 28z" fill="#0F3A8A"/></symbol>
</svg>