<?xml version="1.0" encoding="UTF-8"?>
<svg version="1.1" xmlns="http://www.w3.org/2000/svg" xmlns:xlink="http://www.w3.org/1999/xlink">
<defs>

</defs>
<symbol id="i-liberty" viewBox="0 0 52 54" xmlns="http://www.w3.org/2000/svg"><path fill-rule="evenodd" clip-rule="evenodd" d="M38.814 35.007c0 .647-.525 1.172-1.172 1.172H14.208a1.172 1.172 0 01-1.172-1.172V18.603c0-.647.525-1.172 1.172-1.172h23.434c.647 0 1.172.525 1.172 1.172v16.404zm9.613-33.835H3.422a2.25 2.25 0 00-2.25 2.25v16.502c0 23.632 20.057 31.46 24.062 32.789.448.154.934.154 1.382 0 4.005-1.328 24.062-9.157 24.062-32.79V3.423a2.25 2.25 0 00-2.251-2.25z" fill="#DEE9FE"/><path fill-rule="evenodd" clip-rule="evenodd" d="M3.422 2.343a1.08 1.08 0 00-1.079 1.08v16.501c0 22.81 19.375 30.39 23.26 31.677a.965.965 0 00.631.004c3.896-1.292 23.271-8.87 23.271-31.68V3.421a1.08 1.08 0 00-1.078-1.079H3.422zM25.928 54c-.363 0-.729-.06-1.076-.179C20.713 52.448 0 44.344 0 19.924V3.422A3.426 3.426 0 013.422 0h45.005a3.426 3.426 0 013.422 3.422v16.502c0 24.42-20.713 32.524-24.865 33.901a3.258 3.258 0 01-1.056.175z" fill="#6A9DFC"/><path fill-rule="evenodd" clip-rule="evenodd" d="M25.925 27.977a2.93 2.93 0 110-5.859 2.93 2.93 0 010 5.859zm11.717-10.545H14.208c-.647 0-1.172.524-1.172 1.17v16.405c0 .648.525 1.172 1.172 1.172h23.434c.647 0 1.172-.524 1.172-1.172V18.603c0-.647-.525-1.171-1.172-1.171z" fill="#fff"/><path fill-rule="evenodd" clip-rule="evenodd" d="M25.925 26.805a1.76 1.76 0 01-1.758-1.757c0-.97.789-1.758 1.758-1.758a1.76 1.76 0 011.758 1.758 1.76 1.76 0 01-1.758 1.757zm0-5.858a4.105 4.105 0 00-4.101 4.1 4.105 4.105 0 002.929 3.929v2.516a1.172 1.172 0 002.344 0v-2.516a4.105 4.105 0 002.929-3.928 4.105 4.105 0 00-4.101-4.101z" fill="#344564"/><path fill-rule="evenodd" clip-rule="evenodd" d="M37.642 35.007H14.207l-.001-16.404h23.436v16.404zm-15.818-22.85a4.105 4.105 0 014.1-4.1 4.106 4.106 0 014.102 4.1v4.102h-8.202v-4.101zm15.818 4.102h-5.273v-4.101a6.452 6.452 0 00-6.444-6.444 6.452 6.452 0 00-6.445 6.444v4.1h-5.273a2.346 2.346 0 00-2.343 2.345v16.404a2.346 2.346 0 002.343 2.344h23.435a2.346 2.346 0 002.343-2.344V18.603a2.346 2.346 0 00-2.343-2.344z" fill="#344564"/></symbol>
<symbol id="i-no-intermediaries" viewBox="0 0 54 54" xmlns="http://www.w3.org/2000/svg"><path fill-rule="evenodd" clip-rule="evenodd" d="M31.455 5.274a4.697 4.697 0 11-9.394 0 4.697 4.697 0 019.394 0zM9.888 27.342a4.697 4.697 0 11-9.394 0 4.697 4.697 0 019.394 0zM53.247 27.342a4.697 4.697 0 11-9.394 0 4.697 4.697 0 019.394 0zM31.455 49.04a4.697 4.697 0 11-9.394 0 4.697 4.697 0 019.394 0z" fill="#DEE9FE"/><path fill="#fff" d="M17 25h19v9H17z"/><path fill-rule="evenodd" clip-rule="evenodd" d="M13.574 24.046h26.37l-13.185-8.79-13.185 8.79z" fill="#DEE9FE"/><path fill-rule="evenodd" clip-rule="evenodd" d="M26.76 16.577l9.555 6.37H17.203l9.556-6.37zm4.394 17.358h4.395v-8.79h-4.395v8.79zm-6.593 0h4.395v-8.79h-4.395v8.79zm-6.592 0h4.395v-8.79H17.97v8.79zm-4.395 0a1.099 1.099 0 100 2.197h26.37a1.099 1.099 0 000-2.197h-2.198v-8.79h2.198a1.099 1.099 0 00.61-2.013l-13.186-8.79a1.099 1.099 0 00-1.219 0l-13.184 8.79a1.098 1.098 0 00.61 2.013h2.197v8.79h-2.198z" fill="#2C3E5E"/><path fill-rule="evenodd" clip-rule="evenodd" d="M42.14 38.33H11.378a1.099 1.099 0 100 2.197H42.14a1.099 1.099 0 100-2.198z" fill="#344564"/><path fill-rule="evenodd" clip-rule="evenodd" d="M26.759 2.197a3.08 3.08 0 00-3.077 3.077 3.08 3.08 0 003.077 3.077 3.081 3.081 0 003.077-3.077 3.08 3.08 0 00-3.077-3.077zm0 8.351a5.28 5.28 0 01-5.274-5.274A5.28 5.28 0 0126.759 0a5.28 5.28 0 015.274 5.274 5.28 5.28 0 01-5.274 5.274zM26.759 46.277a2.766 2.766 0 00-2.763 2.763 2.766 2.766 0 002.763 2.762 2.766 2.766 0 002.763-2.762 2.766 2.766 0 00-2.763-2.763zm0 7.723a4.966 4.966 0 01-4.96-4.96 4.966 4.966 0 014.96-4.96 4.966 4.966 0 014.96 4.96 4.966 4.966 0 01-4.96 4.96zM5.19 24.349a2.997 2.997 0 00-2.992 2.994 2.997 2.997 0 002.993 2.993 2.997 2.997 0 002.994-2.993 2.997 2.997 0 00-2.994-2.994zm0 8.184A5.197 5.197 0 010 27.343a5.197 5.197 0 015.19-5.191 5.197 5.197 0 015.192 5.19 5.197 5.197 0 01-5.191 5.19zM48.55 24.243c-1.71 0-3.1 1.39-3.1 3.1a3.103 3.103 0 003.1 3.099c1.709 0 3.1-1.39 3.1-3.1 0-1.71-1.391-3.1-3.1-3.1zm0 8.396a5.302 5.302 0 01-5.297-5.296 5.304 5.304 0 015.297-5.298 5.304 5.304 0 015.297 5.298 5.302 5.302 0 01-5.297 5.296z" fill="#6A9DFC"/></symbol>
<symbol id="i-openness" viewBox="0 0 54 50" xmlns="http://www.w3.org/2000/svg"><path fill-rule="evenodd" clip-rule="evenodd" d="M21.37 5.995a7.183 7.183 0 110 14.365 7.183 7.183 0 010-14.365z" fill="#fff"/><path fill-rule="evenodd" clip-rule="evenodd" d="M21.37 20.36a7.183 7.183 0 110-14.367 7.183 7.183 0 010 14.366zM48.58 1.104H5.42a4.316 4.316 0 00-4.316 4.316v23.736h51.79V5.421a4.316 4.316 0 00-4.316-4.316z" fill="#DEE9FE"/><path fill-rule="evenodd" clip-rule="evenodd" d="M15.293 13.177A6.084 6.084 0 0121.37 7.1a6.084 6.084 0 016.078 6.077 6.085 6.085 0 01-6.078 6.078 6.085 6.085 0 01-6.077-6.078zm13.705 8.49a13.328 13.328 0 00-3.05-1.588 8.285 8.285 0 003.71-6.902c0-4.57-3.718-8.287-8.288-8.287-4.569 0-8.287 3.718-8.287 8.287a8.285 8.285 0 003.706 6.9 13.158 13.158 0 00-6.267 4.812 1.104 1.104 0 101.807 1.27 10.98 10.98 0 017.143-4.53 10.98 10.98 0 018.255 1.846 11.037 11.037 0 012.684 2.684 1.105 1.105 0 101.808-1.271 13.263 13.263 0 00-3.221-3.221zM43.479 24.889a13.249 13.249 0 00-6.265-4.812c2.913-1.938 4.391-5.603 3.393-9.148-1.24-4.4-5.826-6.97-10.225-5.73a1.104 1.104 0 10.599 2.127 6.04 6.04 0 014.62.548 6.04 6.04 0 012.878 3.654 6.084 6.084 0 01-5.849 7.727h-.001c-.077 0-.144.029-.217.044-.071.014-.147.015-.212.043-.073.03-.129.085-.193.129-.052.037-.113.062-.158.107-.053.053-.084.123-.125.185-.037.056-.086.104-.112.167-.029.069-.031.149-.046.224-.013.069-.041.132-.041.206 0 .086.031.16.049.24.014.064.013.132.038.19.048.112.121.209.201.299.015.015.021.037.036.052.2.2.476.324.781.324h.009c3.591 0 6.967 1.754 9.031 4.694a1.107 1.107 0 001.539.269c.5-.351.621-1.04.27-1.54z" fill="#344564"/><path fill-rule="evenodd" clip-rule="evenodd" d="M48.58 38.842H5.42a3.214 3.214 0 01-3.21-3.21v-5.37h49.58v5.37a3.214 3.214 0 01-3.212 3.21zM5.42 2.21H48.58a3.214 3.214 0 013.211 3.21v22.632H2.21V5.42c0-1.77 1.44-3.21 3.211-3.21zM48.58 0H5.421a5.426 5.426 0 00-5.42 5.42v30.211a5.427 5.427 0 005.42 5.421h20.474v6.422h-7.92a1.105 1.105 0 100 2.21h16.868a1.104 1.104 0 000-2.21h-6.738v-6.422H48.58A5.427 5.427 0 0054 35.632V5.42A5.426 5.426 0 0048.58 0z" fill="#6A9DFC"/></symbol>
<symbol id="i-privacy" viewBox="0 0 54 46" xmlns="http://www.w3.org/2000/svg"><rect x="1" y="1" width="51" height="42" rx="1" fill="#DEE9FE"/><path fill-rule="evenodd" clip-rule="evenodd" d="M27.001 34.311a5.252 5.252 0 110-10.504 5.252 5.252 0 010 10.504zm0-14.708c-10.504 0-14.707 9.456-14.707 9.456s4.203 9.453 14.707 9.453c10.505 0 14.707-9.453 14.707-9.453s-4.202-9.456-14.707-9.456z" fill="#fff"/><path fill-rule="evenodd" clip-rule="evenodd" d="M27.001 37.46c-4.042 0-7.573-1.469-10.496-4.365a17.563 17.563 0 01-3.035-4.037c.621-1.155 2.619-4.375 6.233-6.467l2.344 2.578a6.248 6.248 0 00-1.341 3.59 6.263 6.263 0 001.631 4.538 6.291 6.291 0 008.06 1.057l1.928 2.122a14.429 14.429 0 01-5.324.984zm-3.503-10.695l5.452 5.998c-1.653.867-3.745.565-5.058-.879a4.177 4.177 0 01-1.088-3.027c.036-.76.286-1.472.694-2.092zm7.814 5.472h-.001l-7.065-7.773h-.001l-6.971-7.668a1.051 1.051 0 00-1.555 1.413l2.529 2.781c-4.768 2.927-6.822 7.435-6.914 7.641-.12.271-.12.581 0 .853.047.104 1.159 2.57 3.632 5.043 3.294 3.293 7.455 5.034 12.027 5.034l.129.001c2.304 0 4.606-.493 6.712-1.426l2.895 3.183a1.046 1.046 0 001.483.071 1.05 1.05 0 00.071-1.484l-6.971-7.669zM42.667 28.631c-.046-.104-1.157-2.57-3.63-5.043-3.294-3.295-7.456-5.036-12.034-5.036h-.03c-.954 0-1.916.08-2.86.235a1.05 1.05 0 00.345 2.073A15.416 15.416 0 0127 20.653c4.041 0 7.573 1.47 10.497 4.366a17.51 17.51 0 013.034 4.038 17.547 17.547 0 01-3.647 4.615 1.05 1.05 0 001.401 1.564c2.996-2.683 4.326-5.628 4.381-5.752a1.048 1.048 0 000-.853z" fill="#344564"/><path fill-rule="evenodd" clip-rule="evenodd" d="M31.185 28.663a1.05 1.05 0 002.092-.198 6.34 6.34 0 00-5.09-5.598 1.051 1.051 0 00-.395 2.063 4.226 4.226 0 013.393 3.733z" fill="#344564"/><path fill-rule="evenodd" clip-rule="evenodd" d="M1.05 14.025h51.897l.002-10.812a2.162 2.162 0 00-2.162-2.162H3.215a2.162 2.162 0 00-2.163 2.162L1.05 14.025z" fill="#DEE9FE"/><path fill-rule="evenodd" clip-rule="evenodd" d="M50.787 43.247H3.215a1.113 1.113 0 01-1.112-1.112v-27.06H51.9v27.06c0 .613-.499 1.112-1.112 1.112zM3.215 2.101h47.572c.613 0 1.112.498 1.112 1.111v9.762H2.103V3.212c0-.613.5-1.11 1.112-1.11zM50.787 0H3.215A3.217 3.217 0 00.002 3.212v10.802l-.002.01.002.011v28.1a3.216 3.216 0 003.213 3.213h47.572A3.217 3.217 0 0054 42.135V3.212A3.217 3.217 0 0050.787 0z" fill="#6A9DFC"/><path fill-rule="evenodd" clip-rule="evenodd" d="M6.717 6.117a1.169 1.169 0 100 2.337 1.169 1.169 0 000-2.337zM10.633 6.117a1.169 1.169 0 100 2.337 1.169 1.169 0 000-2.337zM14.55 6.117a1.169 1.169 0 10-.002 2.337 1.169 1.169 0 00.001-2.337z" fill="#344564"/></symbol>
</svg>