<?xml version="1.0" encoding="UTF-8"?>
<svg version="1.1" xmlns="http://www.w3.org/2000/svg" xmlns:xlink="http://www.w3.org/1999/xlink">
<defs>

</defs>
<symbol id="i-arrow-down" viewBox="0 0 12 6" fill="currentColor" xmlns="http://www.w3.org/2000/svg"><path fill-rule="evenodd" clip-rule="evenodd" d="M5.535 5.829L0 1.085.928 0 6 4.347 11.072 0 12 1.085 6.465 5.829a.72.72 0 01-.93 0z"/></symbol>
<symbol id="i-arrow-left" viewBox="0 0 14 14" fill="currentColor" xmlns="http://www.w3.org/2000/svg"><path fill-rule="evenodd" clip-rule="evenodd" d="M13.9 7.4c.1-.2.1-.5 0-.8-.101-.1-.101-.2-.2-.3l-6-6c-.401-.4-1-.4-1.401 0-.399.4-.399 1 0 1.4l4.3 4.3H1c-.6 0-1 .4-1 1s.4 1 1 1h9.599l-4.3 4.3c-.399.4-.399 1 0 1.4.201.2.401.3.701.3.299 0 .5-.1.7-.3l6-6c.099-.1.2-.2.2-.3z"/></symbol>
<symbol id="i-external" viewBox="0 0 12 12" xmlns="http://www.w3.org/2000/svg"><g opacity=".7" fill-rule="evenodd" clip-rule="evenodd"><path d="M10.588.001v.002H6.327v1.412h3.315L4.255 6.803l.998.998 5.335-5.336v3.209H12V.001h-1.412z"/><path d="M.886 0v.001H0v11.838h12v-1.412h-.005v-3.11h-1.413v3.11H1.41V1.414H4.69V0H.886z"/></g></symbol>
<symbol id="i-github" viewBox="0 0 33 32" fill="currentColor" xmlns="http://www.w3.org/2000/svg"><path fill-rule="evenodd" clip-rule="evenodd" d="M16.289 0C7.294 0 0 7.293 0 16.291c0 7.196 4.667 13.301 11.141 15.456.815.149 1.112-.354 1.112-.786 0-.386-.014-1.411-.022-2.77-4.531.984-5.487-2.184-5.487-2.184-.741-1.882-1.809-2.382-1.809-2.382-1.479-1.011.112-.991.112-.991 1.635.116 2.495 1.679 2.495 1.679 1.453 2.489 3.812 1.77 4.741 1.354.148-1.053.568-1.771 1.034-2.178-3.617-.411-7.42-1.809-7.42-8.051 0-1.778.635-3.232 1.677-4.371-.168-.412-.727-2.068.159-4.311 0 0 1.368-.438 4.48 1.67a15.602 15.602 0 014.078-.549c1.383.007 2.777.187 4.078.549 3.11-2.108 4.475-1.67 4.475-1.67.889 2.243.33 3.899.162 4.311 1.044 1.139 1.675 2.593 1.675 4.371 0 6.258-3.809 7.635-7.438 8.038.585.503 1.106 1.497 1.106 3.017 0 2.177-.02 3.934-.02 4.468 0 .436.293.943 1.12.784 6.467-2.159 11.131-8.26 11.131-15.454C32.58 7.293 25.286 0 16.289 0z"/></symbol>
<symbol id="i-trend-down" viewBox="0 0 23 15" fill="#DF5A5A" xmlns="http://www.w3.org/2000/svg"><path fill-rule="evenodd" clip-rule="evenodd" d="M23 14.167a.844.844 0 01-.014.153l-.002.008a.846.846 0 01-.042.144l-.004.012a.83.83 0 01-.07.134l-.005.01a.85.85 0 01-.103.128h-.001a.835.835 0 01-.126.105l-.01.005a.807.807 0 01-.132.071l-.01.004a.789.789 0 01-.143.043l-.008.001c-.049.01-.1.015-.151.015h-6.572a.828.828 0 01-.821-.833c0-.46.368-.834.821-.834h4.588l-7.874-7.988-3.526 3.578a.813.813 0 01-1.162 0l-7.392-7.5a.842.842 0 010-1.179.813.813 0 011.161 0l6.812 6.91 3.527-3.577a.813.813 0 011.161 0l8.455 8.578V7.5c0-.46.368-.833.822-.833.453 0 .821.373.821.833V14.167z"/></symbol>
<symbol id="i-trend-up" viewBox="0 0 23 15" fill="#71BB05" xmlns="http://www.w3.org/2000/svg"><path fill-rule="evenodd" clip-rule="evenodd" d="M23 .833a.845.845 0 00-.014-.153l-.002-.008a.844.844 0 00-.042-.144l-.004-.012a.831.831 0 00-.07-.134l-.005-.01a.848.848 0 00-.103-.128h-.001a.837.837 0 00-.126-.105l-.01-.005a.81.81 0 00-.132-.071l-.01-.004a.793.793 0 00-.143-.043L22.33.015A.814.814 0 0022.18 0h-6.572a.828.828 0 00-.821.833c0 .46.368.834.821.834h4.588l-7.874 7.988-3.526-3.578a.813.813 0 00-1.162 0l-7.392 7.5a.842.842 0 000 1.179.813.813 0 001.161 0l6.812-6.91 3.527 3.577a.813.813 0 001.161 0l8.455-8.578V7.5c0 .46.368.833.822.833A.828.828 0 0023 7.5V.833z"/></symbol>
</svg>