<?xml version="1.0" encoding="UTF-8"?>
<svg version="1.1" xmlns="http://www.w3.org/2000/svg" xmlns:xlink="http://www.w3.org/1999/xlink">
<defs>

</defs>
<symbol id="i-android" viewBox="0 0 24 28" fill="currentColor" xmlns="http://www.w3.org/2000/svg"><path fill-rule="evenodd" clip-rule="evenodd" d="M18.707 9.293v11.691c0 .702-.467 1.171-1.169 1.171h-1.17v4.094c0 .935-.818 1.751-1.753 1.751-.937 0-1.753-.816-1.753-1.751v-4.094h-2.341v4.094c0 .935-.816 1.751-1.751 1.751-.937 0-1.753-.816-1.753-1.751v-4.094h-1.17c-.703 0-1.171-.469-1.171-1.171V9.293h14.031zm2.924 0c.936 0 1.753.822 1.753 1.752v8.186c0 .937-.817 1.753-1.753 1.753-.935 0-1.753-.816-1.753-1.753v-8.186c0-.93.818-1.752 1.753-1.752zm-19.878 0c.936 0 1.753.822 1.753 1.752v8.186c0 .937-.817 1.753-1.753 1.753-.935 0-1.752-.816-1.753-1.753v-8.186c0-.93.818-1.752 1.753-1.752zM16.487.177a.56.56 0 01.817 0 .562.562 0 010 .816L15.785 2.51c.489.328.933.727 1.318 1.185a6.867 6.867 0 011.595 4.063l.003.047c.004.107.007.212.007.317H4.675c0-.105.003-.21.009-.317l.002-.047A6.872 6.872 0 016.28 3.695c.386-.458.83-.857 1.319-1.185L6.08.993a.562.562 0 010-.816.559.559 0 01.816 0L8.465 1.74l.075.073c.929-.466 1.972-.698 3.134-.701h.035c1.162.003 2.206.235 3.136.701l.073-.073L16.487.177zm-1.87 4.149a.876.876 0 100 1.752.876.876 0 000-1.752zm-5.851 0a.877.877 0 10.001 1.753.877.877 0 00-.001-1.753z"/></symbol>
<symbol id="i-apple" viewBox="0 0 23 28" fill="currentColor" xmlns="http://www.w3.org/2000/svg"><path fill-rule="evenodd" clip-rule="evenodd" d="M14.897 4.674c.998-1.238 1.67-2.961 1.487-4.674-1.44.059-3.18.982-4.211 2.219-.924 1.095-1.734 2.848-1.516 4.528 1.604.127 3.242-.835 4.24-2.073zm3.65 10.207c.038 4.235 3.62 5.645 3.66 5.663-.03.099-.572 2.008-1.888 3.981-1.136 1.704-2.316 3.403-4.174 3.438-1.826.035-2.413-1.111-4.501-1.111-2.087 0-2.74 1.076-4.47 1.146-1.792.069-3.158-1.845-4.305-3.543-2.342-3.474-4.132-9.818-1.728-14.1 1.194-2.126 3.327-3.473 5.643-3.507 1.762-.035 3.424 1.216 4.5 1.216 1.077 0 3.098-1.504 5.222-1.284.889.039 3.385.369 4.988 2.776-.13.082-2.978 1.785-2.947 5.325z"/></symbol>
<symbol id="i-linux" viewBox="0 0 21 24" fill="currentColor" xmlns="http://www.w3.org/2000/svg"><path clip-rule="evenodd" d="M4.803 11.895c-.179-.022.052-.157.15-.326.109-.187.088-.419.2-.385.115.034.051.165-.028.378-.064.182-.255.341-.322.333zm4.58-6.46c.38-.177.511.096.38.14-.132.044-.133-.206-.38-.14zm1.556-.948c.106.03.208.214.23.413.002.018.138-.03.14-.072.008-.319-.264-.468-.335-.462-.164.015-.117.096-.035.121zm-3.035.138c.05-.01.119.073.098.19-.031.164-.018.266.096.266.018 0 .038-.002.046-.046.054-.324-.115-.564-.185-.582-.159-.04-.14.19-.055.172zm.714.77c-.415-.031-.445.27-.307.265.141-.005.054-.238.307-.265zm4.183 1.618c.094-.099.143.17.396.33.2.127.396.033.447.29.036.183-.08.383-.233.357-.268-.045-.888-.684-.61-.977zm-1.55-5.243c-.048.143-.246.263-.12.363.126.101.197-.14.45-.23.065-.024.37.009.425-.135.026-.063-.156-.135-.265-.238-.107-.103-.213-.194-.314-.189-.262.017-.133.302-.176.429zM6.624 19.997c.322.508 1.461 2.65-.534 2.928-.67.093-1.743-.388-2.785-.644-.935-.228-1.887-.363-2.417-.513-.321-.09-.455-.206-.482-.34-.074-.355.389-.854.411-1.274.024-.42-.154-.64-.298-.983-.145-.345-.183-.602-.066-.75.09-.115.273-.163.571-.134.38.038.837-.04 1.083-.19.414-.252.61-.77.422-1.393 0 .61-.2.841-.701 1.12-.473.263-1.202.05-1.538.341-.403.35.144 1.254.1 1.916-.035.511-.567 1.085-.33 1.596.24.515 1.351.57 2.513.814 1.649.344 2.61.945 3.372.973 1.112.042 1.283-1.1 3.027-1.116.51-.025 1.007-.042 1.505-.048a48.665 48.665 0 011.704.01c1.163.029.763.636 1.517 1.023.635.326 1.777.198 2.053-.063.369-.354 1.363-1.203 2.123-1.586.95-.478 3.179-1.301 1.561-2.305-.378-.234-1.27-.481-1.345-2.193-.336.3-.297 1.894.644 2.21 1.052.355 1.71.947-.246 1.616-1.295.442-1.515.579-2.54 1.432-1.037.863-2.577.52-2.308-1.298.14-.947.22-1.73-.015-2.553-.116-.402-.172-.917-.094-1.28.153-.703.534-.915.907-.24.235.424.316.92 1.155.96 1.317.063 1.58-1.274 2-1.334.28-.04.562-.835.348-2.122-.23-1.376-1.04-3.55-2.079-4.654-.863-.916-1.408-1.72-1.75-2.865-.287-.965-.448-1.903-.388-2.8.076-1.16-.567-2.777-1.593-3.538-.643-.475-1.65-.73-2.56-.72-.512.005-.993.08-1.361.28-1.521.826-1.734 2.006-1.712 3.352.021 1.264.065 2.707.208 4.08-.169.63-1.055 1.825-1.623 2.552-.761.753-1.146 2.209-1.64 3.48-.263.678-.707.985-.743 1.855-.011.245-.003.876.23.696.892-.69 2.008 1.048 3.694 3.702zm.321.035a.81.81 0 00.557-1.367c-.326-.321-2.128-1.659-2.599-2.184-.219-.244-.514-.364-.639-.638-.288-.632-.49-1.532-.125-2.179.066-.117.109-.064.058.179-.287 1.38.612 2.508.81 1.93.136-.4.01-1.115.083-1.682.13-1.004 1.043-2.933 1.445-3.043-.62-1.146.725-2.045.709-3.05-.01-.656.575.804 1.163 1.114.658.345 1.38-.652 2.406-1.158.29-.142.664-.307.638-.43-.12-.588-1.347.726-2.442.771-.502.02-.686-.099-.88-.285-.584-.564.06-.093.928-.25.386-.07.516-.134.924-.3.411-.165.878-.41 1.342-.537.322-.087.296-.329.17-.402-.072-.042-.179-.038-.263.108-.2.345-1.134.543-1.426.633-.374.114-.79.221-1.34.199-.836-.034-.641-.418-1.239-.761-.176-.1-.13-.365.104-.598.122-.122.457-.19.623-.47.024-.037.238-.261.405-.378.058-.039.063-1.06-.461-1.081-.445-.019-.57.327-.553.67.019.344.201.628.322.626.234-.002.014.256-.113.298-.194.062-.46-.766-.43-1.163.031-.415.248-1.149.773-1.134.471.012.814.604.797 1.625-.003.174.765-.082 1.022.189.183.194-.629-1.81 1.18-1.947.476.091.933.25 1.124 1.344-.07.114.117.879-.177.97-.357.11-.58-.017-.372-.358.142-.344.003-1.216-.723-1.165-.726.053-.63 1.341-.43 1.367.197.026.7.381 1.05.45 1.15.223.305.882.454 1.68.167.9.761.662 1.294 3.046.112.145.553.283.982 2.114.388 1.649-.16 2.847.771 2.748.21-.022.515-.08.648-.547.348-1.22-.174-2.675-.7-3.656-.308-.573-.597-.962-.75-1.096.604.357 1.377 1.498 1.555 2.347.235 1.113.402 1.584.047 2.762.205.102.715.319.715.561-.53-.435-2.154-.513-2.196.53-.278.005-.487.028-.665.24-.654.774-.047 2.33-.114 3.164-.056.734-.26 1.461-.375 2.199-.39-.016-.352-.3-.226-.7.11-.35.287-.792.299-1.214.01-.384-.032-.623-.128-.683-.097-.059-.249.061-.457.398-.446.717-1.412 1.034-2.313 1.147-.902.113-1.74.023-2.184-.474-.153-.17-.404.047-.434.092-.04.06.147.177.288.436.206.378.402.952-.086 1.213.006-1.33-.414-1.408-.846-2.22z"/></symbol>
<symbol id="i-mobile" viewBox="0 0 15 24" fill="currentColor" xmlns="http://www.w3.org/2000/svg"><path fill-rule="evenodd" clip-rule="evenodd" d="M2.25 21h10.5V2.25H2.25V21zm11.25.75c0 .412-.338.75-.75.75H2.25a.752.752 0 01-.75-.75V2.25c0-.412.338-.75.75-.75h10.5c.412 0 .75.338.75.75v19.5zM12.75 0H2.25A2.256 2.256 0 000 2.25v19.5A2.256 2.256 0 002.25 24h10.5A2.256 2.256 0 0015 21.75V2.25A2.256 2.256 0 0012.75 0z"/></symbol>
<symbol id="i-paper" viewBox="0 0 15 20" fill="currentColor" xmlns="http://www.w3.org/2000/svg"><path fill-rule="evenodd" clip-rule="evenodd" d="M0 0v19.16h14.995L15 .008.938 0H0zm8.33 5.415h3.333v-.833H8.33v.833zm-2.915 0h2.082v-.833H5.415v.833zm1.25 2.082h4.998v-.832H6.665v.832zm-3.333 0h2.5v-.832h-2.5v.832zm7.081 2.083h1.25v-.833h-1.25v.833zm-4.582 0H9.58v-.833H5.83v.833zm-2.499 0h1.666v-.833H3.332v.833zm3.333 2.083h4.998v-.834H6.665v.834zm-3.333 0h2.5v-.834h-2.5v.834zm6.665 2.083h1.666v-.833H9.997v.833zm-4.582 0h3.749v-.833h-3.75v.833zm-2.083 0h1.25v-.833h-1.25v.833zm3.749 2.082h4.582v-.833H7.08v.833zm-3.749 0h2.916v-.833H3.332v.833z"/></symbol>
<symbol id="i-sources" viewBox="0 0 28 28" fill="currentColor" xmlns="http://www.w3.org/2000/svg"><path fill-rule="evenodd" clip-rule="evenodd" d="M13.999 0C6.269 0 0 6.205 0 13.86c0 6.123 4.011 11.317 9.575 13.151.7.126.955-.302.955-.669 0-.328-.011-1.2-.018-2.357-3.894.837-4.716-1.858-4.716-1.858-.637-1.601-1.555-2.027-1.555-2.027-1.271-.86.096-.843.096-.843 1.406.099 2.144 1.429 2.144 1.429 1.249 2.117 3.277 1.505 4.075 1.152.128-.896.488-1.507.889-1.854-3.109-.349-6.377-1.539-6.377-6.849 0-1.513.546-2.75 1.441-3.719-.144-.351-.625-1.76.137-3.668 0 0 1.175-.373 3.85 1.421a13.54 13.54 0 013.505-.467c1.188.006 2.386.159 3.504.467 2.673-1.794 3.847-1.421 3.847-1.421.763 1.908.283 3.317.139 3.668.897.969 1.439 2.206 1.439 3.719 0 5.324-3.273 6.496-6.392 6.839.503.427.95 1.273.95 2.567 0 1.852-.017 3.347-.017 3.801 0 .371.252.802.963.667C23.992 25.172 28 19.981 28 13.86 28 6.205 21.731 0 13.999 0z"/></symbol>
<symbol id="i-ubuntu" viewBox="0 0 28 28" fill="currentColor" xmlns="http://www.w3.org/2000/svg"><path fill-rule="evenodd" clip-rule="evenodd" d="M23.021 22.496c1.591 0 2.879 1.206 2.879 2.693 0 1.49-1.288 2.694-2.879 2.694s-2.879-1.204-2.879-2.694c0-1.487 1.288-2.693 2.879-2.693zm4.979-7.6c-.218 2.558-1.314 4.943-3.146 6.824a4.145 4.145 0 00-3.848.095 3.874 3.874 0 00-2.007 3.18c-.872.197-1.775.3-2.693.3-1.756 0-3.454-.371-4.996-1.075l2.41-4.037a7.102 7.102 0 002.586.484c3.5 0 6.403-2.513 6.882-5.771H28zM9.607 4.622l2.408 4.037c-1.618 1.232-2.659 3.143-2.659 5.285 0 2.141 1.04 4.052 2.657 5.285l-2.408 4.036a11.948 11.948 0 01-1.596-1.295 11.208 11.208 0 01-2.944-4.754c1.108-.693 1.843-1.9 1.843-3.272 0-1.372-.734-2.578-1.843-3.272a11.227 11.227 0 012.944-4.754 11.848 11.848 0 011.598-1.296zm-6.728 6.629c1.591 0 2.878 1.206 2.878 2.693 0 1.488-1.287 2.694-2.878 2.694-1.59 0-2.879-1.206-2.879-2.694 0-1.487 1.289-2.693 2.879-2.693zm13.427-8.657c.905 0 1.807.1 2.691.299a3.872 3.872 0 002.008 3.176 4.144 4.144 0 003.846.095C26.685 8.045 27.78 10.43 28 12.99h-4.812c-.481-3.257-3.384-5.769-6.882-5.769l-.378.01a7.142 7.142 0 00-2.208.473l-2.409-4.036a12.022 12.022 0 014.995-1.074zM23.019 0c1.59 0 2.878 1.206 2.878 2.694s-1.288 2.694-2.878 2.694-2.878-1.206-2.878-2.694S21.429 0 23.019 0z"/></symbol>
<symbol id="i-web" viewBox="0 0 18 18" fill="currentColor" xmlns="http://www.w3.org/2000/svg"><path fill-rule="evenodd" clip-rule="evenodd" d="M10.626 15.362a15.195 15.195 0 00-3.252 0c.484.79 1.028 1.543 1.626 2.25.6-.707 1.142-1.46 1.626-2.25zm-.101 2.424a8.952 8.952 0 003.627-1.488 9.129 9.129 0 00-2.14-.711 19.186 19.186 0 01-1.487 2.199zm-6.677-1.488a8.952 8.952 0 003.628 1.488 19.095 19.095 0 01-1.488-2.2 9.12 9.12 0 00-2.14.712zm11.376-13.93a9.16 9.16 0 01-2.587 1.01 13.179 13.179 0 011.325 4.871H18a8.994 8.994 0 00-2.776-5.88zm-2.587 12.04a9.178 9.178 0 012.587 1.01A8.993 8.993 0 0018 9.537h-4.038a13.175 13.175 0 01-1.325 4.871zm-1.328-10.78c-.765.108-1.536.161-2.309.16-.772.001-1.544-.052-2.31-.16A12.167 12.167 0 005.345 8.25h7.313a12.168 12.168 0 00-1.348-4.62zM10.525 0a19.187 19.187 0 011.487 2.2 9.13 9.13 0 002.14-.712A8.952 8.952 0 0010.526 0zm-5.18 9.537c.14 1.615.601 3.186 1.357 4.62a16.738 16.738 0 014.619 0 12.17 12.17 0 001.336-4.62H5.344zm.643-7.338C6.432 1.433 6.93.698 7.476 0a8.952 8.952 0 00-3.628 1.488c.68.324 1.4.563 2.14.711zm4.638.225A18.02 18.02 0 009 .174a18.088 18.088 0 00-1.626 2.25c.54.058 1.083.087 1.626.088.543-.001 1.086-.03 1.626-.088zM0 8.25h4.04a13.189 13.189 0 011.323-4.871 9.156 9.156 0 01-2.587-1.01A8.998 8.998 0 000 8.25zm0 1.288h4.04a13.185 13.185 0 001.323 4.871 9.175 9.175 0 00-2.587 1.01A8.998 8.998 0 010 9.537z"/></symbol>
<symbol id="i-windows" viewBox="0 0 28 28" fill="currentColor" xmlns="http://www.w3.org/2000/svg"><path fill-rule="evenodd" clip-rule="evenodd" d="M27.927 0C22.88.7 17.832 1.426 12.794 2.197c-.003 3.725-.003 7.452 0 11.182 2.607-.008 5.213-.032 7.818-.057 2.44-.023 4.879-.046 7.318-.055l-.001-6.625v-.017c0-2.208 0-4.416-.002-6.625zM11.412 2.414C7.604 2.89 3.792 3.396 0 3.981v9.481c1.99.005 3.98-.008 5.969-.022 1.816-.012 3.633-.025 5.449-.023l-.002-3.665V9.75c0-2.445-.001-4.89-.004-7.336zM0 14.616c1.97-.006 3.94.007 5.91.02 1.833.013 3.666.025 5.499.021l.002 4.139c.003 2.3.005 4.598.001 6.897-2.919-.431-5.84-.823-8.764-1.215h-.001C1.765 24.36.882 24.242 0 24.122v-9.506zm27.927.148H12.772c.003 2.02.007 4.037.012 6.055l.01 5.04c5.047.685 10.096 1.384 15.133 2.141l.001-4.414c.002-2.942.003-5.882-.001-8.822z"/></symbol>
</svg>