<?xml version="1.0" encoding="UTF-8"?>
<svg version="1.1" xmlns="http://www.w3.org/2000/svg" xmlns:xlink="http://www.w3.org/1999/xlink">
<defs>

</defs>
<symbol id="i-btc-trade" viewBox="0 0 50 50" fill="none" xmlns="http://www.w3.org/2000/svg"><path fill-rule="evenodd" clip-rule="evenodd" d="M25 0c13.807 0 25 11.193 25 25S38.807 50 25 50 0 38.807 0 25 11.193 0 25 0z" fill="#F8D852"/><path fill-rule="evenodd" clip-rule="evenodd" d="M28.684 28.738l-.016.038c-.409.968-1.71 1.416-2.668 1.547-1.095.15-2.23.07-3.333.07v-4.887c0-.069 3.062.043 3.32.072.654.07 1.33.192 1.868.57.757.534 1.174 1.709.83 2.59zm-6.017-9.784h.555c.87 0 1.786-.082 2.64.133.724.183 1.421.62 1.733 1.297a1.923 1.923 0 01-.214 1.928c-.423.553-1.122.831-1.81.94-.809.128-1.666.137-2.484.137h-.437v-4.434h.017zm9.892 6.433c-.554-.672-1.326-1.226-2.452-1.444 1.445-.672 2-1.998 1.882-3.662 0-.671-.219-1.226-.555-1.662a4.14 4.14 0 00-1.226-1.108c-.554-.337-1.007-.555-1.663-.672-.554-.118-1.226-.218-1.998-.336V12.96H24.33v3.56h-1.78v-3.56h-2.217v3.66H16v2.334h1.562c.672 0 1.11.337 1.227 1.008v4.116h.218-.218v5.777c-.118.436-.336.773-.773.773h-1.562l-.436 2.67h4.433v3.661h2.217v-3.662h1.781v3.562h2.216v-3.696c.773 0 1.445-.117 2.117-.217.672-.118 1.226-.22 1.78-.555.554-.337 1.008-.554 1.327-.89.336-.337.671-.773.89-1.227.218-.553.436-1.108.436-1.78.118-1.326-.1-2.434-.655-3.107z" fill="#fff"/></symbol>
</svg>