<?xml version="1.0" encoding="UTF-8"?>
<svg version="1.1" xmlns="http://www.w3.org/2000/svg" xmlns:xlink="http://www.w3.org/1999/xlink">
<defs>

</defs>
<symbol id="i-android" viewBox="0 0 24 28" fill="currentColor" xmlns="http://www.w3.org/2000/svg"><path fill-rule="evenodd" clip-rule="evenodd" d="M18.707 9.293v11.691c0 .702-.467 1.171-1.169 1.171h-1.17v4.094c0 .935-.818 1.751-1.753 1.751-.937 0-1.753-.816-1.753-1.751v-4.094h-2.341v4.094c0 .935-.816 1.751-1.751 1.751-.937 0-1.753-.816-1.753-1.751v-4.094h-1.17c-.703 0-1.171-.469-1.171-1.171V9.293h14.031zm2.924 0c.936 0 1.753.822 1.753 1.752v8.186c0 .937-.817 1.753-1.753 1.753-.935 0-1.753-.816-1.753-1.753v-8.186c0-.93.818-1.752 1.753-1.752zm-19.878 0c.936 0 1.753.822 1.753 1.752v8.186c0 .937-.817 1.753-1.753 1.753-.935 0-1.752-.816-1.753-1.753v-8.186c0-.93.818-1.752 1.753-1.752zM16.487.177a.56.56 0 01.817 0 .562.562 0 010 .816L15.785 2.51c.489.328.933.727 1.318 1.185a6.867 6.867 0 011.595 4.063l.003.047c.004.107.007.212.007.317H4.675c0-.105.003-.21.009-.317l.002-.047A6.872 6.872 0 016.28 3.695c.386-.458.83-.857 1.319-1.185L6.08.993a.562.562 0 010-.816.559.559 0 01.816 0L8.465 1.74l.075.073c.929-.466 1.972-.698 3.134-.701h.035c1.162.003 2.206.235 3.136.701l.073-.073L16.487.177zm-1.87 4.149a.876.876 0 100 1.752.876.876 0 000-1.752zm-5.851 0a.877.877 0 10.001 1.753.877.877 0 00-.001-1.753z"/></symbol>
<symbol id="i-apple" viewBox="0 0 23 28" fill="currentColor" xmlns="http://www.w3.org/2000/svg"><path fill-rule="evenodd" clip-rule="evenodd" d="M14.897 4.674c.998-1.238 1.67-2.961 1.487-4.674-1.44.059-3.18.982-4.211 2.219-.924 1.095-1.734 2.848-1.516 4.528 1.604.127 3.242-.835 4.24-2.073zm3.65 10.207c.038 4.235 3.62 5.645 3.66 5.663-.03.099-.572 2.008-1.888 3.981-1.136 1.704-2.316 3.403-4.174 3.438-1.826.035-2.413-1.111-4.501-1.111-2.087 0-2.74 1.076-4.47 1.146-1.792.069-3.158-1.845-4.305-3.543-2.342-3.474-4.132-9.818-1.728-14.1 1.194-2.126 3.327-3.473 5.643-3.507 1.762-.035 3.424 1.216 4.5 1.216 1.077 0 3.098-1.504 5.222-1.284.889.039 3.385.369 4.988 2.776-.13.082-2.978 1.785-2.947 5.325z"/></symbol>
<symbol id="i-sources" viewBox="0 0 28 28" fill="currentColor" xmlns="http://www.w3.org/2000/svg"><path fill-rule="evenodd" clip-rule="evenodd" d="M13.999 0C6.269 0 0 6.205 0 13.86c0 6.123 4.011 11.317 9.575 13.151.7.126.955-.302.955-.669 0-.328-.011-1.2-.018-2.357-3.894.837-4.716-1.858-4.716-1.858-.637-1.601-1.555-2.027-1.555-2.027-1.271-.86.096-.843.096-.843 1.406.099 2.144 1.429 2.144 1.429 1.249 2.117 3.277 1.505 4.075 1.152.128-.896.488-1.507.889-1.854-3.109-.349-6.377-1.539-6.377-6.849 0-1.513.546-2.75 1.441-3.719-.144-.351-.625-1.76.137-3.668 0 0 1.175-.373 3.85 1.421a13.54 13.54 0 013.505-.467c1.188.006 2.386.159 3.504.467 2.673-1.794 3.847-1.421 3.847-1.421.763 1.908.283 3.317.139 3.668.897.969 1.439 2.206 1.439 3.719 0 5.324-3.273 6.496-6.392 6.839.503.427.95 1.273.95 2.567 0 1.852-.017 3.347-.017 3.801 0 .371.252.802.963.667C23.992 25.172 28 19.981 28 13.86 28 6.205 21.731 0 13.999 0z"/></symbol>
<symbol id="i-ubuntu" viewBox="0 0 28 28" fill="currentColor" xmlns="http://www.w3.org/2000/svg"><path fill-rule="evenodd" clip-rule="evenodd" d="M23.021 22.496c1.591 0 2.879 1.206 2.879 2.693 0 1.49-1.288 2.694-2.879 2.694s-2.879-1.204-2.879-2.694c0-1.487 1.288-2.693 2.879-2.693zm4.979-7.6c-.218 2.558-1.314 4.943-3.146 6.824a4.145 4.145 0 00-3.848.095 3.874 3.874 0 00-2.007 3.18c-.872.197-1.775.3-2.693.3-1.756 0-3.454-.371-4.996-1.075l2.41-4.037a7.102 7.102 0 002.586.484c3.5 0 6.403-2.513 6.882-5.771H28zM9.607 4.622l2.408 4.037c-1.618 1.232-2.659 3.143-2.659 5.285 0 2.141 1.04 4.052 2.657 5.285l-2.408 4.036a11.948 11.948 0 01-1.596-1.295 11.208 11.208 0 01-2.944-4.754c1.108-.693 1.843-1.9 1.843-3.272 0-1.372-.734-2.578-1.843-3.272a11.227 11.227 0 012.944-4.754 11.848 11.848 0 011.598-1.296zm-6.728 6.629c1.591 0 2.878 1.206 2.878 2.693 0 1.488-1.287 2.694-2.878 2.694-1.59 0-2.879-1.206-2.879-2.694 0-1.487 1.289-2.693 2.879-2.693zm13.427-8.657c.905 0 1.807.1 2.691.299a3.872 3.872 0 002.008 3.176 4.144 4.144 0 003.846.095C26.685 8.045 27.78 10.43 28 12.99h-4.812c-.481-3.257-3.384-5.769-6.882-5.769l-.378.01a7.142 7.142 0 00-2.208.473l-2.409-4.036a12.022 12.022 0 014.995-1.074zM23.019 0c1.59 0 2.878 1.206 2.878 2.694s-1.288 2.694-2.878 2.694-2.878-1.206-2.878-2.694S21.429 0 23.019 0z"/></symbol>
<symbol id="i-windows" viewBox="0 0 28 28" fill="currentColor" xmlns="http://www.w3.org/2000/svg"><path fill-rule="evenodd" clip-rule="evenodd" d="M27.927 0C22.88.7 17.832 1.426 12.794 2.197c-.003 3.725-.003 7.452 0 11.182 2.607-.008 5.213-.032 7.818-.057 2.44-.023 4.879-.046 7.318-.055l-.001-6.625v-.017c0-2.208 0-4.416-.002-6.625zM11.412 2.414C7.604 2.89 3.792 3.396 0 3.981v9.481c1.99.005 3.98-.008 5.969-.022 1.816-.012 3.633-.025 5.449-.023l-.002-3.665V9.75c0-2.445-.001-4.89-.004-7.336zM0 14.616c1.97-.006 3.94.007 5.91.02 1.833.013 3.666.025 5.499.021l.002 4.139c.003 2.3.005 4.598.001 6.897-2.919-.431-5.84-.823-8.764-1.215h-.001C1.765 24.36.882 24.242 0 24.122v-9.506zm27.927.148H12.772c.003 2.02.007 4.037.012 6.055l.01 5.04c5.047.685 10.096 1.384 15.133 2.141l.001-4.414c.002-2.942.003-5.882-.001-8.822z"/></symbol>
</svg>