<svg width="25" height="25" viewBox="0 0 25 25" fill="currentColor" xmlns="http://www.w3.org/2000/svg">
  <path clip-rule="evenodd" d="M18.5104 6.48959C18.1199 6.09907 17.4867 6.09907 17.0962 6.48959L12.5 11.0858L7.90381 6.48959C7.51328 6.09907 6.88012 6.09907 6.48959 6.48959C6.09907 6.88012 6.09907 7.51328 6.48959 7.90381L11.0858 12.5L6.48959 17.0962C6.09907 17.4867 6.09907 18.1199 6.48959 18.5104C6.88012 18.9009 7.51328 18.9009 7.90381 18.5104L12.5 13.9142L17.0962 18.5104C17.4867 18.9009 18.1199 18.9009 18.5104 18.5104C18.9009 18.1199 18.9009 17.4867 18.5104 17.0962L13.9142 12.5L18.5104 7.90381C18.9009 7.51328 18.9009 6.88012 18.5104 6.48959Z" />
</svg>
