<svg width="16" height="16" viewBox="0 0 16 16" fill="currentColor" xmlns="http://www.w3.org/2000/svg">
  <path fill-rule="evenodd" clip-rule="evenodd" d="M9.87943 8.30972L8.67303 9.51612V4.86012C8.67303 4.48812 8.37143 4.18652 8.00023 4.18652C7.62823 4.18652 7.32743 4.48812 7.32743 4.86012V9.51612L6.12023 8.30972C5.85783 8.04652 5.43143 8.04732 5.16903 8.30972C4.90663 8.57292 4.90663 8.99852 5.16903 9.26092L7.52423 11.6161C7.65543 11.7473 7.82823 11.8129 8.00023 11.8129C8.17223 11.8129 8.34423 11.7473 8.47623 11.6161L10.8306 9.26092C11.0938 8.99852 11.0938 8.57292 10.8306 8.30972C10.5682 8.04732 10.1426 8.04732 9.87943 8.30972Z" />
  <path fill-rule="evenodd" clip-rule="evenodd" d="M8.00015 14.6543C4.33135 14.6543 1.34575 11.6695 1.34575 7.99988C1.34575 4.33108 4.33135 1.34548 8.00015 1.34548C11.669 1.34548 14.6538 4.33108 14.6538 7.99988C14.6538 11.6695 11.669 14.6543 8.00015 14.6543ZM8.00015 -0.00012207C3.58895 -0.00012207 0.000152588 3.58868 0.000152588 7.99988C0.000152588 12.4111 3.58895 15.9999 8.00015 15.9999C12.4114 15.9999 16.0002 12.4111 16.0002 7.99988C16.0002 3.58868 12.4114 -0.00012207 8.00015 -0.00012207Z" />
</svg>
