<svg width="12" height="12" viewBox="0 0 12 12" fill="currentColor" xmlns="http://www.w3.org/2000/svg">
  <path fill-rule="evenodd" clip-rule="evenodd" d="M11.3571 10.6674H1.28583V0.666713C1.28583 0.2989 0.998399 0 0.642914 0C0.28743 0 0 0.2989 0 0.666713V10.6674C0 11.4022 0.576461 12 1.28583 12H11.3571C11.7118 12 12 11.7019 12 11.3341C12 10.9655 11.7118 10.6674 11.3571 10.6674Z" />
  <path fill-rule="evenodd" clip-rule="evenodd" d="M6.13961 6.80481L10.664 2.27991L10.6648 5.3888C10.6648 5.75715 10.9633 6.05648 11.3324 6.05648C11.7007 6.05648 12 5.75715 12 5.3888L11.9992 0.668508V0.667676C11.9992 0.626102 11.995 0.586192 11.9875 0.546281L11.9867 0.538797C11.9784 0.498886 11.9667 0.460638 11.9526 0.423222C11.9509 0.419896 11.9501 0.41657 11.9485 0.413244C11.9335 0.376659 11.9144 0.340906 11.8928 0.306815C11.8903 0.304321 11.8894 0.300995 11.8878 0.2985C11.8628 0.261915 11.8354 0.227825 11.8046 0.19706C11.8038 0.19706 11.8038 0.196229 11.8038 0.196229L11.803 0.195397C11.7722 0.164633 11.7381 0.136362 11.7015 0.112249C11.699 0.110586 11.6957 0.108924 11.6932 0.107261C11.6591 0.0856422 11.6234 0.0665182 11.586 0.0507201C11.5826 0.0498886 11.5793 0.0482257 11.5768 0.0473942C11.5394 0.0324276 11.5012 0.0216184 11.4613 0.0133036C11.4588 0.0124722 11.4563 0.0124722 11.4538 0.0124722C11.4147 0.00498886 11.374 0 11.3332 0H11.3316H6.61184C6.2427 0 5.94424 0.299332 5.94424 0.667676C5.94424 0.852264 6.01823 1.01939 6.13961 1.14079C6.26016 1.26135 6.42727 1.33618 6.611 1.33618H9.72036L5.19517 5.86108C4.93494 6.12217 4.93494 6.54456 5.19517 6.80481C5.45622 7.06506 5.87939 7.06506 6.13961 6.80481Z" />
</svg>
