<svg width="33" height="32" viewBox="0 0 33 32" fill="currentColor" xmlns="http://www.w3.org/2000/svg">
  <path fill-rule="evenodd" clip-rule="evenodd" d="M16.289 0C7.294 0 0 7.293 0 16.291C0 23.487 4.667 29.592 11.141 31.747C11.956 31.896 12.253 31.393 12.253 30.961C12.253 30.575 12.239 29.55 12.231 28.191C7.7 29.175 6.744 26.007 6.744 26.007C6.003 24.125 4.935 23.625 4.935 23.625C3.456 22.614 5.047 22.634 5.047 22.634C6.682 22.75 7.542 24.313 7.542 24.313C8.995 26.802 11.354 26.083 12.283 25.667C12.431 24.614 12.851 23.896 13.317 23.489C9.7 23.078 5.897 21.68 5.897 15.438C5.897 13.66 6.532 12.206 7.574 11.067C7.406 10.655 6.847 8.999 7.733 6.756C7.733 6.756 9.101 6.318 12.213 8.426C13.512 8.064 14.906 7.884 16.291 7.877C17.674 7.884 19.068 8.064 20.369 8.426C23.479 6.318 24.844 6.756 24.844 6.756C25.733 8.999 25.174 10.655 25.006 11.067C26.05 12.206 26.681 13.66 26.681 15.438C26.681 21.696 22.872 23.073 19.243 23.476C19.828 23.979 20.349 24.973 20.349 26.493C20.349 28.67 20.329 30.427 20.329 30.961C20.329 31.397 20.622 31.904 21.449 31.745C27.916 29.586 32.58 23.485 32.58 16.291C32.58 7.293 25.286 0 16.289 0Z" />
</svg>
