<svg width="24" height="24" viewBox="0 0 24 24" fill="currentColor" xmlns="http://www.w3.org/2000/svg">
  <path fill-rule="evenodd" clip-rule="evenodd" d="M15.2314 21.6235C16.0718 20.3897 16.7282 18.6677 17.122 16.6154H21.0395C19.8389 18.9574 17.7562 20.7735 15.2314 21.6235ZM2.96031 16.6154H6.87785C7.27169 18.6677 7.928 20.3897 8.76846 21.6235C6.24369 20.7735 4.16092 18.9574 2.96031 16.6154ZM8.76846 2.37646C7.928 3.61031 7.27169 5.33246 6.87785 7.38462H2.96031C4.16092 5.04277 6.24369 3.22662 8.76846 2.37646ZM21.0395 7.38462H17.122C16.7282 5.33246 16.0718 3.61031 15.2314 2.37646C17.7562 3.22662 19.8389 5.04277 21.0395 7.38462ZM17.3935 9.23077H21.7668C22.0169 10.1118 22.1538 11.04 22.1538 12C22.1538 12.96 22.0169 13.8883 21.7668 14.7692H17.3935C17.4875 13.8865 17.5385 12.9611 17.5385 12C17.5385 11.0391 17.4875 10.1137 17.3935 9.23077ZM12 2.14354C12.8157 2.14354 13.7186 3.11446 14.4149 4.74108C14.7503 5.52415 15.0231 6.41692 15.23 7.38462H8.77662C9.45969 4.21046 10.7798 2.14354 12 2.14354ZM1.84615 12C1.84615 11.04 1.98292 10.1118 2.23308 9.23077H6.60631C6.51246 10.1137 6.46154 11.0391 6.46154 12C6.46154 12.9611 6.51246 13.8865 6.60631 14.7692H2.23308C1.98292 13.8883 1.84615 12.96 1.84615 12ZM8.46739 14.7692C8.36277 13.8802 8.30769 12.9512 8.30769 12C8.30769 11.0295 8.36646 10.1026 8.47092 9.23077H15.5325C15.6371 10.1198 15.6923 11.0488 15.6923 12C15.6923 12.9705 15.6334 13.8974 15.5291 14.7692H8.46739ZM12 21.8566C11.1842 21.8566 10.2814 20.8855 9.58492 19.2591C9.24969 18.476 8.97692 17.5832 8.76985 16.6154H15.2232C14.5402 19.7895 13.22 21.8566 12 21.8566ZM23.3422 15.9109C23.7663 14.6843 24 13.3692 24 12C24 10.6295 23.7658 9.31339 23.3409 8.08554C23.328 8.03339 23.3111 7.98277 23.2895 7.93446C21.6202 3.31277 17.1902 0 12 0C6.81031 0 2.38077 3.312 0.710769 7.93292C0.688615 7.98246 0.671231 8.03462 0.658 8.08831C0.233692 9.31538 0 10.6306 0 12C0 13.3715 0.234308 14.6888 0.66 15.9172C0.672615 15.9678 0.688923 16.0171 0.709692 16.064C2.37877 20.6865 6.80908 24 12 24C17.1895 24 21.6189 20.6883 23.2891 16.0677C23.3114 16.0177 23.3289 15.9652 23.3422 15.9109Z" />
</svg>
