<svg width="23" height="15" viewBox="0 0 23 15" fill="#71BB05" xmlns="http://www.w3.org/2000/svg">
  <path fill-rule="evenodd" clip-rule="evenodd" d="M23 0.832917C23 0.780833 22.9947 0.729861 22.9856 0.680278C22.9851 0.6775 22.9848 0.674583 22.9843 0.671806C22.9745 0.621806 22.9602 0.573889 22.9422 0.527639C22.9407 0.523889 22.9396 0.520139 22.9381 0.516389C22.919 0.469028 22.8953 0.424167 22.8683 0.381667C22.8662 0.378611 22.8646 0.375278 22.8625 0.372083C22.8323 0.32625 22.7979 0.283333 22.7597 0.244444C22.7596 0.244306 22.7596 0.244167 22.7595 0.244028C22.7593 0.243889 22.7592 0.243889 22.759 0.24375C22.7207 0.205 22.6784 0.170139 22.6331 0.139444C22.6301 0.137361 22.6269 0.135694 22.6239 0.13375C22.5819 0.10625 22.5377 0.0822222 22.4909 0.0627778C22.4874 0.06125 22.4839 0.0602778 22.4804 0.0588889C22.4346 0.0404167 22.3869 0.0256944 22.3377 0.0159722C22.3352 0.0154167 22.3326 0.0152778 22.3301 0.0147222C22.281 0.00541667 22.2303 0 22.1786 0H15.6072C15.1536 0 14.7857 0.373056 14.7857 0.833333C14.7857 1.29347 15.1536 1.66667 15.6072 1.66667H20.1955L12.3214 9.65486L8.79519 6.07736C8.47443 5.75194 7.95419 5.75194 7.63342 6.07736L0.240576 13.5774C-0.0801918 13.9029 -0.0801918 14.4304 0.240576 14.756C0.401028 14.9186 0.611176 15 0.821462 15C1.03175 15 1.2419 14.9186 1.40235 14.756L8.21431 7.84514L11.7406 11.4226C12.0613 11.7479 12.5816 11.7479 12.9023 11.4226L21.3571 2.84514V7.5C21.3571 7.96014 21.725 8.33333 22.1786 8.33333C22.6321 8.33333 23 7.96014 23 7.5V0.833472V0.832917Z" />
</svg>
