<svg width="23" height="15" viewBox="0 0 23 15" fill="#DF5A5A" xmlns="http://www.w3.org/2000/svg">
  <path fill-rule="evenodd" clip-rule="evenodd" d="M23 14.1671C23 14.2192 22.9947 14.2701 22.9856 14.3197C22.9851 14.3225 22.9848 14.3254 22.9843 14.3282C22.9745 14.3782 22.9602 14.4261 22.9422 14.4724C22.9407 14.4761 22.9396 14.4799 22.9381 14.4836C22.919 14.531 22.8953 14.5758 22.8683 14.6183C22.8662 14.6214 22.8646 14.6247 22.8625 14.6279C22.8323 14.6737 22.7979 14.7167 22.7597 14.7556C22.7596 14.7557 22.7596 14.7558 22.7595 14.756C22.7593 14.7561 22.7592 14.7561 22.759 14.7562C22.7207 14.795 22.6784 14.8299 22.6331 14.8606C22.6301 14.8626 22.6269 14.8643 22.6239 14.8662C22.5819 14.8937 22.5377 14.9178 22.4909 14.9372C22.4874 14.9387 22.4839 14.9397 22.4804 14.9411C22.4346 14.9596 22.3869 14.9743 22.3377 14.984C22.3352 14.9846 22.3326 14.9847 22.3301 14.9853C22.281 14.9946 22.2303 15 22.1786 15H15.6072C15.1536 15 14.7857 14.6269 14.7857 14.1667C14.7857 13.7065 15.1536 13.3333 15.6072 13.3333H20.1955L12.3214 5.34514L8.79519 8.92264C8.47443 9.24806 7.95419 9.24806 7.63342 8.92264L0.240576 1.42264C-0.0801918 1.09708 -0.0801918 0.569584 0.240576 0.244028C0.401028 0.0813894 0.611176 0 0.821462 0C1.03175 0 1.2419 0.0813894 1.40235 0.244028L8.21431 7.15486L11.7406 3.57736C12.0613 3.25208 12.5816 3.25208 12.9023 3.57736L21.3571 12.1549V7.5C21.3571 7.03986 21.725 6.66667 22.1786 6.66667C22.6321 6.66667 23 7.03986 23 7.5V14.1665V14.1671Z" />
</svg>
