<svg width="128" height="42" viewBox="0 0 128 42" fill="none" xmlns="http://www.w3.org/2000/svg">
  <path fill-rule="evenodd" clip-rule="evenodd" d="M26.303 32.067C25.708 30.282 25.198 28.757 24.773 27.493C24.348 26.229 23.907 25.198 23.45 24.401C22.993 23.604 22.462 23.014 21.857 22.632C21.667 22.513 21.456 22.419 21.235 22.337V26.776H19.195V22.059H17.379V24.321V32.067H13.522V10.074H17.379V16.576V19.158H19.195V14.441H21.235V18.832C21.415 18.753 21.586 18.66 21.745 18.552C22.34 18.149 22.865 17.559 23.323 16.783C23.78 16.008 24.199 15.057 24.582 13.931C24.964 12.805 25.379 11.52 25.825 10.074H29.905C29.459 11.434 29.049 12.651 28.678 13.724C28.305 14.796 27.939 15.737 27.578 16.545C27.217 17.352 26.818 18.032 26.383 18.584C25.947 19.137 25.442 19.572 24.868 19.891C24.295 20.21 23.604 20.422 22.797 20.528V20.656C23.668 20.763 24.407 20.975 25.012 21.294C25.618 21.612 26.154 22.069 26.621 22.664C27.089 23.259 27.519 23.992 27.912 24.863C28.305 25.735 28.704 26.765 29.108 27.955C29.511 29.145 29.969 30.516 30.478 32.067H26.303ZM21 0C9.421 0 0 9.421 0 21C0 32.58 9.421 42 21 42C32.579 42 42 32.58 42 21C42 9.421 32.579 0 21 0Z" fill="url(#paint0_linear)"/>
  <path fill-rule="evenodd" clip-rule="evenodd" d="M65.9968 15.2228H62.1368L55.9838 22.7678V9.9978H52.9078L52.8928 30.8938H55.9838V23.3488L62.5428 30.8938H66.6638L59.4958 23.0588L65.9968 15.2228Z" fill="#0B2E48"/>
  <path fill-rule="evenodd" clip-rule="evenodd" d="M77.532 25.7433C77.417 26.2563 77.17 26.7493 76.792 27.2223C76.415 27.6973 75.917 28.0863 75.298 28.3903C74.678 28.6953 73.938 28.8473 73.078 28.8473C72.429 28.8473 71.897 28.7463 71.481 28.5433C71.065 28.3403 70.756 28.0663 70.553 27.7233C70.349 27.3803 70.248 27.0053 70.248 26.5983C70.248 26.1823 70.343 25.8303 70.531 25.5393C70.72 25.2493 70.975 25.0033 71.3 24.8003C71.624 24.5973 71.994 24.4223 72.41 24.2773C72.903 24.1223 73.467 23.9893 74.1 23.8783C74.734 23.7663 75.443 23.6533 76.226 23.5373C76.728 23.4633 77.271 23.3823 77.844 23.2953C77.839 23.5513 77.829 23.8443 77.815 24.1763C77.791 24.7563 77.697 25.2783 77.532 25.7433ZM80.318 17.7763C79.835 16.7413 79.073 15.9843 78.033 15.5053C76.993 15.0263 75.771 14.7873 74.369 14.7873C72.56 14.7873 71.111 15.1833 70.023 15.9763C68.934 16.7703 68.197 17.8393 67.81 19.1833L70.639 20.0553C70.91 19.1743 71.389 18.5433 72.076 18.1613C72.763 17.7783 73.517 17.5883 74.34 17.5883C75.646 17.5883 76.567 17.8853 77.104 18.4793C77.573 18.9993 77.829 19.7603 77.874 20.7623C77.281 20.8463 76.686 20.9293 76.089 21.0123C75.116 21.1473 74.19 21.2933 73.309 21.4473C72.429 21.6023 71.641 21.7813 70.944 21.9843C70.141 22.2453 69.465 22.5873 68.913 23.0073C68.361 23.4283 67.945 23.9383 67.665 24.5383C67.385 25.1393 67.244 25.8353 67.244 26.6283C67.244 27.4793 67.445 28.2603 67.846 28.9723C68.248 29.6823 68.841 30.2533 69.624 30.6833C70.408 31.1143 71.38 31.3293 72.541 31.3293C74.001 31.3293 75.232 31.0373 76.233 30.4513C76.983 30.0143 77.634 29.4033 78.185 28.6203V30.8933H80.87V21.2443C80.87 20.5873 80.841 19.9723 80.783 19.4013C80.724 18.8313 80.57 18.2893 80.318 17.7763Z" fill="#0B2E48"/>
  <path fill-rule="evenodd" clip-rule="evenodd" d="M91.6218 15.1427C91.1088 15.1767 90.6078 15.2737 90.1198 15.4327C89.6318 15.5927 89.1888 15.8177 88.7928 16.1077C88.3868 16.3777 88.0278 16.7237 87.7188 17.1447C87.5808 17.3317 87.4558 17.5297 87.3418 17.7337V15.2227H84.6428V30.8937H87.7038V22.9857C87.7038 22.3667 87.7678 21.7797 87.8928 21.2227C88.0178 20.6657 88.2248 20.1617 88.5098 19.7057C88.7948 19.2517 89.1838 18.8647 89.6778 18.5447C90.1998 18.2067 90.7728 18.0087 91.3968 17.9507C92.0208 17.8927 92.5898 17.9307 93.1018 18.0667V15.2227C92.6278 15.1347 92.1348 15.1087 91.6218 15.1427Z" fill="#0B2E48"/>
  <path fill-rule="evenodd" clip-rule="evenodd" d="M106.619 25.8517C106.305 26.6887 105.83 27.3537 105.196 27.8467C104.563 28.3397 103.763 28.5867 102.795 28.5867C101.799 28.5867 100.986 28.3497 100.357 27.8757C99.7279 27.4027 99.2689 26.7487 98.9779 25.9167C98.6879 25.0847 98.5439 24.1267 98.5439 23.0437C98.5439 21.9597 98.6909 21.0027 98.9859 20.1707C99.2809 19.3387 99.7349 18.6907 100.35 18.2257C100.965 17.7617 101.745 17.5297 102.693 17.5297C103.699 17.5297 104.526 17.7767 105.175 18.2697C105.823 18.7627 106.305 19.4257 106.619 20.2577C106.933 21.0897 107.091 22.0187 107.091 23.0437C107.091 24.0797 106.933 25.0147 106.619 25.8517ZM106.967 15.8687C105.898 15.1477 104.629 14.7877 103.158 14.7877C101.678 14.7877 100.432 15.1477 99.4219 15.8687C99.2349 16.0007 99.0599 16.1447 98.8909 16.2947V9.9977H95.8449V30.8937H98.5439V29.4477C98.8189 29.7357 99.1169 29.9987 99.4429 30.2337C100.459 30.9637 101.717 31.3297 103.216 31.3297C104.677 31.3297 105.936 30.9667 106.996 30.2417C108.056 29.5157 108.873 28.5267 109.448 27.2737C110.023 26.0207 110.311 24.6107 110.311 23.0437C110.311 21.4667 110.021 20.0567 109.441 18.8137C108.86 17.5707 108.036 16.5887 106.967 15.8687Z" fill="#0B2E48"/>
  <path fill-rule="evenodd" clip-rule="evenodd" d="M123.669 26.9542C122.929 27.9662 121.809 28.4712 120.31 28.4712C118.849 28.4712 117.741 27.9772 116.986 26.9902C116.232 26.0042 115.855 24.6882 115.855 23.0442C115.855 21.9792 116.015 21.0442 116.334 20.2352C116.652 19.4282 117.142 18.7942 117.799 18.3352C118.457 17.8752 119.294 17.6452 120.31 17.6452C121.79 17.6452 122.904 18.1372 123.654 19.1182C124.404 20.1002 124.779 21.4092 124.779 23.0442C124.779 24.6402 124.409 25.9432 123.669 26.9542ZM127.058 18.7632C126.428 17.5242 125.538 16.5532 124.387 15.8462C123.235 15.1412 121.877 14.7872 120.31 14.7872C118.772 14.7872 117.427 15.1332 116.275 15.8242C115.124 16.5162 114.23 17.4832 113.591 18.7262C112.952 19.9702 112.634 21.4092 112.634 23.0442C112.634 24.6692 112.945 26.1032 113.569 27.3462C114.193 28.5892 115.081 29.5642 116.232 30.2702C117.383 30.9752 118.742 31.3292 120.31 31.3292C121.867 31.3292 123.222 30.9782 124.373 30.2772C125.523 29.5762 126.416 28.6032 127.05 27.3602C127.684 26.1172 128 24.6792 128 23.0442C128 21.4282 127.686 20.0012 127.058 18.7632Z" fill="#0B2E48"/>
  <defs>
    <linearGradient id="paint0_linear" x1="42" y1="0" x2="0" y2="0" gradientUnits="userSpaceOnUse">
      <stop stop-color="#0F5FF7"/>
      <stop offset="1" stop-color="#417EF0"/>
    </linearGradient>
  </defs>
</svg>
