<svg width="333" height="150" viewBox="0 0 333 150" xmlns="http://www.w3.org/2000/svg">
  <path fill-rule="evenodd" clip-rule="evenodd" d="M0 0V112.427H185.798V79.8126H216.193V123.251H306.94L324.392 150V123.251H333V52.5981H216.193V74.3002H185.798V0H0Z" fill="#E3EBF3"/>
  <path fill-rule="evenodd" clip-rule="evenodd" d="M263 89C263 92.866 259.642 96 255.5 96C251.358 96 248 92.866 248 89C248 85.134 251.358 82 255.5 82C259.642 82 263 85.134 263 89Z" fill="#1C69FA"/>
  <path fill-rule="evenodd" clip-rule="evenodd" d="M286 89C286 92.866 282.642 96 278.5 96C274.361 96 271 92.866 271 89C271 85.134 274.361 82 278.5 82C282.642 82 286 85.134 286 89Z" fill="#1C69FA"/>
  <path fill-rule="evenodd" clip-rule="evenodd" d="M309 89C309 92.866 305.639 96 301.5 96C297.358 96 294 92.866 294 89C294 85.134 297.358 82 301.5 82C305.639 82 309 85.134 309 89Z" fill="#1C69FA"/>
  <path fill-rule="evenodd" clip-rule="evenodd" d="M74 56.0014C74 60.9714 69.7454 65 64.5 65C59.2546 65 55 60.9714 55 56.0014C55 51.0286 59.2546 47 64.5 47C69.7454 47 74 51.0286 74 56.0014Z" fill="#6A9DFC"/>
  <path fill-rule="evenodd" clip-rule="evenodd" d="M105 56.0014C105 60.9714 100.745 65 95.5 65C90.2546 65 86 60.9714 86 56.0014C86 51.0286 90.2546 47 95.5 47C100.745 47 105 51.0286 105 56.0014Z" fill="#6A9DFC"/>
  <path fill-rule="evenodd" clip-rule="evenodd" d="M136 56.0014C136 60.9714 131.745 65 126.5 65C121.255 65 117 60.9714 117 56.0014C117 51.0286 121.255 47 126.5 47C131.745 47 136 51.0286 136 56.0014Z" fill="#6A9DFC"/>
</svg>
